<svg width="82" height="78" viewBox="0 0 82 78" fill="none" xmlns="http://www.w3.org/2000/svg">
<path d="M-6.51043 68.7011C-5.46945 69.3552 -4.22273 70.0338 -2.88389 70.1045C-2.31887 70.1352 -1.89203 69.9571 -1.6126 69.5763C-0.531697 68.09 -2.1899 63.76 -3.28923 60.8918C-3.66693 59.906 -3.99241 59.0554 -4.0262 58.7636C-4.51751 54.3477 -4.17051 49.9594 -3.81124 46.6336C-3.03741 39.4324 -1.48055 30.2566 3.7305 23.1474C4.48897 22.1064 6.30071 20.4021 7.6979 21.3847C8.71124 22.0972 8.56384 23.6879 8.36424 24.8241C7.98654 26.9738 7.55664 29.1541 7.14209 31.2638C6.2485 35.8087 5.32115 40.5072 4.86361 45.1995C4.0775 53.2729 4.84517 59.9552 7.21271 65.624L7.26185 65.7438C8.24142 68.0869 9.4605 71.0073 11.5547 72.5427C12.9243 73.5469 14.647 73.9615 16.167 74.3269C17.4444 74.634 18.7372 74.9933 19.9839 75.3373C21.6237 75.7917 23.3157 76.2616 25.0107 76.624C25.5604 76.7437 26.1131 76.885 26.6659 77.0262C28.0999 77.3978 29.5831 77.7817 31.0939 77.7448C32.4726 77.711 33.2495 77.3794 33.4768 76.7314C34.0479 75.0977 30.4459 72.079 28.5083 70.4607C28.0784 70.0983 27.7376 69.8158 27.6086 69.6807C24.2738 66.1921 23.4293 61.2664 22.7384 55.659C22.3146 52.2319 21.8786 48.6911 22.1979 45.1964C22.4467 42.4818 23.2972 38.6278 25.9442 35.6797C26.2667 35.3205 26.6259 34.9796 27.0651 34.9059C27.3476 34.8598 27.6731 34.9212 28.0661 35.1024C30.8513 36.3707 31.4623 39.9759 31.8155 43.2526C32.7521 51.937 34.6621 60.5294 37.4933 68.7901C38.9519 73.0464 40.8957 75.2113 43.4321 75.414C46.8437 75.6843 50.4303 74.1243 53.9003 72.6164C55.1654 72.0668 56.3568 71.5478 57.4992 71.1393C63.3643 69.0389 68.0564 67.0919 72.2633 65.0068C74.379 63.9596 76.3443 62.8264 77.1396 60.4833C77.7507 58.6899 77.6033 56.7338 77.4621 54.839C77.3884 53.8502 77.3116 52.8276 77.3515 51.8695C77.4836 48.642 78.0578 45.4943 79.0619 42.5186C79.2369 42.0027 79.4243 41.4868 79.6116 40.9709C80.3885 38.8336 81.1899 36.6256 81.0579 34.3286C80.7662 29.3414 76.1048 25.7638 71.8948 24.5508C68.2038 23.4883 64.2855 23.5989 60.4962 23.7063C59.6241 23.7309 58.752 23.7555 57.8861 23.7647C57.1123 23.7739 56.3538 23.7923 55.5984 23.8077C53.3352 23.8599 51.198 23.9059 48.9195 23.7524L40.4842 23.1874C39.4187 23.1167 38.3163 23.0399 37.3582 22.5701C35.442 21.6304 34.4563 19.0079 35.1565 16.7231C35.7706 14.7301 37.5394 12.9582 39.8854 11.9878C41.476 11.3306 43.1772 11.042 44.9245 10.7809C49.4016 10.1146 54.6833 9.53723 59.879 10.2896C62.7655 10.7072 65.4278 11.521 67.7861 12.7064C69.1035 13.3697 70.3134 14.1374 71.3758 14.9911C71.7136 15.2614 72.0299 15.6176 72.3646 15.9953C72.9634 16.6679 73.5837 17.3649 74.3975 17.6536C74.8857 17.8256 75.5613 17.7334 75.8561 17.2145C76.7312 15.6606 75.6933 13.3451 74.8611 11.4811C74.6185 10.9376 74.3882 10.4217 74.2439 10.0071C74.0382 9.40519 73.8294 8.76644 73.6144 8.1062C72.6963 5.28097 71.6522 2.07496 70.0094 -0.160649C68.649 -2.0124 66.1249 -3.2469 62.5075 -3.83344C55.5492 -4.96045 48.4988 -3.41887 42.517 -1.76365C40.9602 -1.33373 39.3818 -0.866957 37.8556 -0.415533C33.0377 1.00629 28.0569 2.47418 23.0055 3.07914C21.3504 3.27875 20.3217 3.00851 19.855 2.25307C19.2807 1.32259 19.8826 0.0174648 20.7485 -0.845458C21.897 -2.0124 23.3556 -2.83847 24.7682 -3.6369C28.8 -5.9155 33.3662 -8.49812 38.3009 -8.94647C39.0901 -9.01711 39.8977 -9.03553 40.6807 -9.05395C41.4545 -9.06931 42.2529 -9.08773 43.0391 -9.15837C44.8477 -9.31805 46.6503 -9.75412 48.3944 -10.1748C50.9217 -10.7859 53.5379 -11.4216 56.1388 -11.179C56.4428 -11.1514 57.1553 -10.9456 57.9107 -10.7307C60.008 -10.1288 61.528 -9.73262 62.0132 -10.1011C62.1145 -10.1779 62.2312 -10.3284 62.2158 -10.5986C62.0746 -13.0738 49.6657 -24.1689 48.8796 -24.6387C46.5182 -26.0483 44.5253 -26.7914 42.6122 -26.9788C37.914 -27.4394 33.7808 -24.6664 29.7857 -21.9824C29.4418 -21.7521 29.104 -21.5249 28.7632 -21.3007C25.2625 -18.976 21.55 -16.9124 17.73 -15.162C17.0544 -14.8518 16.0841 -14.4956 15.4761 -14.9869C15.0308 -15.3462 14.9878 -16.0464 15.1751 -16.55C15.384 -17.1212 15.8231 -17.5788 16.2929 -18.0363C20.0392 -21.6723 24.5993 -24.5712 29.4817 -26.4168C29.6353 -26.4751 29.8748 -26.5519 30.1696 -26.644C31.794 -27.1569 34.8187 -28.115 35.1258 -29.5982C35.2394 -30.1418 34.9845 -30.6884 34.3703 -31.2197C33.9159 -31.6127 33.3509 -31.7908 32.7582 -31.9536C30.4367 -32.5954 28.0385 -32.9701 25.7231 -33.3294C23.9298 -33.6088 22.0782 -33.9006 20.2787 -34.309C18.8017 -34.6468 17.2725 -34.9938 15.7187 -34.9999C14.0728 -35.0061 12.433 -34.6222 10.9099 -34.2046C9.43287 -33.8023 7.50751 -33.225 5.7142 -32.3436C-1.30245 -28.895 -5.6199 -20.7694 -4.54514 -13.0215C-4.50215 -12.7145 -4.45302 -12.4104 -4.40389 -12.1034C-4.26877 -11.2742 -4.12752 -10.4174 -4.15515 -9.57601L-4.16438 -9.26278C-4.20737 -7.81025 -4.25958 -6.00149 -5.49094 -5.18156C-5.60763 -5.10172 -5.73045 -5.03723 -5.85636 -4.98195C-6.99867 -4.49675 -8.27917 -4.97274 -9.51668 -5.43337C-10.0111 -5.61763 -10.4809 -5.79267 -10.9384 -5.90629C-12.7225 -6.35157 -14.7707 -6.61567 -17.3778 -6.73543C-21.904 -6.94118 -25.8162 -6.14275 -29.0005 -4.35856C-30.7662 -3.36973 -32.4889 -1.96941 -34.273 -0.0777371C-34.4634 0.124942 -34.6538 0.330691 -34.8411 0.539511C-36.5054 2.39126 -37.9794 4.41805 -39.2292 6.57075C-40.611 8.95683 -41.4217 11.0082 -41.7748 13.0227C-42.131 15.0495 -42.0665 17.2943 -41.569 20.0827C-40.6724 25.1251 -38.7409 30.3088 -35.6671 35.9346C-35.0315 37.0985 -34.5217 38.3606 -34.0304 39.5829C-32.9771 42.19 -31.8901 44.8863 -29.5103 46.7687C-28.7886 47.3399 -28.1069 47.4965 -27.4836 47.2355C-25.463 46.3972 -24.6493 41.5175 -24.118 36.8528C-24.072 36.4352 -24.0321 36.1066 -24.0014 35.8886L-23.9492 35.5201C-23.7741 34.304 -23.5899 33.0449 -23.1446 31.8964C-22.5857 30.4623 -21.6246 29.2032 -20.6972 27.9902L-13.9846 19.2198C-13.3459 18.3875 -12.6273 17.4417 -11.6048 17.0271C-11.0459 16.7999 -10.3611 16.803 -9.82068 17.0394C-9.54124 17.1623 -9.17275 17.3987 -8.99772 17.8501C-8.80734 18.3446 -8.91482 18.9311 -9.04379 19.4409C-9.62109 21.7195 -10.8248 23.8138 -11.9886 25.8375C-12.8454 27.3269 -13.7328 28.8685 -14.3777 30.4869C-15.0932 32.2833 -15.52 34.1934 -15.9315 36.0421C-16.1034 36.816 -16.2754 37.5929 -16.4688 38.3606C-17.2058 41.2841 -18.256 44.1431 -19.5887 46.8578L-19.7545 47.1925C-20.8907 49.4896 -22.1773 52.0906 -21.2592 54.5381C-20.7556 55.8893 -19.6593 56.8996 -18.6951 57.7932L-12.2619 63.7446C-11.8289 64.1438 -11.4021 64.5523 -10.9784 64.9638C-9.59652 66.2873 -8.16863 67.657 -6.51043 68.7011Z" fill="#202020"/>
</svg>
