<svg width="394" height="284" viewBox="0 0 394 284" fill="none" xmlns="http://www.w3.org/2000/svg">
<g opacity="0.05">
<path d="M324.323 307.82C322.281 303.155 320.696 298.522 319.523 293.94C319.36 293.347 319.216 292.761 319.084 292.168C317.96 287.369 317.297 282.612 317.088 277.92L317.082 277.908C317.042 277.125 317.02 276.351 317.027 275.562L317.02 275.55C317.014 275.47 317.011 275.39 317.005 275.31C316.987 275.203 316.996 275.117 317.011 275.046C317.005 275.034 317.005 275.034 317.011 275.012C316.99 274.238 317.002 273.464 317.024 272.703C317.174 266.862 318.018 261.139 319.529 255.541C319.536 255.522 319.529 255.507 319.539 255.488C319.554 255.415 319.575 255.356 319.603 255.28C321.148 249.586 323.399 244.034 326.285 238.627C326.632 237.973 326.995 237.313 327.379 236.674C327.372 236.662 327.385 236.656 327.385 236.656C330.686 230.84 334.752 225.22 339.545 219.834C342.991 215.928 346.82 212.139 351.015 208.469C352.201 207.44 353.404 206.418 354.645 205.408L354.639 205.395C359.847 201.136 365.565 197.049 371.771 193.171" stroke="#222222" stroke-width="2.1411" stroke-miterlimit="10" stroke-linecap="round" stroke-linejoin="round"/>
<path d="M354.651 205.405C355.324 202.622 354.848 198.79 354.685 197.329C354.114 191.826 352.981 186.246 354.132 180.719C355.462 174.326 359.66 168.955 362.252 162.949C366.649 152.711 366.029 140.449 360.612 130.718C360.695 137.022 358.901 143.339 355.533 148.663C351.943 154.286 346.75 158.653 342.377 163.679C338.001 168.706 334.291 174.943 334.749 181.594C335.114 187.078 338.194 191.795 341.373 196.091C342.994 198.29 344.735 200.399 346.268 202.653C347.373 204.275 348.5 207.932 350.601 208.402C350.745 208.432 350.889 208.463 351.021 208.466" stroke="#222222" stroke-width="2.1411" stroke-miterlimit="10" stroke-linecap="round" stroke-linejoin="round"/>
<path d="M384.715 168.233C389.06 164.65 394.898 163.437 400.521 163.124C406.147 162.81 411.819 163.274 417.399 162.509C422.978 161.745 428.678 159.525 432.041 155.005C429.667 164.496 422.367 172.609 413.179 175.968C407.682 177.977 401.633 178.376 396.381 180.961C392.058 183.09 373.654 196.929 371.965 193.631C370.389 190.558 375.051 184.17 376.301 181.336C378.398 176.589 380.612 171.617 384.715 168.233Z" stroke="#222222" stroke-width="2.1411" stroke-miterlimit="10" stroke-linecap="round" stroke-linejoin="round"/>
<path d="M350.978 217.86C353.613 218.698 356.125 219.886 358.751 220.752C365.894 223.104 373.841 222.935 380.88 220.285C385.114 218.692 389.017 216.235 393.381 215.041C400.659 213.051 408.886 214.97 414.534 219.972C409.817 218.965 404.851 219.905 400.404 221.772C395.958 223.639 391.95 226.39 387.998 229.157C384.116 231.874 380.213 234.647 375.84 236.471C371.467 238.298 366.511 239.121 361.957 237.801C355.883 236.041 351.599 230.999 346.934 227.05C344.704 225.165 342.122 223.93 339.837 222.174C337.503 220.381 340.844 218.627 343.264 217.522C346.415 216.082 347.788 216.846 350.978 217.86Z" stroke="#222222" stroke-width="2.1411" stroke-miterlimit="10" stroke-linecap="round" stroke-linejoin="round"/>
<path d="M327.382 236.671C327.375 236.659 327.388 236.652 327.388 236.652C329.258 231.411 325.852 223.872 323.816 219.711C321.264 214.485 317.963 209.4 317.426 203.62C316.938 198.293 318.848 193.063 319.45 187.763C320.444 178.944 317.478 169.63 311.118 163.461C313.434 169.339 313.117 176.186 310.252 181.815C307.955 186.326 304.156 190.005 302.154 194.654C299.968 199.748 300.183 205.813 302.735 210.726C305.913 216.837 312.239 220.878 315.218 227.081C316.824 230.431 324.283 240.233 326.291 238.624" stroke="#222222" stroke-width="2.1411" stroke-miterlimit="10" stroke-linecap="round" stroke-linejoin="round"/>
<path d="M339.149 220.295C339.162 220.288 339.195 220.288 339.217 220.298C342.079 220.264 345.085 221.271 347.68 222.619C351.734 224.707 355.502 227.578 359.93 228.622C365.808 230.001 371.94 227.987 377.357 225.315C382.759 222.65 387.888 219.263 393.701 217.645C400.34 215.805 407.63 216.468 413.873 219.423C414.795 219.855 415.704 220.362 416.576 220.9" stroke="#222222" stroke-width="2.1411" stroke-miterlimit="10" stroke-linecap="round" stroke-linejoin="round"/>
<path d="M311.739 164.085C311.745 164.097 311.745 164.097 311.745 164.097C314.791 169.369 316.084 175.643 315.233 181.665C314.521 186.658 312.429 191.331 310.986 196.162C309.527 200.998 308.735 206.307 310.578 210.999C312.009 214.641 314.837 217.5 317.318 220.522C321.449 225.595 324.695 231.395 326.857 237.574L326.863 237.586" stroke="#222222" stroke-width="2.1411" stroke-miterlimit="10" stroke-linecap="round" stroke-linejoin="round"/>
<path d="M352.673 207.035C350.868 202.423 349.225 197.734 348.239 192.885C346.98 186.578 346.912 179.89 349.142 173.877C351.107 168.589 354.7 164.094 357.249 159.073C361.508 150.699 362.654 140.812 360.612 131.652" stroke="#222222" stroke-width="2.1411" stroke-miterlimit="10" stroke-linecap="round" stroke-linejoin="round"/>
<path d="M371.707 192.839C376.089 188.872 380.471 184.901 384.854 180.934C388.308 177.808 391.883 174.596 396.259 173.014C400.696 171.39 405.57 171.571 410.216 170.748C418.947 169.185 426.848 163.762 431.672 156.35" stroke="#222222" stroke-width="2.1411" stroke-miterlimit="10" stroke-linecap="round" stroke-linejoin="round"/>
<path d="M128.142 208.964C133.872 212.495 139.148 216.22 143.963 220.107L143.957 220.12C145.106 221.041 146.217 221.974 147.314 222.914C151.192 226.264 154.733 229.728 157.927 233.299C162.367 238.228 166.135 243.371 169.206 248.699C169.206 248.699 169.218 248.705 169.212 248.717C169.572 249.304 169.906 249.909 170.229 250.508C172.916 255.464 175.016 260.555 176.469 265.785C176.496 265.858 176.515 265.91 176.53 265.978C176.536 265.996 176.53 266.009 176.536 266.027C177.955 271.164 178.766 276.425 178.938 281.792C178.959 282.492 178.975 283.205 178.962 283.917C178.968 283.936 178.968 283.936 178.962 283.948C178.978 284.016 178.984 284.092 178.968 284.191C178.965 284.264 178.962 284.338 178.956 284.409L178.95 284.421C178.959 285.146 178.947 285.858 178.913 286.577L178.907 286.589C178.741 290.903 178.161 295.282 177.154 299.701C177.037 300.247 176.908 300.785 176.76 301.331C175.71 305.554 174.279 309.822 172.427 314.124" stroke="#222222" stroke-width="2.1411" stroke-miterlimit="10" stroke-linecap="round" stroke-linejoin="round"/>
<path d="M147.317 222.911C147.439 222.908 147.571 222.877 147.704 222.849C149.632 222.407 150.649 219.039 151.656 217.54C153.053 215.458 154.641 213.508 156.118 211.478C159.014 207.511 161.82 203.157 162.128 198.112C162.511 191.995 159.063 186.28 155.012 181.683C150.962 177.083 146.162 173.1 142.83 167.948C139.701 163.071 138.018 157.274 138.058 151.476C133.132 160.458 132.629 171.734 136.731 181.124C139.148 186.633 143.039 191.546 144.298 197.418C145.388 202.49 144.378 207.631 143.883 212.695C143.742 214.039 143.328 217.565 143.96 220.12" stroke="#222222" stroke-width="2.1411" stroke-miterlimit="10" stroke-linecap="round" stroke-linejoin="round"/>
<path d="M116.104 186.108C112.087 182.838 106.713 181.757 101.539 181.499C96.3645 181.244 91.1532 181.702 86.0155 181.029C80.8779 180.357 75.6267 178.348 72.5098 174.212C74.7454 182.927 81.5044 190.346 89.9709 193.383C95.0348 195.2 100.602 195.532 105.445 197.878C109.431 199.81 126.435 212.433 127.97 209.39C129.401 206.553 125.077 200.706 123.913 198.108C121.96 193.757 119.897 189.197 116.104 186.108Z" stroke="#222222" stroke-width="2.1411" stroke-miterlimit="10" stroke-linecap="round" stroke-linejoin="round"/>
<path d="M147.409 231.552C144.992 232.338 142.689 233.444 140.278 234.254C133.722 236.456 126.413 236.348 119.927 233.95C116.024 232.507 112.422 230.271 108.402 229.2C101.699 227.413 94.1442 229.221 88.979 233.855C93.309 232.903 97.8815 233.738 101.981 235.427C106.081 237.119 109.781 239.628 113.429 242.146C117.016 244.624 120.618 247.151 124.651 248.803C128.683 250.458 133.246 251.186 137.425 249.949C143.002 248.297 146.911 243.635 151.177 239.978C153.216 238.231 155.584 237.079 157.675 235.452C159.812 233.787 156.729 232.197 154.497 231.193C151.595 229.891 150.339 230.6 147.409 231.552Z" stroke="#222222" stroke-width="2.1411" stroke-miterlimit="10" stroke-linecap="round" stroke-linejoin="round"/>
<path d="M170.229 250.505C172.083 251.975 178.889 242.917 180.344 239.828C183.047 234.107 188.841 230.351 191.728 224.716C194.047 220.181 194.209 214.608 192.17 209.934C190.303 205.669 186.79 202.309 184.653 198.173C181.984 193.014 181.655 186.716 183.753 181.299C177.94 187.008 175.265 195.59 176.229 203.694C176.813 208.564 178.6 213.361 178.179 218.262C177.719 223.58 174.709 228.275 172.394 233.097C170.545 236.935 167.456 243.884 169.206 248.696C169.206 248.696 169.218 248.702 169.212 248.714" stroke="#222222" stroke-width="2.1411" stroke-miterlimit="10" stroke-linecap="round" stroke-linejoin="round"/>
<path d="M87.1089 234.721C87.9104 234.22 88.7395 233.751 89.5871 233.348C95.3112 230.597 102.012 229.943 108.126 231.598C113.482 233.05 118.214 236.137 123.198 238.556C128.191 240.982 133.845 242.797 139.24 241.498C143.306 240.512 146.755 237.85 150.471 235.909C152.847 234.653 155.608 233.711 158.24 233.726C158.258 233.72 158.289 233.72 158.301 233.723" stroke="#222222" stroke-width="2.1411" stroke-miterlimit="10" stroke-linecap="round" stroke-linejoin="round"/>
<path d="M169.694 249.553L169.7 249.54C171.654 243.847 174.605 238.498 178.376 233.809C180.639 231.018 183.225 228.374 184.521 225.017C186.188 220.691 185.43 215.814 184.06 211.377C182.706 206.943 180.759 202.659 180.074 198.072C179.257 192.538 180.412 186.762 183.182 181.898C183.182 181.898 183.182 181.898 183.188 181.886" stroke="#222222" stroke-width="2.1411" stroke-miterlimit="10" stroke-linecap="round" stroke-linejoin="round"/>
<path d="M138.064 152.333C136.237 160.765 137.349 169.852 141.313 177.528C143.684 182.131 147.016 186.246 148.852 191.095C150.934 196.613 150.913 202.764 149.789 208.567C148.91 213.032 147.424 217.353 145.79 221.603" stroke="#222222" stroke-width="2.1411" stroke-miterlimit="10" stroke-linecap="round" stroke-linejoin="round"/>
<path d="M72.863 175.446C77.3404 182.236 84.6368 187.177 92.6734 188.568C96.9511 189.299 101.432 189.105 105.522 190.573C109.554 192.001 112.861 194.936 116.052 197.789C120.103 201.413 124.156 205.039 128.207 208.663C128.621 209.034 129.033 209.403 129.447 209.774" stroke="#222222" stroke-width="2.1411" stroke-miterlimit="10" stroke-linecap="round" stroke-linejoin="round"/>
<path d="M209.14 211.319C203.296 205.015 198.441 198.029 196.049 189.839C194.317 183.912 193.997 177.645 192.066 171.789C190.757 167.773 188.718 164.036 187.118 160.126C181.44 146.201 180.427 128.753 182.359 113.906C183.584 104.445 187.754 95.383 194.071 88.2343C201.401 79.9648 210.813 76.1356 221.525 74.1427C233.179 71.987 245.373 71.7168 256.754 75.0271C268.254 78.3742 278.659 85.3847 286.081 94.7842C294.422 105.375 298.758 120.763 294.059 133.393" stroke="#222222" stroke-width="2.1411" stroke-miterlimit="10" stroke-linecap="round" stroke-linejoin="round"/>
<path d="M218.472 220.39C220.18 221.91 221.903 223.405 223.61 224.891C224.163 225.374 224.719 225.859 225.296 226.329" stroke="#222222" stroke-width="2.1411" stroke-miterlimit="10" stroke-linecap="round" stroke-linejoin="round"/>
<path d="M232.777 230.793C233.308 230.947 233.848 231.064 234.401 231.147C238.974 231.807 243.451 229.614 247.351 227.164C263.317 217.138 275.628 201.431 281.555 183.535C281.555 183.535 292.014 153.669 286.652 153.009C282.786 152.533 282.399 159.669 282.399 159.669C282.009 165.728 285.642 168.457 288.277 168.811C292.171 169.33 295.503 166.17 297.797 163.421C300.345 160.369 302.154 156.721 303.131 152.873C303.748 150.441 304.037 147.923 303.972 145.415C303.914 143.161 303.779 140.403 302.584 138.459C300.21 134.602 295.426 131.731 291.111 134.544C288.535 136.224 284.791 139.116 284.524 146.766" stroke="#222222" stroke-width="2.1411" stroke-miterlimit="10" stroke-linecap="round" stroke-linejoin="round"/>
<path d="M181.459 127.076C185.405 113.196 200.437 118.681 200.437 118.681C205.209 106.088 217.1 103.324 224.479 103.407C231.858 103.49 239.164 106.389 244.584 111.391C249.359 115.791 252.569 121.576 255.799 127.205C259.03 132.834 262.463 138.53 267.53 142.586C272.268 146.37 278.769 148.479 284.521 146.766" stroke="#222222" stroke-width="2.1411" stroke-miterlimit="10" stroke-linecap="round" stroke-linejoin="round"/>
<path d="M267.923 79.6086C272.683 77.0875 278.103 75.8162 283.498 75.2389C292.429 74.2624 302.197 75.285 309.079 81.0826C316.56 87.3868 318.989 97.9194 319.001 107.709C319.013 114.437 318.071 121.269 315.242 127.386C312.746 132.818 308.655 137.661 303.401 140.465" stroke="#222222" stroke-width="2.1411" stroke-miterlimit="10" stroke-linecap="round" stroke-linejoin="round"/>
<path d="M250.428 118.328C251.337 117.892 252.286 117.541 253.262 117.287C258.2 115.994 263.728 117.158 267.72 120.342C273.969 125.317 276.009 134.234 282.252 139.215C283.262 140.019 284.361 140.695 285.522 141.232" stroke="#222222" stroke-width="2.1411" stroke-miterlimit="10" stroke-linecap="round" stroke-linejoin="round"/>
<path d="M217.714 201.612C217.821 201.17 218.079 200.765 218.475 200.541C219.495 199.963 220.293 201.149 221.279 201.164C221.989 201.176 222.557 200.583 222.931 199.982C223.306 199.38 223.607 198.692 224.184 198.284C225.13 197.614 226.423 197.93 227.541 198.244C232.338 199.582 237.288 200.372 242.263 200.593C242.779 200.614 243.304 200.63 243.798 200.479C243.829 200.47 243.86 200.461 243.89 200.448C244.587 200.197 244.25 199.113 243.546 199.337C243.414 199.377 243.288 199.432 243.172 199.5C242.64 199.794 242.244 200.279 241.867 200.759C239.659 203.565 237.715 206.596 235.224 209.157C232.734 211.718 229.561 213.828 226.008 214.178C224.455 214.331 222.787 214.107 221.549 213.152C220.545 212.378 219.934 211.214 219.139 210.229C218.773 209.774 218.347 209.357 217.852 209.04C217.606 208.884 217.348 208.749 217.072 208.66C216.833 208.58 216.436 208.626 216.234 208.521C215.865 208.331 216.357 207.161 216.455 206.759C216.627 206.052 216.802 205.346 216.974 204.643L217.714 201.612Z" stroke="#222222" stroke-width="2.1411" stroke-miterlimit="10" stroke-linecap="round" stroke-linejoin="round"/>
<path d="M242.029 200.494C241.952 200.519 241.882 200.547 241.802 200.571C237.195 202.116 232.386 203.04 227.534 203.301C226.794 203.341 226.02 203.378 225.382 203.759C224.7 204.173 224.246 204.959 223.478 205.18C222.667 205.423 221.743 204.944 220.957 205.263C220.352 205.515 220.026 206.151 219.627 206.67C218.804 207.738 217.502 208.389 216.166 208.466" stroke="#222222" stroke-width="2.1411" stroke-miterlimit="10" stroke-linecap="round" stroke-linejoin="round"/>
<path d="M210.12 165.804C203.959 171.596 198.02 172.112 192.244 168.648C192.244 168.648 193.936 164.247 198.066 161.607C202.197 158.966 207.816 161.539 207.816 161.539C211.299 163.474 212.69 165.313 213.639 169.182C214.588 173.051 214.149 177.178 212.828 180.937C212.137 182.908 211.194 184.932 211.532 186.992C211.809 188.669 212.923 190.115 214.281 191.138C215.638 192.16 217.235 192.811 218.816 193.426C218.816 193.426 222.007 198.612 221.276 201.164" stroke="#222222" stroke-width="2.1411" stroke-miterlimit="10" stroke-linecap="round" stroke-linejoin="round"/>
<path d="M173.607 248.837C174.058 248.831 174.51 248.825 174.961 248.819C187.426 248.619 200.127 246.817 211.262 241.185C211.591 241.019 211.935 240.844 212.263 240.666" stroke="#222222" stroke-width="2.1411" stroke-miterlimit="10" stroke-linecap="round" stroke-linejoin="round"/>
<path d="M289.708 168.832C289.131 186.529 289.094 204.342 292.972 221.59C294.763 229.59 297.757 237.933 304.378 242.785C313.166 249.206 325.269 247.52 335.956 245.472C346.642 243.433 358.683 241.596 367.604 247.839C374.108 252.387 377.431 260.494 377.925 268.41C378.42 276.339 376.451 284.197 374.237 291.821C372.082 299.191 368.845 309.131 365.627 318.122C362.912 325.713 355.757 330.817 347.696 330.903C286.176 331.572 221.233 325.854 152.697 330.298C149.534 330.503 146.549 328.726 145.321 325.802C139.775 312.616 136.909 298.319 136.974 284.019C136.999 278.187 137.514 272.285 139.449 266.783C141.393 261.28 144.857 256.167 149.807 253.081C155.544 249.516 162.45 249.006 169.32 248.883" stroke="#222222" stroke-width="2.1411" stroke-miterlimit="10" stroke-linecap="round" stroke-linejoin="round"/>
<path d="M291.108 330.224C278.791 313.446 274.974 292.54 273.503 286.767C272.032 280.994 271.089 275.058 268.918 269.509C263.756 256.302 252.323 246.74 241.338 237.773C237.767 234.859 234.195 231.942 230.621 229.028C229.521 228.131 228.397 227.219 227.074 226.703C225.75 226.19 224.172 226.129 222.977 226.894C221.479 227.855 220.966 229.888 221.288 231.638C221.611 233.391 222.6 234.936 223.57 236.431C220.514 231.868 218.178 226.977 215.395 222.245C212.613 217.509 209.011 213.002 204.051 210.643C203.121 210.201 201.975 209.854 201.11 210.41C200.4 210.867 200.139 211.813 200.256 212.648C200.372 213.484 200.799 214.239 201.211 214.976C208.2 227.483 213.626 240.869 217.25 254.73" stroke="#222222" stroke-width="2.1411" stroke-miterlimit="10" stroke-linecap="round" stroke-linejoin="round"/>
<path d="M212.192 238.731C212.263 240.482 212.309 242.238 212.331 243.988C212.423 251.217 212.1 258.473 212.966 265.643C213.835 272.82 215.994 280.03 220.514 285.668C226.008 292.515 245.217 299.55 251.663 329.162" stroke="#222222" stroke-width="2.1411" stroke-miterlimit="10" stroke-linecap="round" stroke-linejoin="round"/>
<path d="M220.1 230.695C219.762 223.657 217.87 216.69 214.581 210.456C213.9 209.157 212.822 207.708 211.357 207.852C210.288 207.959 209.484 208.96 209.241 210.008C208.999 211.055 209.201 212.148 209.389 213.21C209.475 213.683 209.557 214.15 209.634 214.623V214.629" stroke="#222222" stroke-width="2.1411" stroke-miterlimit="10" stroke-linecap="round" stroke-linejoin="round"/>
<path d="M223.57 236.434C223.57 236.434 228.634 243.666 234.647 249.623C240.656 255.58 243.23 260.862 243.23 260.862" stroke="#222222" stroke-width="2.1411" stroke-miterlimit="10" stroke-linecap="round" stroke-linejoin="round"/>
<path d="M201.426 169.164C204.521 168.328 207.773 167.232 210.571 165.666C210.777 167.49 209.266 168.749 207.902 169.981C205.676 171.992 202.617 173.054 199.623 172.852C197.415 172.701 195.269 171.866 193.515 170.521C193.224 170.297 192.201 169.068 192.241 168.648C192.299 168.037 193.248 169.09 193.601 169.194C194.796 169.551 196.012 169.735 197.262 169.735C198.668 169.738 200.072 169.529 201.426 169.164Z" fill="#222222"/>
<path d="M252.998 148.62C246.94 148.32 240.706 148.341 235.034 150.484C229.359 152.628 224.298 157.301 223.263 163.277C228.655 165.7 235.024 165.85 240.524 163.685C246.024 161.521 250.585 157.071 252.882 151.624" stroke="#222222" stroke-width="2.1411" stroke-miterlimit="10" stroke-linecap="round" stroke-linejoin="round"/>
<path d="M239.609 161.367C244.609 158.978 248.865 155.29 252.842 151.433C252.968 156.733 249.405 161.699 244.701 164.143C239.996 166.587 233.013 167.155 227.832 166.022C226.859 165.81 222.802 164.68 222.937 163.381C224.021 163.249 226.902 163.808 228.063 163.867C229.365 163.934 230.673 163.87 231.966 163.695C234.619 163.335 237.202 162.516 239.609 161.367Z" fill="#222222"/>
<path d="M187.165 160.231C188.731 158.241 190.122 156.107 191.82 154.234C194.188 151.596 197.489 149.391 201.023 149.698C204.724 150.005 207.764 153.079 209.048 156.567C210.319 160.068 210.463 162.681 210.052 166.369" stroke="#222222" stroke-width="2.1411" stroke-miterlimit="10" stroke-linecap="round" stroke-linejoin="round"/>
<path d="M225.127 164.671C222.652 163.633 220.803 161.395 219.814 158.898C218.813 156.402 218.601 153.666 218.694 150.982C218.776 148.344 219.163 145.679 220.201 143.253C221.239 140.827 222.971 138.634 225.293 137.372C227.897 135.969 231.02 135.84 233.953 136.193C236.898 136.534 239.784 137.314 242.729 137.596C248.598 138.174 254.571 136.583 259.555 133.426" stroke="#222222" stroke-width="2.1411" stroke-miterlimit="10" stroke-linecap="round" stroke-linejoin="round"/>
<path d="M200.431 118.687C196.307 106.834 197.25 94.2161 204.638 84.0827C206.677 81.2914 209.103 78.7918 211.824 76.6484" stroke="#222222" stroke-width="2.1411" stroke-miterlimit="10" stroke-linecap="round" stroke-linejoin="round"/>
<path d="M240.586 108.308C246.384 95.7361 256.585 85.1789 269.087 79.1941" stroke="#222222" stroke-width="2.1411" stroke-miterlimit="10" stroke-linecap="round" stroke-linejoin="round"/>
<path d="M361.324 166.449C363.615 176.082 365.451 185.835 366.926 195.52C367.005 196.014 367.085 196.496 367.153 196.982C368.4 205.34 369.376 213.634 370.128 221.738" stroke="#222222" stroke-width="2.1411" stroke-miterlimit="10" stroke-linecap="round" stroke-linejoin="round"/>
<path d="M372.097 252.12C371.937 247.726 371.722 243.196 371.44 238.575" stroke="#222222" stroke-width="2.1411" stroke-miterlimit="10" stroke-linecap="round" stroke-linejoin="round"/>
<path d="M140.06 187.521C139.59 194.393 139.197 202.429 139.105 209.222C139.093 209.731 139.093 210.226 139.077 210.723C139.065 212.332 139.05 213.926 139.05 215.52C139.05 216.069 139.05 216.619 139.05 217.169C139.062 221.802 139.145 226.399 139.277 230.925C139.305 231.902 139.345 232.869 139.385 233.833" stroke="#222222" stroke-width="2.1411" stroke-miterlimit="10" stroke-linecap="round" stroke-linejoin="round"/>
<path d="M141.209 262.702C140.834 258.467 140.499 254.073 140.189 249.574" stroke="#222222" stroke-width="2.1411" stroke-miterlimit="10" stroke-linecap="round" stroke-linejoin="round"/>
<path d="M142.121 166.787C142.173 166.345 142.36 164.748 142.428 164.306C150.867 104.945 177.273 51.3609 244.903 50.3137C306.972 49.3495 339.355 93.7064 355.925 146.701" stroke="#222222" stroke-width="2.1411" stroke-miterlimit="10" stroke-linecap="round" stroke-linejoin="round"/>
<path d="M91.1961 328.695C87.8795 328.369 84.7257 327.795 81.7347 327C81.3447 326.905 80.9639 326.8 80.5831 326.683C77.4815 325.793 74.5549 324.651 71.8095 323.269H71.8003C71.3397 323.042 70.8913 322.805 70.443 322.55H70.4338C70.3877 322.529 70.3386 322.504 70.2925 322.483C70.225 322.458 70.1789 322.427 70.142 322.394C70.1328 322.394 70.1328 322.394 70.1236 322.381C69.6753 322.145 69.2361 321.89 68.8093 321.638C65.5234 319.685 62.5232 317.373 59.8085 314.723C59.7993 314.714 59.7901 314.711 59.7809 314.701C59.744 314.671 59.7163 314.64 59.6826 314.597C56.9249 311.895 54.4743 308.836 52.3063 305.458C52.0452 305.05 51.7812 304.636 51.5416 304.209C51.5324 304.209 51.5324 304.199 51.5324 304.199C49.2661 300.456 47.356 296.338 45.8113 291.88C44.6813 288.665 43.7416 285.265 42.9861 281.697C42.7773 280.693 42.5777 279.677 42.3996 278.645H42.3904C41.6226 274.309 41.1129 269.74 40.8826 264.955" stroke="#222222" stroke-width="2.1411" stroke-miterlimit="10" stroke-linecap="round" stroke-linejoin="round"/>
<path d="M42.3966 278.651C41.0208 277.377 38.6808 276.425 37.7964 276.05C34.4706 274.619 30.9207 273.48 28.1354 271.06C24.9079 268.256 23.182 264.145 20.581 260.745C16.1405 254.963 8.93923 251.401 1.64893 251.383C5.27565 253.351 8.30968 256.391 10.2751 260.018C12.3387 263.865 13.174 268.223 14.648 272.328C16.122 276.434 18.4989 280.546 22.4419 282.41C25.6909 283.951 29.3699 283.699 32.8369 283.26C34.6088 283.036 36.3715 282.717 38.1496 282.563C39.4301 282.449 41.8776 282.975 42.8173 281.924C42.8818 281.851 42.9432 281.777 42.9893 281.703" stroke="#222222" stroke-width="2.1411" stroke-miterlimit="10" stroke-linecap="round" stroke-linejoin="round"/>
<path d="M30.7763 249.608C30.1191 245.981 31.2922 242.26 32.9105 238.949C34.5289 235.639 36.6079 232.547 37.9529 229.117C39.298 225.687 39.8538 221.722 38.346 218.36C43.0076 222.748 45.3077 229.51 44.2913 235.829C43.6832 239.61 41.9758 243.193 41.7762 247.016C41.6104 250.164 43.6341 265.097 41.2112 265.008C38.951 264.925 36.7952 260.22 35.5761 258.602C33.5278 255.884 31.3966 253.032 30.7763 249.608Z" stroke="#222222" stroke-width="2.1411" stroke-miterlimit="10" stroke-linecap="round" stroke-linejoin="round"/>
<path d="M48.3388 284.728C49.6592 283.49 51.1394 282.437 52.4722 281.212C56.0989 277.883 58.5403 273.292 59.2742 268.425C59.7164 265.499 59.5629 262.483 60.2753 259.612C61.4638 254.819 65.1887 250.735 69.8504 249.11C67.7683 251.481 66.7181 254.619 66.3618 257.755C66.0056 260.89 66.2974 264.059 66.6137 267.197C66.9238 270.283 67.2616 273.397 66.9054 276.477C66.5492 279.557 65.4375 282.652 63.2295 284.829C60.2815 287.737 56.0344 288.569 52.291 289.973C50.5007 290.642 48.9714 291.723 47.2363 292.466C45.4644 293.228 45.532 290.756 45.6732 289.024C45.8636 286.767 46.7388 286.226 48.3388 284.728Z" stroke="#222222" stroke-width="2.1411" stroke-miterlimit="10" stroke-linecap="round" stroke-linejoin="round"/>
<path d="M59.9438 307.534C60.994 305.351 62.5541 303.447 63.6074 301.264C65.5144 297.306 65.6526 292.638 67.7746 288.791C69.7829 285.152 73.3421 282.643 75.8387 279.32C78.4398 275.857 79.8217 271.499 79.6958 267.169C82.2323 271.561 83.7248 276.735 82.8803 281.734C82.1371 286.14 79.6681 290.05 77.0302 293.655C74.3923 297.26 71.4965 300.745 69.6755 304.826C68.6283 307.175 67.9373 309.711 66.4817 311.83C65.324 313.51 61.903 316.532 59.7841 314.701C57.8894 313.068 59.0532 309.386 59.9438 307.534Z" stroke="#222222" stroke-width="2.1411" stroke-miterlimit="10" stroke-linecap="round" stroke-linejoin="round"/>
<path d="M80.0857 267.879C80.0949 267.888 80.0949 267.9 80.1041 267.909C82.3059 273.784 81.2894 280.81 77.4017 285.754C74.7208 289.162 70.8269 291.643 68.926 295.534C67.4274 298.592 67.366 302.139 66.3772 305.4C65.2594 309.107 62.8948 312.414 59.7717 314.695" stroke="#222222" stroke-width="1.4274" stroke-miterlimit="10" stroke-linecap="round" stroke-linejoin="round"/>
<path d="M45.9497 292.264C45.9497 292.254 45.962 292.236 45.9712 292.227C46.8648 290.581 48.4034 289.187 50.0002 288.136C52.4876 286.491 55.3313 285.256 57.3427 283.061C60.0082 280.143 60.819 275.998 61.0216 272.052C61.2243 268.115 60.9295 264.105 61.8631 260.269C62.9348 255.891 65.6433 251.939 69.3253 249.319C69.8689 248.932 70.4462 248.573 71.0327 248.248" stroke="#222222" stroke-width="1.4274" stroke-miterlimit="10" stroke-linecap="round" stroke-linejoin="round"/>
<path d="M42.6976 280.303C39.4855 279.861 36.2856 279.302 33.1994 278.313C29.1949 277.017 25.3563 274.917 22.6324 271.723C20.2402 268.911 18.8214 265.422 16.767 262.364C13.346 257.257 8.06411 253.443 2.18335 251.681" stroke="#222222" stroke-width="1.4274" stroke-miterlimit="10" stroke-linecap="round" stroke-linejoin="round"/>
<path d="M41.2051 267.206C41.1161 266.822 41.027 266.436 40.938 266.052C40.8489 265.668 40.7599 265.281 40.6708 264.897C39.8048 261.126 38.9388 257.355 38.0728 253.588C37.3911 250.618 36.7001 247.547 37.1945 244.544C37.6859 241.492 39.3442 238.765 40.3606 235.848C42.2584 230.364 41.6842 224.118 38.991 218.996" stroke="#222222" stroke-width="1.4274" stroke-miterlimit="10" stroke-linecap="round" stroke-linejoin="round"/>
<path d="M413.619 72.9574C415.084 72.2665 416.812 73.2829 418.253 73.5838C420.083 73.9677 422.054 74.0782 423.918 74.0905C427.416 74.1151 430.997 73.4518 433.979 71.6278C435.671 70.5929 437.129 69.208 438.435 67.7126C440.031 65.8824 441.416 63.868 442.55 61.7215C443.498 59.9282 444.282 58.0213 444.552 56.013C444.831 53.9679 444.573 51.8829 444.131 49.8654C443.072 45.0044 440.965 40.4229 438.41 36.1515C436.524 32.9978 435.787 29.1502 432.667 26.8686C428.995 24.1879 428.678 34.742 428.488 36.5077C428.359 37.7176 428.255 38.9459 427.858 40.0974C427.41 41.3994 426.605 42.5478 425.81 43.6717C423.937 46.3249 422.064 48.978 420.193 51.6311C419.619 52.4448 418.999 53.2985 418.09 53.71C417.181 54.1215 415.9 53.8912 415.507 52.973C415.305 52.5001 415.375 51.9566 415.48 51.453C416.232 47.9063 418.603 44.9246 419.813 41.5099C420.611 39.2591 420.888 36.8608 421.382 34.524C421.935 31.9016 422.767 29.3375 423.857 26.8901C424.806 24.7621 425.967 22.3669 425.067 20.2174C424.603 19.1089 423.661 18.289 422.748 17.509C420.792 15.8385 418.836 14.165 416.88 12.4945C415.194 11.0543 413.606 9.45447 411.669 8.34286C410.72 7.79627 409.636 7.27117 408.515 7.25582C405.207 7.20975 409.924 15.8201 410.103 16.9901C410.637 20.5398 410.575 24.1602 410.33 27.7315C409.823 35.0859 408.573 42.6737 404.449 48.7845C403.598 50.0435 402.02 51.3517 400.746 50.5256C399.769 49.8931 399.8 48.4805 399.956 47.329C400.773 41.3073 401.989 35.3316 402.345 29.2669C402.702 23.2022 402.152 16.9471 399.597 11.4382C398.639 9.37463 397.487 6.84127 395.602 5.56691C394.41 4.76237 392.958 4.46144 391.548 4.182C388.916 3.65383 386.328 2.91993 383.681 2.45932C381.921 2.15224 380.134 1.56573 378.328 1.67935C372.742 2.03248 380.981 7.5506 381.795 8.33671C385.016 11.4566 385.901 16.2101 386.622 20.635C387.12 23.6966 387.621 26.7827 387.458 29.881C387.295 32.9763 386.417 36.1238 384.433 38.5098C384.144 38.8568 383.803 39.2038 383.361 39.2959C383.026 39.3665 382.676 39.2775 382.36 39.1455C379.738 38.0707 379.074 34.742 378.66 31.9384C377.539 24.3261 375.567 16.8427 372.797 9.66635C371.898 7.33873 370.338 4.26798 367.509 4.15437C363.437 3.99162 359.024 6.90268 355.333 8.38585C350.979 10.1362 346.676 12.037 342.549 14.2847C340.792 15.2397 339.103 16.2869 338.499 18.3228C337.783 20.7272 338.618 23.4079 338.612 25.8676C338.606 28.6927 338.216 31.5085 337.418 34.22C336.717 36.5906 335.707 38.9735 335.947 41.4332C336.346 45.5387 340.209 48.5818 344.213 49.5706C348.218 50.5594 352.413 49.9913 356.534 49.7794C359.236 49.6412 361.748 49.4048 364.454 49.4816C366.938 49.5522 369.422 49.6228 371.907 49.6934C372.874 49.7211 373.872 49.7549 374.757 50.1479C376.667 50.9954 377.542 53.4305 377.004 55.4511C376.467 57.4716 374.79 59.0408 372.889 59.9129C371.486 60.5577 369.96 60.8771 368.443 61.1627C364.085 61.9826 359.632 62.5721 355.223 62.1054C352.778 61.8474 350.352 61.2487 348.11 60.2261C346.959 59.701 345.853 59.0684 344.834 58.3161C343.962 57.6712 343.212 56.4337 342.134 56.099C341.757 55.9823 341.278 56.0867 341.093 56.4399C340.212 58.1564 342.159 61.0122 342.767 62.5783C343.839 65.3389 344.96 69.0115 346.821 71.3452C348.335 73.246 351.129 73.9738 353.429 74.2563C359.313 74.9779 365.249 73.5592 370.896 71.7598C376.544 69.9573 382.105 67.7525 387.961 66.819C389.033 66.647 390.351 66.6194 390.959 67.5222C391.579 68.4434 391.008 69.7024 390.258 70.5223C389.276 71.6032 388.014 72.3862 386.77 73.1539C383.082 75.4324 379.246 77.7631 374.947 78.322C373.565 78.5031 372.162 78.4939 370.78 78.669C366.889 79.1634 363.185 81.1071 359.267 80.8983C358.429 80.8523 354.747 79.6393 354.185 80.103C352.879 81.1808 365.292 91.6398 366.226 92.1495C367.942 93.0861 369.797 93.8599 371.747 93.9766C376.194 94.2376 380.023 91.1423 383.638 88.5352C386.659 86.355 389.853 84.4143 393.179 82.7316C393.87 82.3815 394.745 82.056 395.362 82.5197C395.829 82.8667 395.93 83.5514 395.752 84.1042C395.574 84.6569 395.172 85.1052 394.773 85.5259C391.564 88.8945 387.654 91.5937 383.367 93.4055C382.317 93.8476 376.703 95.4229 379.265 97.4772C379.652 97.7874 380.152 97.9194 380.634 98.033C384.289 98.8898 388.032 98.9942 391.705 99.682C393.025 99.9308 394.361 100.179 395.706 100.133C397.125 100.084 398.513 99.7035 399.867 99.2798C401.406 98.7946 402.932 98.2449 404.351 97.4772C410.327 94.2499 413.831 86.9876 412.639 80.3026C412.458 79.2862 412.178 78.279 412.175 77.2441C412.169 75.9237 412.062 74.0536 413.284 73.1662C413.385 73.0833 413.502 73.0157 413.619 72.9574Z" stroke="#222222" stroke-width="2.1411" stroke-miterlimit="10" stroke-linecap="round" stroke-linejoin="round"/>
<path d="M385.716 50.2186C382.427 48.0997 380.92 44.0955 378.156 41.3288C376.396 39.5692 374.151 38.3379 372.453 36.5169C369.689 33.5536 368.685 29.4051 367.752 25.4592C366.179 18.8079 364.294 11.5794 360.133 6.15956" stroke="#222222" stroke-width="2.1411" stroke-miterlimit="10" stroke-linecap="round" stroke-linejoin="round"/>
<path d="M338.44 18.8417C342.257 24.1694 347.724 28.3027 353.893 30.5228C356.755 31.5546 359.764 32.1841 362.55 33.4093C367.214 35.4606 370.992 39.0564 374.913 42.3114C379.516 46.1375 384.442 49.5768 389.62 52.583C395.292 55.8779 401.47 58.8228 405.429 64.0492C407.824 67.2089 410.035 71.5049 413.745 72.9082" stroke="#222222" stroke-width="1.4274" stroke-miterlimit="10" stroke-linecap="round" stroke-linejoin="round"/>
<path d="M408.14 68.0319C408.122 70.6697 408.103 73.3074 408.088 75.9452C408.066 79.0528 408.005 82.317 406.463 85.0131C404.489 88.4646 400.491 90.2426 396.597 91.0594C392.706 91.8762 388.407 91.6306 384.608 92.8036" stroke="#222222" stroke-width="1.4274" stroke-miterlimit="10" stroke-linecap="round" stroke-linejoin="round"/>
<path d="M398.366 57.7265C395.62 57.3089 392.786 57.791 390.218 58.7951C387.535 59.8453 385.222 61.6325 382.557 62.7195C379.716 63.8772 376.74 64.4944 373.786 65.259C370.614 66.0789 367.417 66.8343 364.171 67.3072C356.574 68.4157 348.577 68.0196 342.721 62.4554" stroke="#222222" stroke-width="1.4274" stroke-miterlimit="10" stroke-linecap="round" stroke-linejoin="round"/>
<path d="M389.251 59.1483C387.667 59.962 387.301 60.1923 386.696 61.0091C385.403 62.7564 384.064 64.5098 382.342 65.8363C380.137 67.5344 377.422 68.4434 374.701 69.0299C371.981 69.6164 369.201 69.9081 366.49 70.5315C365.436 70.7741 364.392 71.0658 363.333 71.2869C360.634 71.8488 357.864 71.9318 355.115 72.1436C353.107 72.3002 348.795 72.939 347.094 71.6738" stroke="#222222" stroke-width="1.4274" stroke-miterlimit="10" stroke-linecap="round" stroke-linejoin="round"/>
<path d="M401.096 59.9037C398.86 63.3367 399.056 67.9582 396.704 71.3115C396.022 72.2818 395.15 73.1048 394.229 73.854C392.973 74.8735 391.613 75.761 390.175 76.5041C389.438 76.8849 388.68 77.2288 387.971 77.6618C387.037 78.236 386.205 78.9638 385.357 79.6608C380.699 83.4747 375.315 86.4041 369.582 88.2466C368.599 88.5629 367.598 88.8485 366.566 88.8853C364.533 88.959 361.84 87.8136 360.004 86.9385" stroke="#222222" stroke-width="1.4274" stroke-miterlimit="10" stroke-linecap="round" stroke-linejoin="round"/>
<path d="M391.732 53.6854C393.117 51.238 393.237 48.2778 393.028 45.4712C392.816 42.6645 392.313 39.8579 392.577 37.0573C392.724 35.5097 393.105 33.9897 393.302 32.4482C393.894 27.8543 392.859 23.2206 391.723 18.7312C391.124 16.3636 390.489 13.9899 389.457 11.7759C388.821 10.4125 388.041 9.11975 387.264 7.83004C386.26 6.1657 385.124 4.20042 384.12 2.53608" stroke="#222222" stroke-width="1.4274" stroke-miterlimit="10" stroke-linecap="round" stroke-linejoin="round"/>
<path d="M400.306 13.1148C401.501 17.8376 400.171 23.0609 398.832 27.5995C397.355 32.614 395.316 37.4627 392.761 42.0227" stroke="#222222" stroke-width="1.4274" stroke-miterlimit="10" stroke-linecap="round" stroke-linejoin="round"/>
<path d="M374.314 41.8139C371.385 39.8179 367.291 39.517 363.747 39.6061C360.207 39.6982 356.666 40.254 353.134 39.9899C350.011 39.7596 346.974 38.8936 343.962 38.0338C342.942 37.7421 341.904 37.4443 341.007 36.8762C339.73 36.0686 338.563 34.3612 337.712 33.1145" stroke="#222222" stroke-width="1.4274" stroke-miterlimit="10" stroke-linecap="round" stroke-linejoin="round"/>
</g>
</svg>
