<svg width="88" height="97" viewBox="0 0 88 97" fill="none" xmlns="http://www.w3.org/2000/svg">
<path d="M78.4134 75.3942C77.9896 74.9059 77.618 74.4331 77.2741 73.9632C72.6278 70.1371 70.0268 63.8175 70.6502 57.8296C70.8744 55.6831 71.4793 53.5858 72.0628 51.556C72.462 50.1711 72.8735 48.7402 73.1591 47.3153C74.326 41.4687 73.4508 35.3425 70.6932 30.0578C70.208 29.1273 69.6552 28.2092 69.1209 27.3217C68.5405 26.3545 67.9386 25.3534 67.4165 24.3278C67.2814 24.0637 67.1524 23.815 67.0296 23.5816C66.053 21.7146 65.4634 20.5876 66.1329 18.1249C66.2342 17.7502 66.3448 17.3756 66.4645 17.0071C64.3948 19.6817 62.3956 22.556 60.507 25.5929C59.7731 26.7844 59.1404 27.8438 58.5785 28.8295L58.5324 28.8878C56.3152 32.7447 54.2455 36.8779 52.3446 41.1923L52.3599 41.2076L52.3661 41.3612L52.0743 41.8126C51.8256 42.3868 51.5676 42.9549 51.325 43.5353L51.4264 43.5567C51.6137 43.6182 51.7673 43.7256 51.887 43.8853L52.0191 44.1095C52.8421 45.9489 50.2902 52.0044 47.1241 59.1438C46.0493 61.5666 45.1218 63.6609 44.8055 64.6957C44.0347 67.2383 43.8597 69.9559 43.6877 72.5845C43.5618 74.5344 43.4328 76.5488 43.0612 78.5018C41.5841 86.283 36.1518 93.0694 28.8799 96.2107C28.7632 96.2599 28.6311 96.2322 28.5543 96.1186C28.4806 96.0142 28.493 95.873 28.582 95.7808C31.2506 93.0202 32.6479 88.6598 32.5097 83.5102C32.436 80.7833 31.9907 78.035 31.5577 75.3788C31.2813 73.6869 30.9988 71.9365 30.8115 70.2016C30.2127 64.6497 30.8667 60.3199 32.8167 56.9697C34.9909 53.2296 38.7712 50.7607 42.1062 48.5836C42.5975 48.2611 43.2271 47.7575 43.9549 47.1741C45.9694 45.5589 48.6441 43.4186 50.7016 43.4523L50.9504 43.0685C53.011 38.1891 55.2957 33.5339 57.7555 29.201C55.7809 29.8428 53.315 29.9718 52.191 30.0301L52.0283 30.0393C51.1715 30.0885 50.3086 30.1253 49.4456 30.1591C45.9479 30.3004 42.3304 30.4447 38.9985 31.7313C35.946 32.9074 33.302 34.9863 30.747 36.9946C29.2729 38.1522 27.7467 39.3529 26.1437 40.3785C18.6384 45.1781 8.7686 46.2897 0.391202 43.2804C0.277579 43.2405 0.203894 43.1268 0.216177 43.004C0.228461 42.8812 0.320582 42.786 0.440347 42.7676C5.32 42.0306 10.043 39.8135 13.7373 36.5247C16.3199 34.2063 18.4358 31.3567 20.4779 28.5992C21.5405 27.1651 22.6429 25.682 23.7975 24.2848C28.0569 19.1444 32.5189 16.3162 37.0577 15.8863C41.5903 15.4472 45.8251 17.3879 49.4395 19.2426C50.1612 19.6111 50.8736 19.9919 51.5891 20.3757C52.7683 21.0083 53.9875 21.6624 55.2159 22.2335C55.5967 22.4116 56.1156 22.5744 56.6653 22.7463C57.9827 23.1609 59.4475 23.6246 60.1508 24.555C60.2245 24.6533 60.2767 24.7669 60.335 24.8774C62.5952 21.2724 65.0089 17.8854 67.5148 14.8146L67.5178 14.8115L67.6407 14.6672C70.8498 10.7213 74.3107 7.20225 77.9313 4.13458C74.197 5.22469 69.1669 3.99947 65.5187 2.90321C64.5882 2.62685 63.6639 2.31977 62.7334 2.01577C59.3001 0.888809 55.7471 -0.278072 52.1542 -0.0262718C49.4487 0.167183 46.8385 1.15596 44.3142 2.11096C42.9169 2.63913 41.4736 3.18572 40.018 3.60027C32.9887 5.58397 25.1795 4.26355 19.6304 0.1549C19.529 0.0781326 19.4952 -0.0539093 19.5474 -0.170597C19.5996 -0.284214 19.7225 -0.345631 19.8453 -0.321064C24.685 0.722988 29.9516 -0.400902 33.9284 -3.32732C35.3932 -4.40515 36.7137 -5.73478 37.9912 -7.01835C39.5236 -8.55986 41.1113 -10.1566 42.9784 -11.3512C46.7893 -13.7832 51.6198 -14.4004 55.9007 -13.0002C58.4649 -12.1618 60.7619 -10.651 62.9822 -9.18937C65.2945 -7.66935 67.6837 -6.09406 70.3462 -5.31716C72.6248 -4.65388 79.0061 -1.41732 80.6889 0.812038C80.8302 0.999352 80.9407 1.18053 81.0114 1.35249L81.0605 1.59508C84.7579 -1.19008 88.618 -3.52385 92.5395 -5.33866L92.7575 -5.44613L92.8466 -5.48912L92.9786 -5.55054L93.04 -5.58124H93.0431L93.0646 -5.59046C96.8019 -7.28858 100.717 -8.566 104.712 -9.44731L104.565 -9.47187C104.178 -9.53636 103.767 -9.61006 103.309 -9.66226C99.9311 -10.0492 97.0076 -11.2191 94.1025 -13.3441C93.0554 -14.1087 92.0297 -14.9409 91.0409 -15.7485C88.8759 -17.5111 86.6372 -19.332 84.0792 -20.4958C81.4597 -21.6996 78.5331 -22.2001 75.7049 -22.6853C72.9656 -23.1551 70.1312 -23.6372 67.5394 -24.758C62.3956 -26.9843 58.6246 -31.5075 55.4953 -35.5732C55.4093 -35.6929 55.4247 -35.8373 55.523 -35.9294C55.6243 -36.0246 55.7778 -36.0246 55.8822 -35.9355C59.3155 -32.9139 63.9034 -31.311 68.4637 -31.5321C70.1404 -31.615 71.8417 -31.9405 73.4877 -32.2537C76.0488 -32.745 78.6959 -33.2486 81.3246 -32.8617C84.0577 -32.4533 86.8307 -31.0684 89.573 -28.7438C91.2036 -27.3559 92.6961 -25.7714 94.1425 -24.2391C94.7812 -23.5604 95.42 -22.8849 96.071 -22.2216C98.4602 -19.8018 101.571 -17.4374 104.577 -15.1527C106.718 -13.5252 108.738 -11.9899 110.517 -10.4361C114.211 -10.8691 118.037 -10.9581 121.894 -10.7002C122.382 -10.6725 122.865 -10.6357 123.353 -10.5835C127.173 -10.2488 131.064 -9.58242 134.915 -8.60285L135.062 -8.50459L135.108 -8.27735C135.071 -8.1361 134.927 -8.04705 134.783 -8.0839C131.082 -9.02661 127.345 -9.67147 123.663 -10.0123C123.74 -9.42581 123.605 -8.73182 123.509 -8.27428L123.479 -8.12996C123.301 -7.22409 123.003 -6.34586 122.717 -5.49219C122.404 -4.56176 122.081 -3.59755 121.919 -2.62105C121.48 0.0197868 122.183 2.58385 122.932 5.30146C123.543 7.52775 124.176 9.82773 124.108 12.1523C124.019 15.4656 122.447 18.5763 121.271 20.6245C120.758 21.518 120.205 22.4086 119.671 23.2714C118.667 24.8866 117.632 26.5541 116.827 28.3013C115.835 30.4324 114.813 33.6321 115.565 36.7581C115.596 36.8902 115.525 37.0222 115.402 37.0683C115.276 37.1174 115.132 37.0621 115.074 36.9454C112.832 32.7999 111.926 27.9359 112.522 23.2499C112.743 21.4996 113.173 19.7585 113.59 18.0757C114.128 15.8986 114.684 13.6447 114.782 11.3815C114.853 9.75097 114.69 8.08355 114.53 6.46835C114.334 4.45087 114.128 2.36276 114.374 0.308437C114.84 -3.62825 117.107 -7.38991 120.435 -9.75438C120.5 -9.80044 120.58 -9.85879 120.672 -9.92941C120.779 -10.0093 120.915 -10.1075 121.05 -10.2027C117.46 -10.3992 113.904 -10.304 110.47 -9.89563H110.424C109.786 -9.82194 109.196 -9.73903 108.625 -9.64076L108.57 -9.63769L108.379 -9.61927L108.269 -9.59777L108.216 -9.58549C107.599 -9.37361 107.013 -9.27842 106.377 -9.27227C102.388 -8.50766 98.4847 -7.29779 94.7444 -5.71635C95.0576 -5.65494 95.3739 -5.55975 95.6872 -5.397C96.4825 -4.98859 97.2103 -4.27925 97.8337 -3.45322C98.8379 -2.12666 99.5687 -0.499168 99.8697 0.655434C100.416 2.74968 100.469 4.94526 100.515 7.06407C100.536 8.04057 100.561 9.05084 100.631 10.0335C100.951 14.4185 102.265 18.7267 103.536 22.8937C103.831 23.861 104.126 24.8252 104.408 25.7925C105.846 30.6934 107.175 36.4511 106.174 41.9661C105.167 47.5057 101.703 53.0085 96.4211 57.458C96.3259 57.5378 96.1938 57.5409 96.0925 57.4703C95.9942 57.3966 95.9574 57.2676 96.0004 57.154C97.9259 52.2869 98.1439 46.8486 96.6115 41.8402C96.0065 39.8688 95.1252 37.9404 94.2715 36.0734C93.0431 33.3895 91.7718 30.6136 91.3019 27.6411C90.8536 24.8129 91.1514 21.9203 91.434 19.1229C91.6858 16.6601 91.9468 14.1145 91.6919 11.6395C91.5445 10.1931 91.2159 8.74069 90.8996 7.33736C90.5772 5.91254 90.2456 4.44165 90.0951 2.95849C89.8494 0.551025 90.0951 -2.34161 91.305 -4.13186C87.7551 -2.36311 84.2726 -0.204376 80.9315 2.35355C80.5446 2.64834 80.0348 3.0414 79.5527 3.45595L79.5158 3.48359C75.7264 6.54511 72.1211 10.1532 68.7585 14.1851C69.0963 14.2158 69.4402 14.3878 69.7872 14.7133C70.5457 15.4226 71.2367 16.2026 71.9062 16.958C72.7199 17.8761 73.5645 18.8281 74.5256 19.648C75.3609 20.3604 76.2607 21.0636 77.1267 21.7453C79.3869 23.5202 81.7054 25.3411 83.4435 27.6411C84.027 28.4149 84.546 29.244 84.9759 30.1407C86.8706 34.1112 86.4407 38.447 85.7436 41.3888C84.893 44.9754 83.2715 48.3532 81.6992 51.6205L81.5488 51.9337C79.7676 55.6401 78.2261 58.9995 77.3724 62.5708C76.3897 66.6917 76.5278 70.5547 77.7746 73.736C77.8207 73.8496 77.7808 73.9786 77.6856 74.0492L77.6733 74.0523C77.9681 74.4361 78.2783 74.8261 78.6253 75.2253L78.613 75.4126L78.4134 75.3942Z" fill="#202020"/>
</svg>
