<svg width="20" height="16" viewBox="0 0 20 16" fill="none" xmlns="http://www.w3.org/2000/svg">
<path d="M15.9817 6.867C17.1994 6.98522 18.1735 7.48769 18.9041 8.37439C19.6347 9.26109 20 10.3547 20 11.6552C20 12.8966 19.5738 13.931 18.7215 14.7586C17.8691 15.5862 16.7123 16 15.2511 16C13.8508 16 12.7245 15.5862 11.8721 14.7586C11.0198 13.8719 10.5936 12.5419 10.5936 10.7685C10.5936 8.93596 11.3851 6.89655 12.968 4.65024C14.551 2.34483 16.1948 0.807882 17.8995 0.0394081C18.1431 -0.078817 18.5084 0.0689661 18.9954 0.482757C19.4825 0.896552 19.726 1.25123 19.726 1.5468C17.9604 2.72906 16.7123 4.50246 15.9817 6.867ZM5.38813 6.867C6.5449 6.98522 7.48858 7.48769 8.21918 8.37439C8.94977 9.26109 9.31507 10.3547 9.31507 11.6552C9.31507 12.8966 8.88889 13.931 8.03653 14.7586C7.24505 15.5862 6.11872 16 4.65753 16C3.25723 16 2.1309 15.5862 1.27854 14.7586C0.42618 13.8719 0 12.5419 0 10.7685C0 8.93596 0.761035 6.89655 2.28311 4.65024C3.86606 2.34483 5.54033 0.807882 7.30594 0.0394081C7.54947 -0.078817 7.91476 0.0689661 8.40183 0.482757C8.88889 0.896552 9.13242 1.25123 9.13242 1.5468C7.36682 2.72906 6.11872 4.50246 5.38813 6.867Z" fill="#909090"/>
</svg>
