<svg width="20" height="16" viewBox="0 0 20 16" fill="none" xmlns="http://www.w3.org/2000/svg">
<path d="M4.01826 9.133C2.80061 9.01478 1.82648 8.51232 1.09589 7.62561C0.365295 6.73892 -9.05235e-07 5.64532 -1.01893e-06 4.34483C-1.12745e-06 3.10345 0.426179 2.06897 1.27854 1.24138C2.1309 0.413795 3.28767 1.46104e-06 4.74886 1.3333e-06C6.14916 1.21088e-06 7.27549 0.413795 8.12785 1.24138C8.98021 2.12808 9.40639 3.45813 9.40639 5.23153C9.40639 7.06404 8.61492 9.10345 7.03196 11.3498C5.44901 13.6552 3.80517 15.1921 2.10046 15.9606C1.85692 16.0788 1.49163 15.931 1.00457 15.5172C0.517504 15.1034 0.273971 14.7488 0.273971 14.4532C2.03957 13.2709 3.28767 11.4975 4.01826 9.133ZM14.6119 9.133C13.4551 9.01478 12.5114 8.51232 11.7808 7.62561C11.0502 6.73891 10.6849 5.64532 10.6849 4.34483C10.6849 3.10345 11.1111 2.06897 11.9635 1.24138C12.7549 0.413794 13.8813 5.34916e-07 15.3425 4.07175e-07C16.7428 2.84756e-07 17.8691 0.413794 18.7215 1.24138C19.5738 2.12808 20 3.45813 20 5.23153C20 7.06404 19.239 9.10345 17.7169 11.3498C16.1339 13.6552 14.4597 15.1921 12.6941 15.9606C12.4505 16.0788 12.0852 15.931 11.5982 15.5172C11.1111 15.1034 10.8676 14.7488 10.8676 14.4532C12.6332 13.2709 13.8813 11.4975 14.6119 9.133Z" fill="#909090"/>
</svg>
