<svg width="19" height="19" viewBox="0 0 19 19" fill="none" xmlns="http://www.w3.org/2000/svg">
<path d="M7.21166 0.9H7.21154L2.63462 0.9L2.6345 0.9C2.17465 0.900551 1.73379 1.08347 1.40863 1.40863C1.08347 1.73379 0.900551 2.17465 0.9 2.6345V2.63462L0.9 7.21154L0.9 7.21166C0.900551 7.67151 1.08347 8.11236 1.40863 8.43752C1.73379 8.76268 2.17465 8.9456 2.6345 8.94615H2.63462H7.21154H7.21166C7.67151 8.9456 8.11236 8.76268 8.43752 8.43752C8.76268 8.11236 8.9456 7.67151 8.94615 7.21166V7.21154V2.63462V2.6345C8.9456 2.17465 8.76268 1.73379 8.43752 1.40863C8.11236 1.08347 7.67151 0.900551 7.21166 0.9ZM16.3655 0.9H16.3654L11.7885 0.9L11.7883 0.9C11.3285 0.900551 10.8876 1.08347 10.5625 1.40863C10.2373 1.73379 10.0544 2.17465 10.0538 2.6345V2.63462V7.21154V7.21166C10.0544 7.67151 10.2373 8.11236 10.5625 8.43752C10.8876 8.76268 11.3285 8.9456 11.7883 8.94615H11.7885H16.3654H16.3655C16.8254 8.9456 17.2662 8.76268 17.5914 8.43752C17.9165 8.11236 18.0994 7.67151 18.1 7.21166V7.21154V2.63462V2.6345C18.0994 2.17465 17.9165 1.73379 17.5914 1.40863C17.2662 1.08347 16.8254 0.900551 16.3655 0.9ZM7.21166 10.0538H7.21154H2.63462H2.6345C2.17465 10.0544 1.73379 10.2373 1.40863 10.5625C1.08347 10.8876 0.900551 11.3285 0.9 11.7883V11.7885L0.9 16.3654L0.9 16.3655C0.900551 16.8254 1.08347 17.2662 1.40863 17.5914C1.73379 17.9165 2.17465 18.0994 2.6345 18.1H2.63462H7.21154H7.21166C7.67151 18.0994 8.11236 17.9165 8.43752 17.5914C8.76268 17.2662 8.9456 16.8254 8.94615 16.3655V16.3654V11.7885V11.7883C8.9456 11.3285 8.76268 10.8876 8.43752 10.5625C8.11236 10.2373 7.67151 10.0544 7.21166 10.0538ZM14.077 10.0538H14.0769C13.2812 10.0538 12.5034 10.2898 11.8418 10.7319C11.1802 11.1739 10.6646 11.8022 10.3601 12.5374C10.0556 13.2725 9.97592 14.0814 10.1311 14.8618C10.2864 15.6422 10.6695 16.359 11.2322 16.9217C11.7948 17.4843 12.5117 17.8675 13.2921 18.0227C14.0725 18.1779 14.8814 18.0983 15.6165 17.7938C16.3516 17.4893 16.9799 16.9736 17.422 16.312C17.864 15.6504 18.1 14.8726 18.1 14.0769V14.0768C18.0988 13.0102 17.6746 11.9876 16.9204 11.2334C16.1662 10.4792 15.1436 10.055 14.077 10.0538ZM8.09231 7.21154C8.09231 7.44513 7.99951 7.66916 7.83434 7.83434C7.66916 7.99951 7.44513 8.09231 7.21154 8.09231H2.63462C2.40102 8.09231 2.17699 7.99951 2.01182 7.83434C1.84664 7.66916 1.75385 7.44513 1.75385 7.21154V2.63462C1.75385 2.40102 1.84664 2.17699 2.01182 2.01182C2.17699 1.84664 2.40102 1.75385 2.63462 1.75385H7.21154C7.44513 1.75385 7.66916 1.84664 7.83434 2.01182C7.99951 2.17699 8.09231 2.40102 8.09231 2.63462V7.21154ZM17.2462 7.21154C17.2462 7.44513 17.1534 7.66916 16.9882 7.83434C16.823 7.99951 16.599 8.09231 16.3654 8.09231H11.7885C11.5549 8.09231 11.3308 7.99951 11.1657 7.83434C11.0005 7.66916 10.9077 7.44513 10.9077 7.21154V2.63462C10.9077 2.40102 11.0005 2.17699 11.1657 2.01182C11.3308 1.84664 11.5549 1.75385 11.7885 1.75385H16.3654C16.599 1.75385 16.823 1.84664 16.9882 2.01182C17.1534 2.17699 17.2462 2.40102 17.2462 2.63462V7.21154ZM8.09231 16.3654C8.09231 16.599 7.99951 16.823 7.83434 16.9882C7.66916 17.1534 7.44513 17.2462 7.21154 17.2462H2.63462C2.40102 17.2462 2.17699 17.1534 2.01182 16.9882C1.84664 16.823 1.75385 16.599 1.75385 16.3654V11.7885C1.75385 11.5549 1.84664 11.3308 2.01182 11.1657C2.17699 11.0005 2.40102 10.9077 2.63462 10.9077H7.21154C7.44513 10.9077 7.66916 11.0005 7.83434 11.1657C7.99951 11.3308 8.09231 11.5549 8.09231 11.7885V16.3654ZM14.0768 17.2462C13.45 17.2461 12.8373 17.0603 12.3162 16.712C11.795 16.3638 11.3888 15.8688 11.1489 15.2897C10.9091 14.7106 10.8463 14.0734 10.9686 13.4586C11.0909 12.8439 11.3927 12.2792 11.8359 11.8359C12.2792 11.3927 12.8439 11.0909 13.4586 10.9686C14.0734 10.8463 14.7106 10.9091 15.2897 11.1489C15.8688 11.3888 16.3638 11.795 16.712 12.3162C17.0603 12.8373 17.2461 13.45 17.2462 14.0768C17.2452 14.9171 16.911 15.7227 16.3169 16.3169C15.7227 16.911 14.9171 17.2452 14.0768 17.2462Z" fill="white" stroke="white" stroke-width="0.2"/>
</svg>
