<svg width="249" height="291" viewBox="0 0 249 291" fill="none" xmlns="http://www.w3.org/2000/svg">
<g opacity="0.05">
<path d="M71.6903 227.002C72.3197 219.779 73.1138 212.568 75.2959 205.686C77.931 197.369 81.1013 189.223 84.0481 181C84.0834 180.906 84.1422 180.818 84.1892 180.729C84.7833 179.571 85.2127 178.03 86.889 178.3C88.5535 178.565 88.4712 180.153 88.7124 181.435C91.5003 196.222 91.6886 211.15 91.1945 226.12C90.8239 237.307 90.0122 248.465 87.9948 259.487C86.5655 267.281 84.9245 275.039 83.3775 282.809C83.1776 283.803 82.8835 284.797 82.8011 285.802C82.6776 287.349 83.4364 288.155 85.5303 288.561C83.054 289.767 84.6892 291.937 83.5422 293.761C82.9717 292.796 82.4012 291.831 81.7659 290.755C76.5252 291.678 71.2198 292.478 65.985 293.566C55.6447 295.725 45.1868 295.549 34.7172 295.513C19.6479 295.466 5.01394 292.925 -9.25538 288.132C-10.5964 287.679 -12.3433 287.491 -12.4433 285.779C-12.5551 283.803 -10.6553 283.561 -9.24362 283.126C0.737847 280.044 10.8252 277.444 21.9477 276.209C20.7243 275.697 20.142 275.392 19.5185 275.203C11.8192 272.868 4.30812 270.045 -2.62068 265.934C-5.03811 264.498 -7.34967 262.728 -9.33184 260.74C-11.8551 258.211 -10.8964 255.782 -7.3379 255.252C-5.63805 254.999 -3.89115 255.04 -2.16778 255.023C14.6601 254.87 31.3351 256.117 47.6396 260.587C57.2387 263.222 66.1261 267.339 73.8078 273.809C73.9372 273.921 74.1548 273.927 74.9018 274.168C71.7315 267.428 68.7436 261.052 65.8262 254.846C63.6381 254.846 61.8206 254.905 60.009 254.835C51.7921 254.535 43.5164 254.711 35.3701 253.764C22.8535 252.311 11.1252 247.971 -0.0267887 242.13C-1.09728 241.571 -2.14425 240.871 -2.99711 240.024C-4.46169 238.565 -4.04408 236.895 -2.06778 236.277C-0.914946 235.919 0.320236 235.73 1.53189 235.677C13.1367 235.201 24.7004 235.378 36.0994 237.983C43.8517 239.754 51.2686 242.506 58.4327 245.941C59.2326 246.324 60.0561 246.653 61.3736 247.229C60.9384 246.177 60.7678 245.535 60.4384 244.988C57.8916 240.83 55.2859 236.701 52.7626 232.525C51.9745 231.219 51.0334 230.949 49.51 231.007C39.5697 231.36 29.5765 232.154 19.742 230.037C9.15474 227.761 -0.832602 223.784 -10.3318 218.591C-11.7493 217.814 -13.0668 216.826 -14.3079 215.791C-15.5431 214.756 -17.0076 213.603 -16.2312 211.709C-15.5195 209.968 -13.755 210.156 -12.2551 210.186C-10.1259 210.227 -7.99078 210.356 -5.86744 210.55C2.32006 211.309 10.5429 211.844 18.6833 212.968C27.5002 214.185 35.8641 217.026 43.4811 221.791C43.734 221.949 44.034 222.032 44.7869 222.355C44.3516 221.461 44.1928 220.844 43.8223 220.402C38.6462 214.262 33.4291 208.151 28.2589 202.01C27.4002 200.992 26.4767 200.651 25.1121 200.669C18.3128 200.775 11.5016 200.886 4.70808 200.704C-3.27356 200.487 -11.0199 198.928 -18.384 195.722C-19.3074 195.322 -20.3309 194.916 -20.9896 194.211C-21.5249 193.64 -21.8778 192.57 -21.7484 191.817C-21.6484 191.24 -20.7014 190.758 -20.0603 190.352C-19.7486 190.158 -19.2721 190.187 -18.8663 190.182C-10.5435 190.07 -2.19719 189.07 6.09619 190.376C10.1899 191.023 14.2014 192.181 18.2481 193.111C18.7186 193.217 19.1833 193.37 20.2479 193.664C19.4832 192.705 19.1303 192.158 18.6774 191.711C15.6424 188.705 12.625 185.682 9.51942 182.753C8.83124 182.106 7.84309 181.418 6.97258 181.388C-0.720848 181.147 -8.04961 178.971 -15.4489 177.218C-20.0838 176.124 -24.6422 174.689 -29.2242 173.36C-30.0888 173.107 -31.0593 172.818 -31.6828 172.23C-32.2651 171.683 -32.8356 170.63 -32.6886 169.96C-32.5474 169.313 -31.5181 168.478 -30.8064 168.407C-27.6773 168.078 -24.5246 167.978 -21.3778 167.813C-16.3665 167.56 -11.4375 168.119 -6.60856 169.483C-6.0439 169.642 -5.45572 169.725 -4.31464 169.954C-5.53806 168.713 -6.33799 167.86 -7.18498 167.048C-9.17304 165.154 -11.1846 163.284 -13.1786 161.402C-17.3194 157.496 -21.5484 153.738 -26.6479 151.044C-34.1238 147.097 -40.182 141.38 -45.7639 135.128C-46.1521 134.692 -46.4285 134.163 -46.8579 133.522C-44.9404 132.416 -43.0171 132.563 -41.1643 132.798C-29.8183 134.251 -20.5073 139.345 -13.9314 148.832C-10.4023 153.926 -7.10851 159.196 -4.05584 164.59C-2.35011 167.607 -0.0267929 169.842 2.87295 172.36C2.77296 171.56 2.78472 171.201 2.68473 170.883C-1.23845 158.49 -2.23248 145.797 -1.21492 132.898C-1.10317 131.481 -1.0914 130.052 -0.909063 128.64C-0.856127 128.228 -0.391466 127.587 -0.0679658 127.558C0.437871 127.511 1.22016 127.746 1.46719 128.128C2.00832 128.963 2.36711 129.946 2.64944 130.91C5.71976 141.362 7.92544 152.008 9.30767 162.808C9.9782 168.036 10.1429 173.33 10.5781 178.588C10.6252 179.147 10.8075 179.83 11.1781 180.206C15.3189 184.364 19.5126 188.47 24.0005 192.899C23.877 192.081 23.8887 191.67 23.7534 191.323C20.1596 181.888 18.6598 172.036 18.6598 162.031C18.6598 153.402 19.395 144.768 19.8361 136.145C19.8773 135.339 20.0008 134.487 20.3361 133.769C20.5949 133.216 21.236 132.516 21.736 132.493C22.2595 132.463 23.0359 133.045 23.3241 133.569C23.8534 134.534 24.2181 135.628 24.4593 136.71C28.8001 156.002 32.0057 175.43 31.3175 195.311C31.2998 195.816 31.4292 196.387 31.2469 196.828C30.0352 199.798 31.6645 201.757 33.5055 203.745C35.7053 206.115 37.7757 208.609 40.3167 210.915C40.2167 210.321 40.1814 209.709 40.0167 209.139C37.4758 200.187 36.07 191.076 36.1523 181.753C36.1994 176.665 36.1641 171.577 36.2288 166.49C36.2523 164.766 36.4523 163.037 36.6405 161.319C36.7641 160.19 36.9817 158.961 38.3286 158.714C39.8579 158.431 40.4578 159.667 40.9696 160.778C41.5225 161.972 42.0636 163.202 42.3988 164.466C43.7223 169.472 45.0986 174.471 46.2103 179.524C48.3807 189.358 50.2217 199.251 50.6393 209.35C50.8157 213.721 50.8863 218.097 50.8569 222.467C50.8451 224.067 51.1334 225.39 52.098 226.702C54.4272 229.872 56.6211 233.148 59.2268 236.901C58.5386 232.072 57.9445 227.902 57.3446 223.726C55.8094 213.062 56.1447 202.422 57.7563 191.805C58.4445 187.282 59.1679 182.765 59.9385 178.259C60.2384 176.5 60.2502 174.177 62.6029 174.048C64.8615 173.924 65.3556 176.189 65.9438 177.859C68.0436 183.841 69.1494 190.064 69.6846 196.346C70.461 205.463 70.9081 214.603 71.5021 223.737C71.5492 224.849 71.6198 225.925 71.6903 227.002ZM-7.4026 258.846C-5.84392 261.058 -3.96762 262.387 -2.02073 263.599C4.65514 267.763 11.8604 270.768 19.4244 272.833C26.2767 274.703 33.2291 276.074 40.352 276.615C48.3454 277.221 56.3094 278.168 64.2969 278.803C67.379 279.05 70.4963 278.844 73.5961 278.844C72.4609 277.203 71.1845 275.939 69.7082 274.98C63.0323 270.663 55.9447 267.157 48.316 264.869C30.8234 259.611 12.8368 258.387 -5.29691 258.511C-5.86157 258.511 -6.42622 258.681 -7.4026 258.846ZM80.9072 279.556C81.1719 278.297 81.413 277.033 81.7012 275.774C85.4185 259.699 87.8301 243.442 88.8182 226.961C89.6123 213.721 89.4358 200.539 87.389 187.417C87.2478 186.5 86.9596 185.611 86.7361 184.706C85.295 187.605 84.3186 190.476 83.3305 193.34C79.3073 205.021 76.584 216.973 75.8547 229.343C74.8548 246.318 77.0605 262.999 80.9072 279.556ZM78.1074 289.167C78.1251 288.955 78.1486 288.743 78.1662 288.532C63.4087 281.55 47.4807 280.032 31.4939 279.091C18.4892 278.327 6.10796 281.703 -6.21447 285.555C-5.32044 286.167 -4.42052 286.544 -3.50295 286.844C7.27256 290.408 18.3657 292.149 29.6706 292.655C38.805 293.061 47.9513 293.461 57.0505 292.325C64.091 291.449 71.0904 290.231 78.1074 289.167ZM63.1793 180.335C62.697 180.906 62.5029 181.029 62.4912 181.171C61.6971 189.464 60.5796 197.74 60.2325 206.051C59.7796 216.75 61.3148 227.349 63.397 237.83C64.1851 241.795 65.3615 245.688 66.4438 249.594C67.0555 251.8 68.52 252.994 70.9081 252.847C71.0022 252.841 71.1139 253.111 71.3257 253.411C70.5787 253.835 69.8552 254.252 69.0671 254.699C70.7846 258.211 72.4197 261.558 74.3019 265.404C73.2902 256.287 72.355 247.841 71.4139 239.389C70.4963 249.306 70.4963 249.306 68.3201 251.57C68.1554 250.094 67.9142 248.935 67.9083 247.782C67.8848 238.33 68.0377 228.872 67.873 219.42C67.6672 207.721 66.5849 196.087 64.244 184.6C63.9734 183.27 63.5911 181.965 63.1793 180.335ZM-11.2905 213.262C-11.4022 213.579 -11.514 213.897 -11.6199 214.215C-2.903 219.573 6.57262 223.232 16.3835 226.078C22.8359 227.955 43.0047 229.149 46.9455 227.908C45.9338 227.184 45.0868 226.502 44.1693 225.931C39.4815 223.043 34.5407 220.708 29.2647 219.108C23.13 217.25 16.907 215.862 10.5076 215.279C3.23762 214.626 -4.02644 213.938 -11.2905 213.262ZM1.60248 239.512C3.22586 240.348 4.25518 240.93 5.33155 241.412C16.9717 246.647 29.0118 250.411 41.8401 251.106C48.6218 251.47 55.4153 251.635 62.203 251.882C62.7147 251.9 63.2323 251.829 63.744 251.8C63.7558 251.588 63.7734 251.37 63.7852 251.158C44.3575 241.948 23.9123 237.889 1.60248 239.512ZM39.4991 165.843C39.4991 172.03 39.3697 178.224 39.5285 184.406C39.8108 195.752 41.893 206.774 45.975 217.391C46.3455 218.356 46.8514 219.267 47.2925 220.202C47.4984 220.12 47.7043 220.038 47.9101 219.961C48.1219 201.445 44.4398 183.512 39.4991 165.843ZM22.4359 139.557C22.23 139.551 22.0183 139.539 21.8124 139.533C21.7419 139.804 21.6066 140.074 21.6007 140.351C21.4831 147.662 21.1301 154.985 21.3301 162.29C21.6066 172.595 23.2711 182.706 26.9826 192.393C27.2061 192.981 27.5825 193.505 27.8884 194.058C28.3354 175.565 25.9356 157.496 22.4359 139.557ZM-14.1138 155.396C-20.3426 144.462 -29.7359 138.022 -41.8995 135.545C-34.2355 144.409 -23.8717 149.456 -14.1138 155.396ZM-10.5906 194.246C0.361411 198.404 11.9368 197.74 23.3123 198.681C12.425 193.981 1.09076 192.787 -10.5906 194.246ZM4.5081 178.271C2.57886 176.218 1.32015 174.183 -0.938474 173.677C-5.67335 172.624 -10.4494 171.748 -15.2431 171.019C-17.0312 170.748 -18.9545 170.819 -21.272 171.818C-12.5904 173.995 -4.45581 176.03 4.5081 178.271ZM6.69614 174.942C5.13157 163.055 3.59641 151.162 1.06723 139.433C0.831954 151.609 1.91421 163.572 6.69614 174.942ZM79.8367 286.961C79.2426 285.173 78.925 283.908 78.3956 282.738C78.1368 282.162 77.5075 281.368 77.0252 281.35C74.2078 281.244 71.3845 281.332 68.5671 281.362C68.5789 281.497 68.5906 281.632 68.6024 281.767C72.1491 283.414 75.7018 285.055 79.8367 286.961Z" fill="#948976"/>
<path d="M204.526 104.736C204.526 104.736 198.897 121.3 197.65 126.67C196.403 132.04 196.926 150.468 196.926 150.468C196.926 150.468 193.891 184.77 187.18 192.193C180.469 199.616 169.452 221.238 169.452 221.238C169.452 221.238 166.258 241.801 166.476 245.183C166.694 248.559 168.694 262.005 168.694 262.005L218.971 287.408L248.91 307.342C248.91 307.342 184.81 312.994 178.522 314.906C172.234 316.817 163.723 316.812 160.371 319.847C157.018 322.882 138.961 326.887 133.185 324.999C127.409 323.111 106.87 320.294 105.717 319.988C104.564 319.688 26.1475 313.818 26.1475 313.818C26.1475 313.818 52.3275 298.931 55.1625 296.108C57.9976 293.284 83.8011 280.574 86.348 271.092C88.8948 261.617 81.2778 204.31 81.2778 204.31C81.2778 204.31 69.6436 183.747 66.8379 179.23C64.0323 174.712 55.5978 180.336 49.5689 168.66C43.5341 156.985 37.5876 140.78 39.3051 132.375C41.0226 123.97 47.5632 120.153 47.5632 120.153C47.5632 120.153 41.3638 117.535 41.4696 113.383C41.5755 109.23 41.8284 88.7143 45.8457 69.6748C49.8571 50.6353 54.2508 31.1253 68.9436 19.2381C83.6306 7.35681 104.67 0.339789 127.268 0.0104064C149.866 -0.318976 166.947 7.25094 173.617 11.3388C180.293 15.4326 188.968 29.7195 191.603 33.7721C194.238 37.8247 203.085 53.1645 206.249 61.252C209.402 69.3572 206.996 96.2842 204.526 104.736Z" fill="#F9EFE0"/>
<path d="M81.6305 301.013C83.8303 292.478 84.8831 283.75 86.2654 274.462C78.7719 281.403 70.8373 286.808 62.7969 292.061C54.8976 297.219 47.1336 302.648 38.0109 306.024C37.9344 304.86 38.5814 304.842 38.9284 304.63C53.9977 295.231 68.6846 285.303 82.5187 274.127C86.0713 271.257 87.1182 268.075 86.9535 263.752C86.5712 253.617 84.7361 243.653 83.795 233.59C82.9421 224.402 81.0011 215.344 80.6482 206.104C80.6129 205.239 80.3777 204.492 79.7365 203.898C71.1314 195.981 67.0083 185.653 64.0203 174.718C62.7087 169.919 60.8088 165.296 59.7266 160.425C59.6031 159.873 58.9502 159.143 59.7619 158.826C60.5736 158.508 60.8029 159.408 61.1088 159.99C64.3144 166.196 66.8142 172.695 68.6846 179.394C71.9725 191.17 79.6836 199.634 88.7887 207.151C99.8112 216.256 111.234 224.814 123.291 232.501C123.797 232.825 124.421 233.025 124.574 234.16C116.78 231.001 110.075 226.396 103.323 221.938C96.5586 217.473 89.8298 212.909 83.7538 207.568C83.5833 208.539 84.0891 209.862 84.2067 211.203C84.3361 212.633 84.5302 214.056 84.742 215.473C86.9771 230.778 88.4593 246.147 88.8828 261.611C89.2239 274.186 86.63 286.332 83.1421 298.325C82.8657 299.29 82.5657 300.272 81.6305 301.013Z" fill="#948976"/>
<path d="M190.721 67.1986C193.397 70.9395 194.838 74.7979 196.738 78.4153C198.602 81.9679 201.537 84.303 204.996 86.1028C205.625 86.4322 206.266 86.5616 206.972 86.444C207.337 86.3851 207.825 86.191 207.972 86.7851C208.084 87.2321 207.831 87.5909 207.525 87.8674C206.143 89.1026 204.525 89.0614 202.896 88.5849C200.408 87.8556 198.408 86.3087 196.508 84.6147C196.126 84.2736 195.803 83.5501 195.22 83.8207C194.491 84.1559 194.92 84.8912 195.014 85.4499C195.285 86.9969 195.603 88.5379 195.879 90.0848C196.708 94.7079 199.72 97.6488 203.525 99.9545C204.372 100.472 204.684 100.407 206.413 99.9898C206.055 101.89 204.984 102.648 202.972 101.99C198.179 100.419 194.92 97.2136 193.544 92.3023C192.438 88.3379 192.203 84.2206 191.821 80.1445C191.226 73.8392 188.768 68.0103 183.686 64.6577C177.41 60.5169 172.334 55.0174 166.129 50.9001C163.158 48.9355 160.076 47.1651 156.388 46.924C155.865 46.8887 155.394 46.7299 155.33 46.177C155.253 45.53 155.783 45.1888 156.277 44.983C157.988 44.2713 159.741 44.383 161.506 44.8124C165.158 45.7123 168.334 47.5651 171.287 49.8178C172.916 51.0589 174.569 52.3058 176.028 53.7292C182.039 59.6052 189.521 62.652 197.379 64.9929C198.096 65.2047 198.849 65.287 199.573 65.4694C200.12 65.6047 200.996 65.0694 201.173 65.8399C201.355 66.6516 200.437 66.8692 199.843 67.1398C197.973 67.9809 196.008 67.9809 194.026 67.7221C193.091 67.5809 192.162 67.4221 190.721 67.1986ZM195.091 83.2501C195.026 83.1266 194.967 83.009 194.908 82.8913C194.832 82.9619 194.691 83.0266 194.691 83.0972C194.691 83.2148 194.785 83.3266 194.838 83.4383C194.926 83.3795 195.008 83.3148 195.091 83.2501Z" fill="#948976"/>
<path d="M166.493 226.984C164.558 228.766 162.911 230.284 161.264 231.796C155.136 237.413 147.613 238.554 139.725 238.489C137.402 238.471 135.073 238.401 132.89 237.46C132.414 237.254 131.714 237.025 131.826 236.383C131.944 235.719 132.696 235.825 133.19 235.807C136.949 235.695 140.707 235.483 144.466 235.578C150.901 235.731 156.218 233.601 160.323 228.555C162.094 226.378 163.97 224.296 165.835 222.202C166.94 220.961 167.864 219.673 167.952 217.914C167.993 217.085 168.287 216.256 169.146 217.473C169.822 218.426 170.105 217.379 170.487 217.209C171.158 216.915 171.852 216.15 172.522 216.65C173.375 217.279 172.587 218.138 172.381 218.879C172.31 219.138 172.199 219.42 172.016 219.608C169.364 222.326 169.734 225.796 169.428 229.178C168.246 242.353 169.152 255.399 171.316 268.404C171.775 271.163 171.799 273.98 172.516 276.709C172.634 277.15 172.981 277.909 172.263 278.121C171.658 278.297 171.387 277.591 171.099 277.156C169.452 274.662 168.605 271.839 167.97 268.975C164.988 255.499 163.964 241.942 166.458 228.261C166.517 227.99 166.482 227.719 166.493 226.984Z" fill="#948976"/>
<path d="M56.4799 173.759C54.7272 173.907 53.6331 172.818 52.5685 171.86C48.7689 168.425 45.7927 164.337 43.6517 159.714C39.4932 150.732 36.8405 141.404 38.0228 131.357C38.5874 126.564 39.9814 122.211 45.3104 120.417C44.5163 119.347 43.7928 118.4 43.1047 117.423C42.8988 117.135 42.8576 116.723 43.1223 116.47C43.4399 116.171 43.7223 116.488 43.9987 116.67C46.7161 118.47 49.8394 119.253 52.8861 120.235C56.6446 121.441 60.0208 120.588 63.1558 118.376C66.6438 115.912 69.0788 112.559 71.2139 108.942C71.5727 108.336 71.8433 107.254 72.7256 107.583C73.7137 107.948 73.2373 108.953 73.0667 109.736C71.4786 117.106 65.7615 122.805 58.7327 124.029C55.9976 124.505 53.4567 123.746 50.9157 122.911C50.1335 122.652 49.2865 121.976 48.7336 123.317C48.6218 123.593 48.063 123.793 47.6925 123.835C44.4751 124.205 43.0282 126.417 42.1812 129.175C40.8872 133.398 41.2166 137.698 41.7813 141.98C43.3458 153.861 48.6159 164.025 56.2564 173.089C56.3682 173.23 56.38 173.454 56.4799 173.759Z" fill="#948976"/>
<path d="M145.249 209.315C136.061 209.609 129.503 207.539 124.327 201.88C123.504 200.981 122.68 200.069 121.586 199.439C120.569 198.857 120.469 197.922 121.404 197.293C126.556 193.822 131.691 190.287 137.938 188.982C139.661 188.623 141.349 188.705 142.884 189.682C143.525 190.087 144.078 190.046 144.796 189.805C149.237 188.305 153.383 188.864 157.259 191.599C159.042 192.858 161.012 193.834 162.829 195.046C163.923 195.775 164.553 196.34 162.9 197.634C161.012 199.11 159.589 201.222 157.736 202.851C153.648 206.451 149.254 209.356 145.249 209.315ZM160.171 198.275C157.401 198.216 154.889 198.198 152.389 198.087C150.378 197.998 148.442 198.204 146.59 199.016C144.072 200.122 141.443 200.269 138.761 199.91C136.191 199.569 133.632 199.157 131.062 198.863C129.056 198.634 127.056 198.669 125.021 199.351C134.214 209.886 152.901 209.344 160.171 198.275ZM158.765 196.022C158.8 195.881 158.836 195.74 158.877 195.605C156.259 194.358 153.719 192.887 150.995 191.94C148.76 191.164 146.319 191.046 144.055 192.27C143.272 192.693 142.496 192.517 141.673 192.311C136.408 190.999 132.297 193.74 128.062 196.099C130.456 196.475 132.832 196.552 135.161 196.893C139.184 197.481 143.143 197.669 147.078 196.369C148.913 195.763 150.807 195.74 152.742 195.91C154.748 196.081 156.765 195.999 158.765 196.022Z" fill="#948976"/>
<path d="M63.3674 49.2648C70.5197 53.9644 78.5425 54.5996 86.5595 54.7525C94.3705 54.8996 101.811 52.7057 109.128 50.1235C116.151 47.6414 122.768 44.1417 129.867 41.8537C131.814 41.2243 133.814 40.7361 135.814 40.3421C136.867 40.1303 137.996 40.195 139.078 40.2538C139.731 40.2891 140.525 40.4068 140.613 41.3008C140.708 42.3066 139.802 42.336 139.202 42.436C134.796 43.1947 130.626 44.7005 126.55 46.4709C121.039 48.8648 115.586 51.3764 109.934 53.4409C97.5467 57.9581 84.9832 59.2404 72.1196 55.676C69.8727 55.0525 67.6671 54.3232 65.7966 52.8821C64.6379 51.994 63.538 50.9941 63.3674 49.2648Z" fill="#948976"/>
<path d="M186.509 129.51C182.463 127.605 178.51 125.628 174.087 124.923C173.564 124.84 172.822 124.976 172.77 124.27C172.717 123.576 173.528 123.617 173.987 123.405C174.881 122.993 175.84 122.988 176.804 123.111C181.257 123.693 185.48 124.97 189.221 127.522C189.956 128.022 190.574 127.928 191.327 127.828C192.462 127.669 193.944 127.305 194.473 128.516C194.944 129.599 193.709 130.481 192.909 131.157C187.756 135.522 181.863 137.91 175.028 137.486C169.752 137.163 164.653 135.863 159.565 134.522C159.106 134.398 158.641 134.239 158.224 134.028C157.483 133.651 156.712 133.187 156.836 132.21C156.971 131.169 157.753 130.763 158.724 130.663C160.847 130.434 162.959 130.563 165.041 131.01C168.999 131.851 172.987 132.293 177.04 132.181C180.392 132.087 183.433 130.981 186.509 129.51Z" fill="#948976"/>
<path d="M99.7112 124.946C96.0469 127.099 92.3766 129.258 88.7122 131.41C97.7114 132.946 106.469 136.592 115.522 132.54C117.121 131.822 118.845 131.246 120.651 131.211C121.098 131.205 121.698 131.205 121.933 131.663C122.209 132.205 121.703 132.563 121.345 132.84C117.151 136.039 112.987 139.257 107.216 138.845C105.258 138.704 103.258 138.875 101.358 139.598C99.3877 140.351 97.3938 139.933 95.5057 139.398C92.0884 138.439 88.7358 137.263 85.3714 136.116C84.6126 135.857 83.9009 135.387 83.2421 134.91C82.4422 134.328 81.1835 133.887 81.3717 132.704C81.5364 131.652 82.8716 132.028 83.595 131.605C87.0771 129.581 90.5062 127.476 94.2353 125.905C95.9704 125.182 97.6997 124.546 99.7112 124.946Z" fill="#948976"/>
<path d="M173.252 213.85C172.822 213.25 173.399 212.844 173.599 212.415C175.61 207.998 178.069 203.821 180.475 199.61C186.827 188.505 191.697 176.847 192.985 163.984C193.791 155.967 194.279 147.921 195.014 139.898C195.132 138.586 194.285 136.269 196.291 136.257C197.585 136.251 197.314 138.586 197.397 139.915C197.867 147.885 196.426 155.696 195.261 163.519C193.609 174.63 190.709 185.411 185.868 195.563C182.839 201.916 179.275 207.998 174.387 213.185C174.152 213.432 173.91 213.679 173.646 213.885C173.575 213.944 173.405 213.868 173.252 213.85Z" fill="#948976"/>
<path d="M79.6133 113.047C80.8602 111.377 82.2425 110.559 83.6364 109.948C87.0067 108.465 90.4417 107.118 93.9002 105.842C96.5177 104.877 99.2527 104.895 102.005 105.195C106.758 105.719 111.522 106.148 116.269 106.707C118.592 106.977 120.827 107.642 122.78 109.006C123.404 109.442 124.045 109.924 123.933 110.8C123.803 111.806 122.939 112.065 122.139 112.224C121.415 112.371 120.639 112.406 119.904 112.353C114.787 111.965 109.646 111.465 104.711 110.112C99.0821 108.565 93.8179 109.012 88.5301 111.277C85.8539 112.424 83.0247 113.171 79.6133 113.047Z" fill="#948976"/>
<path d="M100.37 8.94482C101.488 15.8677 104.635 21.479 108.47 26.7491C109.946 28.7842 112.128 29.9959 114.393 31.0252C120.592 33.8367 127.18 34.8072 133.903 35.1778C136.22 35.3072 138.514 35.6424 140.737 36.3483C141.784 36.6776 142.802 37.0658 143.678 37.7364C144.255 38.1775 145.213 38.6186 144.79 39.4539C144.278 40.4714 143.455 39.5421 142.867 39.3304C138.59 37.7775 134.144 37.9775 129.721 37.9364C123.339 37.8834 117.257 36.56 111.546 33.6661C109.699 32.7309 108.028 31.5016 106.781 29.8488C103.217 25.114 100.364 20.0203 99.4057 14.0679C99.141 12.4033 99.1586 10.7329 100.37 8.94482Z" fill="#948976"/>
<path d="M197.567 114.371C195.891 114.841 194.562 114.224 193.474 113.63C187.304 110.242 181.022 110.401 174.434 112.242C170.499 113.342 166.317 113.294 162.217 113.43C161.288 113.459 160.329 113.171 159.412 112.93C158.588 112.712 157.871 112.23 157.812 111.277C157.747 110.236 158.447 109.642 159.312 109.295C161.547 108.401 163.935 108.071 166.282 107.654C168.899 107.189 171.564 106.954 174.211 106.66C177.669 106.283 181.01 106.772 184.28 107.966C187.815 109.26 191.262 110.748 194.65 112.371C195.615 112.836 196.661 113.212 197.567 114.371Z" fill="#948976"/>
<path d="M152.454 289.631C151.789 291.961 150.666 294.113 149.43 296.184C146.284 301.448 142.296 306.03 137.643 310.012C133.732 313.365 130.72 313.465 126.533 310.506C124.174 308.841 122.204 306.742 120.31 304.583C120.045 304.277 119.792 303.93 119.657 303.554C119.474 303.042 119.339 302.454 119.78 302.007C120.31 301.477 120.833 301.924 121.251 302.201C122.909 303.289 124.55 304.395 126.156 305.554C131.673 309.536 132.532 309.541 137.473 304.818C142.208 300.283 147.054 295.843 150.901 290.467C151.201 290.049 151.636 289.726 152.007 289.355C152.16 289.449 152.307 289.543 152.454 289.631Z" fill="#948976"/>
<path d="M222.206 289.214C217.66 288.061 213.325 286.52 209.102 284.661C198.061 279.803 187.68 273.774 177.722 266.992C176.481 266.145 175.187 265.387 173.911 264.593C173.517 264.351 173.275 264.034 173.546 263.599C173.764 263.257 174.117 263.322 174.458 263.475C175.575 263.981 176.74 264.398 177.81 264.981C191.109 272.262 204.702 278.985 218.101 286.079C219.612 286.885 221.271 287.573 222.206 289.214Z" fill="#948976"/>
<path d="M171.411 19.4441C170.858 29.0608 166.77 36.9249 158.635 42.5773C157.465 43.3949 156.194 44.0713 154.994 44.8418C154.594 45.1006 154.265 45.5241 153.747 45.1241C153.283 44.7653 153.071 44.3007 153.206 43.689C153.424 42.6832 154.071 41.9832 154.841 41.4068C162.053 36.0602 166.27 28.8903 167.946 20.1322C168.164 19.0029 168.593 17.9089 168.981 16.8149C169.146 16.3561 169.099 15.5738 169.864 15.6562C170.446 15.715 170.787 16.2738 170.928 16.7972C171.14 17.5854 171.228 18.4089 171.411 19.4441Z" fill="#948976"/>
<path d="M64.8674 31.0547C64.8968 28.202 65.4262 25.1905 66.7496 22.3554C67.1378 21.532 67.4025 20.1674 68.5318 20.4674C69.6494 20.7615 68.9259 22.0378 68.8612 22.8083C68.6553 25.1258 68.3906 27.4315 68.5847 29.7607C68.873 33.1956 70.3081 36.0542 72.9373 38.3011C75.29 40.3127 77.9251 41.889 80.6778 43.2889C81.6248 43.7712 82.5953 43.9653 83.6481 43.8123C84.0422 43.7535 84.5363 43.7065 84.6657 44.23C84.7833 44.7182 84.3304 44.9299 84.001 45.1534C83.1952 45.6945 82.3129 45.9592 81.3189 46.0298C74.149 46.5062 65.1498 38.4775 64.8674 31.0547Z" fill="#948976"/>
<path d="M47.3984 111.948C46.7162 112.095 45.9045 111.942 45.1751 111.565C44.6105 111.277 43.6635 111.077 43.8694 110.236C44.0987 109.307 44.8987 110.106 45.4339 110.036C46.5573 109.889 47.522 109.43 48.4631 108.889C56.1094 104.501 62.8971 99.278 66.0674 90.5788C66.1615 90.3259 66.2909 90.0789 66.4438 89.8554C66.832 89.3084 67.2379 88.5143 68.0143 88.8907C68.726 89.2378 68.2142 89.9436 68.0966 90.52C66.2262 99.4251 61.256 105.966 53.145 110.107C51.3746 111.012 49.5806 111.824 47.3984 111.948Z" fill="#948976"/>
<path d="M87.2537 71.7512C82.407 71.8453 77.7604 71.0807 73.5019 68.5809C72.2962 67.8751 71.4198 66.834 70.6022 65.7458C70.4669 65.5694 70.4022 65.1753 70.5081 65.0106C70.7434 64.6401 71.0904 64.8165 71.3786 65.0341C75.79 68.3927 81.0601 68.3397 86.2008 68.7221C88.8535 68.9162 91.3239 68.0927 93.6472 66.8399C94.7236 66.2576 95.7411 65.5341 96.8469 65.0283C97.7939 64.5989 98.8997 63.0284 99.7525 64.2695C100.435 65.2635 98.8526 66.1929 98.0527 66.9046C94.9647 69.6161 91.5062 71.5747 87.2537 71.7512Z" fill="#948976"/>
<path d="M178.028 44.2944C176.869 44.3533 175.716 44.518 174.575 44.1474C174.263 44.0474 173.822 44.1239 173.728 43.7239C173.61 43.224 174.063 43.0593 174.399 42.8534C176.457 41.63 178.698 40.8124 180.939 39.9948C182.539 39.4125 184.145 38.8479 185.75 38.2773C187.797 37.5539 189.444 36.5304 189.456 34.0012C189.456 33.4307 189.691 32.7661 190.521 32.7366C191.256 32.7072 191.373 33.3013 191.591 33.7836C192.944 36.7598 191.991 39.7125 188.98 41.2124C185.545 42.9357 181.868 43.9533 178.028 44.2944Z" fill="#948976"/>
<path d="M58.5914 91.9727C57.7856 92.7609 56.9268 92.8785 55.8152 92.6256C49.3628 91.1493 44.5044 84.7381 44.6573 77.7505C44.7161 75.0154 45.122 72.3215 45.8337 69.6865C45.9572 69.2395 45.9043 68.3748 46.6454 68.4631C47.5688 68.5748 46.9512 69.31 46.9571 69.7688C47.01 73.4508 46.8101 77.1329 47.8335 80.7502C49.4334 86.385 53.7447 89.2965 58.5914 91.9727Z" fill="#948976"/>
<path d="M113.475 13.5092C113.604 10.8565 113.963 8.01561 115.069 5.35703C115.792 3.61012 117.139 2.49258 119.192 2.62198C119.898 2.66903 120.539 2.91607 120.827 3.63953C121.139 4.41005 121.05 5.19822 120.356 5.66288C118.639 6.80984 118.239 8.61556 117.933 10.4213C117.539 12.7505 116.51 14.9385 116.633 17.3971C116.692 18.5441 115.739 18.1324 115.21 17.7265C113.916 16.7325 113.675 15.2326 113.475 13.5092Z" fill="#948976"/>
<path d="M185.886 51.4411C188.592 52.3175 190.892 51.6117 193.109 50.5647C196.062 49.1649 198.32 47.1121 199.144 43.783C199.256 43.3242 199.438 42.8713 199.667 42.4596C199.932 41.9831 200.303 41.4538 200.938 41.7126C201.514 41.9479 201.908 42.436 201.902 43.136C201.838 49.0708 196.468 54.4585 190.474 54.5526C188.439 54.5879 186.751 53.9527 185.886 51.4411Z" fill="#948976"/>
<path d="M60.9499 74.2333C59.4618 74.7685 58.4678 74.0568 57.6502 73.3686C54.1976 70.4748 51.6155 66.881 49.8627 62.7519C48.6569 59.9051 49.2392 56.9995 50.2273 54.1821C50.3509 53.8351 50.4097 53.2587 50.9567 53.3528C51.639 53.4645 51.4684 54.0115 51.3802 54.488C50.5273 59.3758 52.3448 63.393 55.3445 67.0986C57.2032 69.4043 58.7266 71.9805 60.9499 74.2333Z" fill="#948976"/>
<path d="M145.572 26.2669C145.09 23.5377 145.637 20.4909 144.778 17.5559C144.684 17.2383 144.596 16.8148 145.037 16.703C145.548 16.5678 145.737 17.0501 145.895 17.3853C146.989 19.6792 147.531 22.1496 147.931 24.62C148.442 27.7668 149.189 30.9253 148.701 34.1662C148.525 35.3308 148.248 36.4366 147.354 37.2894C146.972 37.6541 146.537 37.8012 146.06 37.5129C145.754 37.3247 145.637 37.0542 145.76 36.6483C146.784 33.2427 145.701 29.8783 145.572 26.2669Z" fill="#948976"/>
<path d="M173.134 35.8777C172.976 35.1601 173.458 34.9131 173.758 34.5661C177.534 30.1371 181.287 25.6963 181.892 19.5498C181.939 19.0498 182.181 18.5675 182.733 18.544C183.322 18.5204 183.445 19.0498 183.604 19.5145C184.198 21.279 184.045 23.0671 183.469 24.7493C181.804 29.59 178.687 33.2662 174.211 35.7718C174.04 35.866 173.828 35.9071 173.628 35.9365C173.505 35.9542 173.37 35.9071 173.134 35.8777Z" fill="#948976"/>
<path d="M156.812 25.1553C155.771 30.1195 154.077 34.9603 150.73 39.0834C150.33 39.5775 149.601 39.801 149.024 40.148C148.336 40.5657 147.577 40.501 147.195 39.8775C146.678 39.0305 147.672 38.9952 148.101 38.6599C148.995 37.9541 149.413 36.9307 149.877 35.9425C151.654 32.184 153.1 28.2726 155.171 24.6494C155.43 24.1965 155.624 23.4731 156.247 23.5848C156.977 23.7142 156.535 24.5024 156.812 25.1553Z" fill="#948976"/>
<path d="M138.643 12.6386C138.785 14.009 138.708 15.3618 138.249 16.6676C138.096 17.1029 137.832 17.5969 137.279 17.5793C136.755 17.5617 136.791 16.9911 136.65 16.65C135.008 12.5797 134.391 8.2566 133.52 3.99228C133.397 3.38645 133.367 2.70415 134.079 2.41006C134.744 2.1395 135.256 2.55123 135.691 3.00413C136.414 3.757 136.855 4.67457 137.167 5.65684C137.908 7.93898 138.332 10.2741 138.643 12.6386Z" fill="#948976"/>
<path d="M66.9378 71.1981C65.6732 71.1628 64.3028 70.7334 63.1676 69.81C60.4502 67.5984 58.5797 64.8163 57.6622 61.399C57.4681 60.6755 57.7151 60.052 57.8151 59.3874C57.8621 59.058 58.0974 58.711 58.468 58.7169C58.8856 58.7228 58.8856 59.1404 59.015 59.458C60.6913 63.7164 63.4734 67.0161 67.5201 69.2218C68.073 69.5218 69.1317 69.4747 69.0082 70.3158C68.8788 71.1922 67.8965 71.1334 66.9378 71.1981Z" fill="#948976"/>
<path d="M91.2532 28.7371C88.4417 29.1194 86.2066 27.7901 84.8479 25.0198C82.9363 21.126 82.1658 15.4089 85.1831 12.7974C85.8948 18.5851 85.342 24.761 91.2532 28.7371Z" fill="#948976"/>
<path d="M62.3326 84.8263C59.3505 84.4911 56.0332 83.8617 53.9922 80.6208C53.6746 80.115 53.1334 79.3445 53.7569 78.7916C54.2451 78.3563 54.6803 79.1151 55.1568 79.3092C58.4388 80.6267 61.7091 81.9736 65.3794 81.5913C65.9029 81.5384 66.7028 81.0855 66.9675 81.9148C67.1733 82.5501 66.6087 83.05 66.144 83.4441C65.1912 84.2617 64.0736 84.7263 62.3326 84.8263Z" fill="#948976"/>
<path d="M156.795 10.5095C156.859 11.8682 156.665 13.1269 155.965 14.268C155.795 14.5445 155.595 14.8621 155.177 14.7974C154.824 14.7444 154.795 14.4327 154.795 14.1798C154.83 9.72724 151.766 6.94514 149.26 3.85718C148.819 3.31605 147.837 2.83374 148.419 2.02793C148.966 1.26917 149.831 1.89264 150.472 2.16321C154.183 3.72778 156.042 6.70986 156.795 10.5095Z" fill="#948976"/>
<path d="M151.942 174.642C150.342 174.718 148.795 174.513 147.419 173.624C146.766 173.201 146.248 172.642 146.407 171.772C146.542 171.031 147.054 170.595 147.736 170.342C149.419 169.725 151.083 169.748 152.707 170.542C153.818 171.089 154.706 171.872 154.395 173.248C154.106 174.501 152.995 174.589 151.942 174.642Z" fill="#948976"/>
<path d="M135.744 170.083C137.155 170.06 138.414 170.236 138.837 171.495C139.267 172.771 138.32 173.648 137.326 174.324C136.696 174.754 135.985 174.995 135.226 175.024C134.044 175.071 133.032 174.73 132.656 173.489C132.262 172.189 132.779 171.213 133.997 170.66C134.608 170.378 135.279 170.231 135.744 170.083Z" fill="#948976"/>
<path d="M53.9153 154.15C51.6449 150.838 50.2568 147.185 50.0568 143.104C50.0274 142.498 50.345 141.821 51.0743 141.78C51.8684 141.733 51.739 142.521 51.8625 142.986C52.7919 146.638 53.6859 150.303 54.5858 153.967C54.3623 154.026 54.1388 154.085 53.9153 154.15Z" fill="#948976"/>
<path d="M108.616 127.528C108.628 126.634 109.216 126.587 109.881 126.734C111.94 127.193 113.598 128.364 115.116 129.752C115.475 130.081 115.686 130.605 114.975 130.852C113.716 131.293 109.175 129.158 108.711 127.934C108.669 127.811 108.652 127.675 108.616 127.528Z" fill="#948976"/>
<path d="M165.229 124.111C166.188 124.429 167.682 123.876 167.899 124.64C168.235 125.811 166.7 126.011 165.882 126.511C165.311 126.864 164.664 127.128 164.017 127.323C163.288 127.54 162.465 127.675 162.1 126.74C161.765 125.887 162.218 125.264 162.971 124.917C163.712 124.588 164.494 124.37 165.229 124.111Z" fill="#948976"/>
<path d="M197.262 132.769C197.373 133.416 196.891 133.581 196.45 133.769C196.073 133.928 195.744 133.857 195.738 133.393C195.732 132.852 195.779 132.21 196.397 132.046C196.826 131.934 197.109 132.358 197.262 132.769Z" fill="#948976"/>
<path d="M105.652 145.209C135.226 146.939 118.257 166.749 97.988 162.096C81.3954 157.138 92.1003 141.769 105.652 145.209Z" fill="#D8C8BB"/>
<path d="M160.688 155.967C157.865 144.009 183.31 140.904 186.286 151.05C190.115 165.637 159.988 163.731 160.688 155.967Z" fill="#D8C8BB"/>
</g>
</svg>
