<svg width="229" height="294" viewBox="0 0 229 294" fill="none" xmlns="http://www.w3.org/2000/svg">
<g opacity="0.05">
<path d="M208.619 212.408L198.167 235.855C198.167 235.855 203.763 239.379 202.947 240.93C202.132 242.49 194.335 239.763 189.55 237.62L188.748 237.235C183.973 235.03 176.792 230.947 177.452 229.315C178.092 227.675 184.414 229.581 184.414 229.581L195.231 206.3C184.608 200.552 183.214 196.962 183.854 196.146C184.603 195.188 197.105 198.479 197.105 198.479L232.365 122.575C233.38 121.617 236.363 121.674 236.363 121.674L237.094 120.114C234.77 118.487 233.869 117.164 234.158 116.789C234.585 116.211 236.287 116.05 236.287 116.05C238.953 114.134 244.995 107.062 245.981 104.924C246.692 103.387 248.997 103.136 250.23 103.117C251.022 104.046 252.379 105.976 251.677 107.537C250.728 109.695 249.358 118.89 249.676 122.163C249.676 122.163 250.667 123.548 250.51 124.249C250.411 124.709 248.827 124.904 246.085 124.226L245.384 125.795C245.384 125.795 247.39 128.02 247.342 129.405L213.272 205.849C213.272 205.849 223.966 213.11 223.743 214.31C223.544 215.33 219.921 216.634 208.619 212.408Z" fill="#EFE7DE"/>
<path d="M220.727 216.141C218.422 216.141 214.595 215.51 208.335 213.167C207.51 212.859 206.637 212.512 205.722 212.143C204.451 211.63 203.104 211.047 201.676 210.412L201.278 210.208C199.888 209.563 198.561 208.932 197.342 208.311C196.46 207.865 195.625 207.433 194.852 207.016C184.869 201.614 183.218 198.261 182.967 197.066C182.82 196.35 183.024 195.899 183.223 195.648C183.536 195.245 184.267 194.296 196.659 197.526L231.635 122.234C231.678 122.139 231.739 122.058 231.815 121.987C233.01 120.858 235.837 120.854 236.392 120.868C236.629 120.873 236.852 120.982 237.004 121.167C237.155 121.352 237.217 121.589 237.174 121.826C237.184 121.826 237.288 123.092 240.75 124.733C243.894 125.999 244.791 125.255 244.8 125.25C244.947 125.06 245.151 124.975 245.388 124.965C245.625 124.946 245.834 125.079 245.995 125.259C246.365 125.672 248.22 127.811 248.158 129.442C248.153 129.547 248.129 129.646 248.087 129.741L214.296 205.569C224.863 212.788 224.644 213.959 224.55 214.466C224.488 214.784 224.284 215.235 223.644 215.595C223.203 215.832 222.335 216.141 220.727 216.141ZM208.904 211.645C218.275 215.149 221.965 214.666 222.814 214.201C221.851 212.996 217.071 209.411 212.817 206.523C212.489 206.3 212.371 205.882 212.532 205.522L246.522 129.243C246.455 128.631 245.82 127.626 245.213 126.853C244.378 127.18 242.823 127.318 240.096 126.217C237.046 124.771 236.017 123.396 235.695 122.499C234.713 122.547 233.537 122.727 233.029 123.083L197.849 198.821C197.683 199.176 197.29 199.366 196.905 199.262C191.888 197.939 185.964 196.672 184.513 196.777C184.67 197.574 186.614 200.704 195.625 205.579C196.384 205.987 197.204 206.414 198.077 206.85C199.286 207.462 200.59 208.092 201.994 208.737L202.383 208.937C203.754 209.548 205.086 210.122 206.338 210.63C207.23 211.004 208.093 211.341 208.904 211.645Z" fill="#222222"/>
<path d="M194.084 235.941C193.202 235.941 192.03 235.766 190.65 235.149C190.242 234.964 190.057 234.485 190.242 234.073C190.427 233.665 190.906 233.484 191.314 233.665C193.121 234.476 194.411 234.348 194.952 234.239L205.248 211.123C205.428 210.711 205.912 210.531 206.319 210.711C206.727 210.891 206.912 211.375 206.732 211.783L196.279 235.239C196.194 235.429 196.042 235.576 195.853 235.657C195.81 235.68 195.165 235.941 194.084 235.941Z" fill="#222222"/>
<path d="M201.534 242.164C198.044 242.164 191.565 239.413 189.222 238.36L188.397 237.962C185.381 236.572 175.592 231.796 176.697 229.008C177.423 227.139 181.302 227.855 183.968 228.6L194.496 205.954C194.591 205.75 194.762 205.594 194.975 205.527C195.188 205.456 195.421 205.475 195.615 205.584C196.379 205.997 197.199 206.419 198.067 206.86C199.277 207.472 200.581 208.103 201.985 208.748L202.373 208.947C203.744 209.559 205.077 210.132 206.329 210.64C207.23 211.01 208.093 211.347 208.904 211.65C209.113 211.726 209.283 211.892 209.369 212.096C209.454 212.3 209.454 212.537 209.359 212.741L199.191 235.552C201.506 237.075 204.598 239.541 203.668 241.31C203.35 241.917 202.573 242.164 201.534 242.164ZM179.154 229.444C178.661 229.444 178.319 229.506 178.187 229.634C178.343 230.502 183.019 233.693 189.085 236.491L189.905 236.885C195.833 239.541 201.188 240.968 202.212 240.523C202.108 239.84 200.031 237.99 197.73 236.539C197.389 236.325 197.256 235.889 197.422 235.519L207.524 212.855C206.94 212.632 206.338 212.39 205.717 212.134C204.446 211.622 203.099 211.038 201.672 210.403L201.273 210.199C199.884 209.554 198.556 208.923 197.337 208.302C196.739 207.998 196.161 207.704 195.611 207.41L185.149 229.918C184.978 230.283 184.56 230.473 184.176 230.355C182.284 229.786 180.316 229.444 179.154 229.444Z" fill="#222222"/>
<path d="M190.228 234.855C190.114 234.855 190 234.831 189.887 234.779C186.832 233.37 186.107 231.279 186.078 231.194C186.012 230.994 186.026 230.781 186.112 230.596L196.929 207.305C197.119 206.898 197.598 206.722 198.006 206.912C198.414 207.102 198.589 207.585 198.399 207.988L187.743 230.938C188.009 231.417 188.763 232.474 190.565 233.304C190.973 233.494 191.153 233.973 190.963 234.381C190.83 234.679 190.536 234.855 190.228 234.855Z" fill="#222222"/>
<path d="M209.843 207.111C209.795 207.111 209.748 207.106 209.701 207.096C202.297 205.783 197.133 201.457 196.915 201.272C196.573 200.983 196.531 200.471 196.82 200.13C197.109 199.788 197.621 199.745 197.963 200.035C198.01 200.077 203.028 204.265 209.98 205.498C210.421 205.574 210.715 205.996 210.64 206.442C210.573 206.835 210.232 207.111 209.843 207.111Z" fill="#222222"/>
<path d="M201.686 198.599C205.992 190.437 209.644 181.919 213.476 173.53C217.317 165.121 221.159 156.713 225 148.304C227.153 143.585 229.316 138.871 231.459 134.152C231.146 134.233 230.833 134.318 230.516 134.399C232.873 136.002 235.908 138.018 238.924 137.406C240.162 137.154 240.447 136.125 239.664 135.177C238.872 134.214 237.819 133.474 236.814 132.744C235.804 132.014 234.708 131.293 233.926 130.301C233.75 130.079 233.589 129.837 233.465 129.585C233.404 129.462 233.328 129.325 233.3 129.187C233.318 129.263 232.598 129.021 233.399 129.239C234.139 129.438 234.865 129.68 235.585 129.946C237.041 130.486 238.493 131.136 240.034 131.378C240.935 131.52 242.894 131.686 243.335 130.61C243.548 130.088 243.264 129.557 242.87 129.206C242.604 128.969 242.277 128.827 241.974 128.646C241.542 128.386 241.153 128.044 240.75 127.745C239.033 126.479 237.241 125.303 235.467 124.117C234.884 123.728 234.333 124.677 234.917 125.056C236.235 125.91 237.558 126.764 238.877 127.612C239.536 128.039 240.209 128.442 240.883 128.841C241.257 129.064 241.627 129.272 241.926 129.595C242.002 129.675 242.234 129.884 242.244 129.988C242.268 130.278 242.012 130.211 241.77 130.226C239.062 130.406 236.553 128.703 234.02 128.025C233.171 127.797 231.957 127.769 231.91 128.955C231.872 129.846 232.555 130.776 233.11 131.411C234.552 133.066 236.624 134.015 238.184 135.547C238.293 135.651 238.753 136.159 238.768 136.14C238.749 136.168 237.966 136.173 237.8 136.168C237.027 136.149 236.268 135.95 235.547 135.68C233.982 135.096 232.569 134.152 231.203 133.213C230.919 133.019 230.411 133.138 230.26 133.46C222.515 150.31 214.832 167.189 207.121 184.053C204.968 188.758 202.829 193.477 200.946 198.295C200.799 198.712 201.477 198.992 201.686 198.599Z" fill="#222222"/>
<path d="M235.083 148.451C231.782 155.024 228.832 161.777 225.778 168.469C222.724 175.17 219.722 181.9 216.696 188.615C214.984 192.409 213.258 196.199 211.617 200.026C211.351 200.642 212.238 201.188 212.537 200.562C218.868 187.14 224.811 173.52 230.848 159.966C232.512 156.233 234.163 152.496 235.685 148.707C235.823 148.361 235.249 148.124 235.083 148.451Z" fill="#222222"/>
<path d="M188.929 199.3C189.763 200.249 190.541 201.121 191.561 201.894C192.609 202.686 193.714 203.388 194.857 204.033C197.181 205.352 199.595 206.518 202.018 207.642C207.088 209.99 212.3 212.029 217.616 213.751C218.403 214.007 218.745 212.764 217.958 212.513C212.746 210.829 207.633 208.842 202.663 206.537C200.33 205.456 198.001 204.332 195.758 203.075C193.59 201.866 191.271 200.486 189.446 198.788C189.099 198.461 188.62 198.949 188.929 199.3Z" fill="#222222"/>
<path d="M45.9272 169.313L45.9747 169.303C44.1203 160.421 43.703 151.263 43.8974 142.186C45.0309 145.387 47.478 147.91 49.6501 150.518C61.1745 164.4 65.9454 183.649 62.2273 201.311L62.1324 201.358C62.0044 201.088 61.8811 200.803 61.753 200.523C61.606 200.457 61.4637 200.386 61.3167 200.319C53.1406 196.544 44.8459 192.58 38.4483 186.258C30.5614 178.471 26.2362 167.677 24.2112 156.764C31.8941 160.131 39.1881 164.338 45.9272 169.313Z" fill="#EFE7DE"/>
<path d="M239.546 277.187L185.523 276.722L25.3066 275.337C15.6366 265.918 11.2734 251.302 14.432 238.179C16.2673 230.549 20.6399 223.61 26.5349 218.45C22.7741 215.965 19.1176 213.31 15.0011 211.455C24.6047 206.509 36.1717 206.404 46.5816 209.293C46.7286 209.331 46.8804 209.378 47.0274 209.43C53.2448 208.662 59.6283 209.06 65.969 209.207C67.6289 209.255 69.2746 209.274 70.925 209.255C70.2183 203.213 70.8776 196.938 72.5327 191.077C75.492 180.591 81.3206 171.182 87.429 162.166C85.7501 171.912 88.2162 181.933 87.3009 191.788C86.7887 197.375 85.2142 202.738 83.1133 207.946C84.0618 207.713 85.0056 207.453 85.9351 207.14C87.9412 206.48 89.8809 205.617 91.7257 204.588C93.1627 197.109 96.1268 189.915 100.424 183.617C100.888 187.728 101.538 191.831 102.207 195.923C104.322 193.472 106.134 190.764 107.608 187.894C107.803 187.515 107.997 187.126 108.182 186.742C112.19 178.352 113.518 168.801 112.797 159.506C110.933 158.827 109.112 158.059 107.31 157.267C99.9493 154.009 92.6837 150.03 87.3294 144.007C79.4852 135.191 77.0191 123.647 70.5124 113.807C67.3681 116.932 63.944 119.754 60.3207 122.253C57.7028 124.065 54.9 125.734 51.7841 126.422C48.673 127.109 45.1778 126.683 42.7164 124.667C42.1521 124.202 41.6588 123.676 41.2225 123.107L40.4447 123.235C39.8614 127.209 35.2659 129.694 31.2964 129.025C27.3316 128.366 24.1304 125.331 22.0153 121.916C19.9001 118.492 18.6386 114.632 16.9028 110.994C14.4604 105.853 11.0458 101.168 6.89135 97.2598C4.69081 95.1826 2.17727 93.1576 1.24774 90.2788C0.422536 87.6894 1.06278 84.787 2.46182 82.4632C3.86087 80.1251 5.94284 78.2945 8.11492 76.6536C12.7389 73.1915 17.9414 70.5025 23.438 68.7478C23.3432 68.6719 23.2531 68.5913 23.1582 68.5059C18.4916 64.3182 16.7179 57.674 16.8839 51.4186C17.0498 45.1537 18.8899 39.0737 20.4028 32.9986C21.9157 26.9186 23.1203 20.5731 21.9536 14.4173C21.2944 10.8889 19.938 6.92888 23.4475 4.26358C25.1643 2.96413 27.4123 2.62267 29.518 3.11115C43.4847 6.36926 55.4548 16.8835 60.6716 30.2005C60.7191 30.1151 60.7475 30.0155 60.7902 29.9302C63.2326 23.7696 64.2617 17.0494 63.7685 10.4431C63.631 8.69785 63.3986 6.92414 63.7116 5.19786C64.0199 3.47158 65.011 1.75478 66.6425 1.09557C69.4358 -0.028408 72.3477 2.33811 74.2732 4.64773C77.5503 8.55557 80.3057 12.8523 82.5679 17.4004C84.0902 15.4986 86.3809 14.3367 88.719 13.5969C96.3307 11.164 104.72 12.6152 112.142 15.6125C119.55 18.6097 126.275 23.063 133.294 26.8902C140.318 30.7127 147.901 33.9898 155.892 34.2885C156.494 34.3075 157.097 34.317 157.694 34.298C159.828 39.6713 163.95 44.2099 169.062 46.9179C174.668 54.3352 177.143 64.0384 175.782 73.22L175.929 73.2389C176.707 70.8439 177.518 68.3778 179.216 66.5188C180.914 64.6644 183.745 63.5974 186.007 64.6976C187.62 65.4849 188.597 67.1495 189.313 68.7999C192.979 77.3365 191.817 87.3717 187.985 95.8323L186.557 96.1311C188.293 97.2551 189.981 98.4597 191.447 99.9157C196.151 104.601 198.101 111.516 202.815 116.192L202.677 116.443C204.925 117.615 207.282 118.634 209.573 119.749C211.745 120.797 213.974 122.04 215.235 124.103C217.351 127.574 216.032 132.103 217.028 136.044L216.155 136.395C217.744 139.497 217.815 143.357 217.464 146.909C216.127 160.089 210.279 172.514 209.046 185.713C207.832 198.65 211.124 211.569 214.913 223.994C220.666 242.775 227.784 261.465 239.546 277.187Z" fill="#EFE7DE"/>
<path d="M70.2182 113.949C71.3137 115.813 72.2575 117.795 73.2297 119.725C74.1782 121.603 75.0508 123.519 75.9187 125.435C77.6592 129.277 79.3476 133.152 81.4248 136.822C83.4831 140.464 85.9587 143.87 88.9986 146.753C92.067 149.665 95.586 152.055 99.2709 154.113C103.093 156.248 107.11 158.078 111.184 159.672C115.509 161.365 120.043 162.674 124.7 162.973C133.242 163.523 141.565 160.212 148.37 155.233C156.513 149.271 162.783 140.929 168.379 132.635C168.863 131.918 167.729 131.288 167.236 131.966C162.019 139.127 156.878 146.322 150.035 152.055C143.708 157.357 135.793 161.322 127.418 161.559C122.908 161.687 118.473 160.696 114.234 159.231C110.046 157.784 105.958 155.968 102.017 153.933C98.3604 152.05 94.8509 149.893 91.6924 147.246C88.4864 144.557 85.8164 141.337 83.6253 137.78C81.2446 133.91 79.3997 129.751 77.5027 125.63C76.5637 123.595 75.6105 121.57 74.5718 119.583C74.0502 118.582 73.5048 117.601 72.9214 116.633C72.2812 115.571 71.5176 114.608 70.7826 113.608C70.5454 113.285 70 113.574 70.2182 113.949Z" fill="#222222"/>
<path d="M142.428 118.374C140.427 118.445 138.387 118.445 136.4 118.141C134.475 117.847 132.592 117.345 130.704 116.856C127.29 115.974 123.387 114.926 119.882 115.893C118.227 116.349 117.018 117.335 115.898 118.592C115.4 119.147 114.907 119.735 114.272 120.138C113.546 120.598 112.692 120.769 111.853 120.883C110.264 121.101 108.59 121.134 107.182 122.007C105.982 122.751 105.147 124.022 104.829 125.388C104.028 128.845 106.465 131.871 109.595 133.009C110.411 133.308 110.762 132.009 109.956 131.71C107.267 130.719 105.166 127.84 106.446 124.971C107.789 121.969 111.554 122.965 114.091 122.021C115.448 121.518 116.382 120.513 117.35 119.488C118.417 118.35 119.555 117.62 121.115 117.359C124.397 116.804 127.868 117.899 131.022 118.673C134.674 119.564 138.919 120.721 142.547 119.232C142.964 119.061 142.964 118.355 142.428 118.374Z" fill="#222222"/>
<path d="M109.543 132.321C108.765 134.934 111.222 137.495 113.427 138.43C116.32 139.658 119.683 139.293 122.666 138.6C128.49 137.244 133.721 133.81 137.33 129.054C139.606 126.056 141.313 122.618 142.675 119.118C142.935 118.454 141.821 117.98 141.513 118.63C139.032 123.87 136.528 129.006 131.866 132.672C127.721 135.93 122.011 138.23 116.667 137.804C115.026 137.671 113.437 137.149 112.194 136.044C111.056 135.034 110.587 133.758 110.24 132.316C110.165 131.961 109.643 131.984 109.543 132.321Z" fill="#222222"/>
<path d="M94.9981 71.1044C96.5205 72.8733 97.9765 74.5806 98.9961 76.7005C100.002 78.7873 100.642 81.0874 100.978 83.3733C101.799 88.9315 100.727 94.5704 99.6079 100.005C99.1479 102.234 98.2136 104.904 98.9629 107.167C99.6885 109.358 101.87 110.116 103.98 110.32C105.228 110.439 106.565 110.396 107.703 110.994C108.785 111.563 109.396 112.753 109.743 113.877C110.056 114.892 109.999 116.04 110.464 117.003C110.905 117.927 111.777 118.477 112.792 118.558C115.258 118.757 116.795 116.258 116.207 114.015C115.628 111.8 113.1 110.804 112.531 108.618C112.356 107.94 111.189 108.053 111.27 108.788C111.478 110.728 112.972 111.776 114.016 113.275C114.547 114.038 114.898 114.968 114.542 115.883C114.172 116.846 112.925 117.387 112.067 116.652C111.308 116.002 111.289 114.674 111.042 113.778C110.781 112.834 110.411 111.919 109.819 111.131C108.415 109.263 106.271 109.021 104.109 108.77C103.113 108.651 101.993 108.49 101.211 107.802C100.329 107.029 100.253 105.815 100.348 104.724C100.561 102.249 101.296 99.7777 101.733 97.3305C102.6 92.4173 103.207 87.4092 102.34 82.4485C101.576 78.0948 99.4893 72.8259 95.4629 70.5021C95.0693 70.2981 94.7278 70.7913 94.9981 71.1044Z" fill="#222222"/>
<path d="M121.148 102.211C121.342 102.301 121.513 102.429 121.693 102.548C121.874 102.662 122.03 102.78 122.153 102.885C122.31 103.022 122.452 103.174 122.585 103.33C122.609 103.359 122.68 103.444 122.623 103.373C122.656 103.416 122.689 103.459 122.718 103.506C122.779 103.596 122.836 103.691 122.889 103.786C122.941 103.881 122.983 103.975 123.031 104.07C123.13 104.274 123.012 104.009 123.059 104.127C123.083 104.184 123.102 104.241 123.121 104.298C123.159 104.412 123.192 104.53 123.216 104.649C123.23 104.706 123.239 104.767 123.249 104.829C123.273 104.952 123.239 104.658 123.254 104.881C123.273 105.123 123.273 105.365 123.244 105.602C123.254 105.522 123.254 105.55 123.239 105.612C123.23 105.669 123.216 105.73 123.202 105.787C123.154 106.001 123.102 106.219 123.187 106.432C123.277 106.65 123.387 106.807 123.609 106.902C123.804 106.982 124.074 106.996 124.254 106.864C124.482 106.698 124.624 106.508 124.691 106.233C124.733 106.062 124.748 105.882 124.767 105.706C124.795 105.431 124.79 105.152 124.757 104.877C124.681 104.255 124.501 103.615 124.136 103.093C123.804 102.619 123.391 102.221 122.889 101.927C122.395 101.642 121.897 101.533 121.333 101.524C120.987 101.514 120.811 102.05 121.148 102.211Z" fill="#222222"/>
<path d="M155.788 55.8955C154.379 60.0832 151.24 63.5405 147.545 65.9639C143.851 68.3873 139.62 69.8717 135.352 71.0384C132.654 71.764 129.912 72.3853 127.342 73.4903C124.772 74.5953 122.348 76.2457 120.854 78.6217H120.845C122.059 75.6908 124.52 73.386 127.247 71.7261C130.126 69.9619 133.327 68.7952 136.414 67.4199C139.497 66.0445 142.547 64.3941 144.795 61.8711C145.563 61.008 146.241 60.05 147.171 59.367C149.708 57.5317 153.635 58.1814 155.788 55.8955Z" fill="#222222"/>
<path d="M114.608 67.3723C115.429 64.9821 117.103 62.8764 118.82 61.06C120.484 59.2958 122.348 57.7402 124.416 56.4598C128.77 53.766 133.83 52.3954 138.947 52.5045C142.034 52.5709 145.141 53.1021 148.072 54.079C148.688 54.2829 148.996 53.4008 148.494 53.0736C145.492 51.096 142.409 49.4029 138.914 48.4544C135.324 47.4774 131.53 47.2403 127.878 48.0181C124.563 48.72 121.471 50.3324 118.744 52.3195C117.406 53.2965 116.135 54.3588 114.926 55.4923C113.646 56.6922 112.351 57.9679 111.502 59.5187C110.629 61.1122 110.25 63.0424 110.852 64.7971C111.355 66.2626 112.432 67.5905 114.025 67.8703C114.808 68.0078 115.154 66.8506 114.357 66.6609C113.029 66.3432 112.266 64.9442 112.066 63.6684C111.81 62.0275 112.574 60.3961 113.532 59.1156C115.315 56.7396 117.843 54.6766 120.28 53.0025C122.709 51.3331 125.369 50.0336 128.253 49.3792C131.549 48.6298 135.03 48.7626 138.297 49.5831C141.707 50.4415 145.07 51.9923 147.939 54.0316C148.124 53.7138 148.309 53.3961 148.494 53.0831C138.202 48.6346 125.744 51.4517 118.099 59.5993C117.117 60.6474 116.197 61.7714 115.396 62.9665C114.523 64.266 113.707 65.6698 113.759 67.2727C113.774 67.7517 114.452 67.8324 114.608 67.3723Z" fill="#222222"/>
<path d="M112.304 159.017C112.474 165.765 112.104 172.533 110.245 179.058C108.533 185.058 105.645 190.735 101.562 195.468C97.7773 199.85 93.0537 203.44 87.6614 205.602C81.4629 208.087 74.7475 208.472 68.1412 208.386C61.3688 208.301 54.5775 207.708 47.8194 208.429C41.9292 209.06 36.2903 210.758 31.2301 213.873C21.8873 219.626 14.911 229.476 13.0852 240.351C11.1692 251.776 14.5032 263.836 21.8162 272.79C22.722 273.9 23.6894 274.933 24.7423 275.91C25.5058 276.617 26.6108 275.517 25.8852 274.767C21.8162 270.551 18.6007 265.671 16.6183 260.141C14.6881 254.759 13.9198 248.982 14.47 243.287C15.5323 232.26 21.911 222.182 31.1163 216.102C36.0627 212.835 41.6447 210.942 47.5207 210.279C54.2124 209.524 60.9752 210.013 67.6859 210.113C74.2353 210.212 80.9413 209.904 87.154 207.632C92.4988 205.678 97.3125 202.368 101.244 198.266C110.046 189.075 113.978 176.241 113.684 163.678C113.646 162.075 113.447 160.487 113.224 158.898C113.148 158.367 112.289 158.5 112.304 159.017Z" fill="#222222"/>
<path d="M167.962 132.094C166.492 137.14 164.794 141.977 161.92 146.426C159.013 150.926 155.309 154.848 151.168 158.23C146.81 161.787 141.973 164.727 136.993 167.321C131.833 170.01 126.422 172.201 121.314 174.999C116.259 177.769 110.776 181.416 107.898 186.576C107.665 186.993 108.263 187.51 108.59 187.107C110.302 185.025 112.099 183.057 114.196 181.345C116.325 179.604 118.711 178.158 121.129 176.858C126.318 174.065 131.819 171.898 137.059 169.204C146.876 164.158 156.286 157.656 162.584 148.418C165.809 143.689 168.583 138.022 168.754 132.208C168.763 131.743 168.09 131.667 167.962 132.094Z" fill="#222222"/>
<path d="M188.388 96.0501C190.242 93.1002 191.229 89.5718 191.812 86.1619C192.4 82.733 192.533 79.2378 192.063 75.7852C191.627 72.5461 190.75 68.9465 188.867 66.2196C187.022 63.5495 183.977 62.7433 181.042 64.1423C177.693 65.7406 176.024 69.62 175.194 73.0298C174.952 74.021 176.318 74.3388 176.688 73.4424C177.774 70.7819 178.528 67.6755 181.113 66.0299C182.241 65.309 183.655 64.8679 184.983 65.2047C186.339 65.5509 187.269 66.6416 187.928 67.8178C190.878 73.0583 191.243 79.7784 190.294 85.5928C189.725 89.0643 188.535 92.3367 187.563 95.7039C187.416 96.2018 188.117 96.4769 188.388 96.0501Z" fill="#222222"/>
<path d="M82.7242 18.0022C87.7703 13.1269 95.6429 12.5293 102.259 13.6106C109.453 14.7868 116.031 18.0117 122.329 21.5591C134.19 28.2366 146.895 36.868 161.218 34.8145C167.611 33.8991 173.895 30.6315 177.437 25.097C178.021 24.1912 176.588 23.366 176 24.2576C172.723 29.2135 167.274 32.078 161.517 33.0929C154.806 34.2691 147.967 32.6424 141.764 30.0909C128.395 24.5943 117.032 14.2793 102.392 12.0076C98.569 11.4148 94.6422 11.3626 90.853 12.1973C87.5948 12.9182 83.6491 14.2935 81.9607 17.4189C81.6951 17.8979 82.3164 18.3958 82.7242 18.0022Z" fill="#222222"/>
<path d="M157.262 34.184C157.49 34.8195 157.594 35.4835 157.841 36.1142C158.073 36.7165 158.372 37.2999 158.676 37.869C159.311 39.0499 160.07 40.1406 160.909 41.1887C162.621 43.3324 164.694 45.1677 167.003 46.6379C171.884 49.749 177.802 51.0247 183.536 50.3039C186.808 49.8913 190.28 48.9333 193.073 47.1216C193.917 46.5763 193.182 45.3337 192.291 45.7795C189.749 47.0458 187.254 48.0796 184.437 48.5634C181.677 49.0376 178.798 49.0281 176.047 48.516C170.883 47.5532 166.273 44.831 162.745 40.9611C161.787 39.9083 160.943 38.7748 160.155 37.5892C159.781 37.0248 159.434 36.4415 159.098 35.8534C158.718 35.1989 158.239 34.5919 157.945 33.8947C157.779 33.5106 157.115 33.7857 157.262 34.184Z" fill="#222222"/>
<path d="M176.138 73.613C176.394 72.4084 176.674 71.275 176.788 70.0371C176.901 68.7851 176.911 67.5284 176.845 66.2716C176.716 63.8861 176.356 61.5053 175.763 59.1862C175.175 56.8671 174.35 54.6144 173.316 52.4566C172.301 50.3272 171.059 47.8611 169.242 46.3055C168.801 45.9261 168.204 46.3909 168.45 46.9173C168.962 48.0034 169.688 48.9898 170.295 50.0284C170.855 50.9959 171.41 51.9586 171.898 52.9688C172.927 55.084 173.729 57.3129 174.317 59.5894C174.9 61.8705 175.26 64.2038 175.379 66.5561C175.436 67.6706 175.445 68.7851 175.436 69.9044C175.422 71.0947 175.464 72.3278 175.351 73.5134C175.313 73.9545 176.048 74.0493 176.138 73.613Z" fill="#222222"/>
<path d="M186.453 71.797C186.776 70.6161 186.031 69.4969 185.04 68.8946C184.002 68.2638 182.75 68.2543 181.644 68.7191C179.036 69.8194 178.206 72.8119 178.401 75.4155C178.846 81.5192 184.495 86.9968 182.446 93.2949C182.133 94.2624 183.594 94.6275 183.945 93.7075C185.875 88.6662 182.531 83.7292 180.9 79.1337C180.108 76.9094 179.449 74.1351 180.554 71.8966C181.061 70.8722 182.076 69.9806 183.276 69.9996C184.457 70.0185 185.102 70.9338 185.519 71.9203C185.699 72.3424 186.344 72.1859 186.453 71.797Z" fill="#222222"/>
<path d="M85.6411 93.8308C87.7515 87.1913 89.1885 80.3289 90.2176 73.4427C91.2372 66.604 91.7874 59.6894 91.6309 52.77C91.3558 40.5058 88.8186 28.2037 83.3694 17.1631C82.032 14.4551 80.5191 11.8278 78.8261 9.32371C77.1899 6.90502 75.4304 4.33457 73.2441 2.37116C71.2665 0.597456 68.5158 -0.811075 65.9216 0.535803C63.3607 1.86371 62.692 5.00801 62.7773 7.64011C62.8342 9.35217 63.0524 11.05 63.0856 12.762C63.1188 14.4172 63.0619 16.0771 62.9054 17.7227C62.5971 21.0425 61.8478 24.348 60.7855 27.5018C58.8078 33.3731 55.3458 38.5946 53.2828 44.4327C51.1771 50.3845 51.2814 56.6115 53.444 62.5396C55.6161 68.4963 59.4481 73.6134 63.7875 78.1663C65.9833 80.4711 68.3071 82.6622 70.6642 84.8011C72.5612 86.5226 75.1221 88.2394 77.7116 86.8451C78.8023 86.257 79.4805 85.1236 79.4568 83.881C79.4236 82.463 78.5462 81.1967 77.6357 80.1771C75.9568 78.2991 73.9033 76.6913 71.7644 75.3682C63.1757 70.066 51.9596 69.2266 42.7212 73.3147C37.8743 75.463 32.7381 79.2808 32.5911 85.0667C32.5484 86.774 32.8804 88.4765 33.1697 90.1554C33.4732 91.9101 33.7768 93.6649 34.0803 95.4243C34.6778 98.8816 35.2707 102.339 35.8682 105.792C36.4468 109.149 36.978 112.526 37.623 115.874C38.1304 118.511 38.837 121.262 40.4495 123.462C44.1107 128.461 50.7503 128.29 55.8864 125.89C58.6845 124.581 61.2407 122.746 63.6879 120.877C66.0212 119.094 68.2597 117.193 70.3796 115.163C74.6289 111.089 78.4087 106.517 81.6004 101.566C83.1512 99.1615 84.5455 96.6669 85.7976 94.0964C86.2718 93.129 84.8206 92.2753 84.3464 93.2475C79.5374 103.117 72.4473 111.781 63.8586 118.611C59.5809 122.011 54.3736 126.071 48.6209 125.876C45.9745 125.786 43.4326 124.69 41.8628 122.504C40.3784 120.436 39.7618 117.885 39.2923 115.424C38.0782 109.069 37.0918 102.661 35.9963 96.2875C35.4414 93.0626 34.6684 89.795 34.4028 86.5368C34.1562 83.549 35.1236 81.0592 37.253 78.9678C40.6392 75.6385 45.4718 73.7273 50.0863 72.921C54.734 72.1101 59.5809 72.4563 64.091 73.8221C68.6012 75.188 72.8078 77.6256 76.0849 81.0308C76.9006 81.8797 78.1526 83.2645 77.6594 84.5545C77.242 85.6405 75.7908 85.8302 74.8091 85.5457C73.486 85.1615 72.4521 84.1324 71.4609 83.2218C70.3606 82.2069 69.2651 81.1873 68.1838 80.1487C59.9887 72.2618 51.6134 61.6148 53.7286 49.4455C54.7198 43.7402 57.7502 38.7132 60.1642 33.5391C62.7109 28.0852 64.2855 22.3657 64.6411 16.3427C64.7313 14.7918 64.7407 13.2363 64.6696 11.6855C64.5937 10.0683 64.3471 8.45109 64.385 6.82914C64.442 4.36303 65.7509 1.11913 68.7909 1.67401C71.4656 2.16249 73.4053 4.75666 74.9751 6.76275C76.7393 9.01545 78.3281 11.4009 79.7651 13.8718C85.4324 23.6319 88.5957 34.7864 89.6343 46.0024C90.8246 58.8452 89.3118 71.7117 86.5848 84.2652C85.9161 87.3525 85.1763 90.4305 84.4744 93.5084C84.3037 94.2672 85.4039 94.5707 85.6411 93.8308Z" fill="#222222"/>
<path d="M61.5015 30.1192C58.8315 22.7873 53.9277 16.271 47.9142 11.3435C44.8884 8.86321 41.5686 6.75278 38.0117 5.11661C36.2001 4.28667 34.3363 3.5658 32.4298 2.98247C30.547 2.40862 28.6026 1.84426 26.6202 2.09562C24.5809 2.35646 22.6554 3.39507 21.4508 5.08341C20.4312 6.51565 20.1798 8.30833 20.3269 10.0299C20.5023 12.0502 21.0904 13.9994 21.3465 16.0055C21.6548 18.4573 21.6073 20.9519 21.356 23.4085C20.3316 33.3963 15.7313 42.8245 15.9922 52.983C16.1961 60.8982 19.7625 69.5439 27.8485 72.1807C29.7076 72.7878 31.7279 73.0486 33.6818 72.8636C35.3132 72.7119 37.5138 72.3467 38.78 71.2038C39.9989 70.1035 39.9088 68.0784 38.5761 67.1062C37.8315 66.5656 36.7929 66.3759 35.9061 66.2241C34.7584 66.0249 33.5965 65.9585 32.4345 65.9965C27.8675 66.1625 23.2672 67.6421 19.0796 69.3874C14.8587 71.1469 10.8655 73.4233 7.23273 76.2071C3.7944 78.844 0.602675 82.2017 0.0667695 86.6881C-0.19407 88.8697 0.313381 91.0228 1.51798 92.8582C2.64671 94.5797 4.18329 95.9598 5.68667 97.3493C9.03015 100.441 11.9278 103.946 14.2422 107.873C16.6277 111.914 18.0457 116.391 20.213 120.536C22.1006 124.14 24.8275 127.554 28.6642 129.176C32.0694 130.613 36.0151 130.172 38.8559 127.735C40.1317 126.639 41.0327 125.136 41.3078 123.471C41.4928 122.352 39.7807 121.873 39.5958 122.997C39.0551 126.25 35.7875 128.228 32.6479 128.237C29.0389 128.247 25.8851 125.705 23.8174 122.954C21.2706 119.568 19.919 115.466 18.1975 111.639C16.5281 107.935 14.4034 104.473 11.8614 101.305C10.562 99.6827 9.15346 98.1508 7.65007 96.7233C6.25577 95.3954 4.73342 94.1529 3.55253 92.621C2.33844 91.0512 1.67923 89.2443 1.82151 87.2477C1.96378 85.2464 2.84589 83.3446 4.04101 81.7559C6.49764 78.4883 10.23 76.0696 13.7253 74.0493C17.3011 71.9815 21.1141 70.3501 25.0789 69.1929C27.1324 68.5954 29.2381 68.0737 31.377 67.884C32.4156 67.7939 33.4637 67.7702 34.5023 67.8603C35.3464 67.9362 36.7977 68.0263 37.5043 68.5669C38.9792 69.6956 36.0104 70.5872 35.337 70.7627C33.6866 71.1895 31.9271 71.2227 30.253 70.924C22.5321 69.5391 18.5674 62.0744 17.9082 54.8278C17.0877 45.8075 20.6683 37.1856 22.3614 28.4736C23.234 23.9871 23.6703 19.3584 22.9352 14.8198C22.4468 11.7941 20.896 7.9147 23.4664 5.4059C26.4163 2.52244 30.7746 4.16336 34.1039 5.3727C37.4047 6.57256 40.5443 8.204 43.4562 10.1627C49.3511 14.1322 54.2929 19.5386 57.7027 25.7703C58.5469 27.3164 59.3199 28.9146 59.9981 30.5413C60.3775 31.4329 61.8477 31.082 61.5015 30.1192Z" fill="#222222"/>
<path d="M186.278 288.085C186.643 275.152 186.159 262.067 184.58 249.219C183.02 236.528 180.098 223.97 174.654 212.351C171.984 206.646 168.778 201.135 166.933 195.084C165.989 191.991 165.463 188.814 165.51 185.575C165.558 182.132 166.16 178.731 166.943 175.388C167.725 172.035 168.693 168.734 169.523 165.395C170.367 162.004 171.078 158.576 171.652 155.128C172.795 148.261 173.411 141.313 173.478 134.351C173.492 132.7 173.35 131.007 173.54 129.362C173.696 127.996 174.341 126.388 175.859 126.084C177.277 125.805 177.888 127.284 178.22 128.389C178.699 129.992 179.088 131.628 179.477 133.255C181.113 140.046 182.318 146.942 183.058 153.885C183.243 155.611 183.399 157.342 183.527 159.078C183.608 160.16 185.306 160.169 185.225 159.078C184.684 151.908 183.689 144.77 182.223 137.732C181.516 134.327 180.853 130.78 179.719 127.488C179.33 126.355 178.723 125.231 177.609 124.671C176.409 124.069 174.991 124.368 173.938 125.131C171.263 127.066 171.785 130.813 171.771 133.696C171.756 137.301 171.59 140.905 171.282 144.5C170.656 151.77 169.414 158.974 167.597 166.04C165.847 172.855 163.628 179.732 163.813 186.85C163.988 193.371 166.473 199.447 169.276 205.237C172.183 211.241 175.147 217.132 177.277 223.472C179.392 229.789 180.9 236.301 181.981 242.869C184.172 256.182 184.419 269.641 184.96 283.091C185.026 284.76 185.097 286.425 185.192 288.094C185.239 288.772 186.259 288.782 186.278 288.085Z" fill="#222222"/>
<path d="M239.981 276.931C237.42 272.79 234.665 268.788 232.275 264.538C229.932 260.374 227.812 256.087 225.882 251.724C221.95 242.837 218.778 233.627 215.927 224.336C212.849 214.301 210.047 204.014 209.7 193.462C209.53 188.24 210.061 183.081 211.137 177.978C212.167 173.107 213.575 168.327 214.893 163.527C216.364 158.163 217.715 152.752 218.303 147.213C218.797 142.565 218.588 137.476 215.401 133.763C214.68 132.924 213.475 134.142 214.192 134.972C217.051 138.306 217.028 143.087 216.587 147.213C216.055 152.183 214.86 157.054 213.561 161.867C210.919 171.632 207.908 181.307 207.946 191.527C207.988 202.032 210.545 212.347 213.542 222.354C216.302 231.564 219.366 240.698 223.122 249.552C225.223 254.498 227.537 259.359 230.15 264.059C232.768 268.764 235.595 273.516 239.185 277.552C239.569 277.979 240.285 277.419 239.981 276.931Z" fill="#222222"/>
<path d="M173.108 172.168C173.625 171.732 174.175 171.381 174.663 170.906C175.18 170.409 175.683 169.892 176.181 169.375C177.139 168.379 178.087 167.369 179.036 166.363C180.791 164.504 182.564 162.64 184.196 160.663C185.775 158.747 187.193 156.703 188.189 154.417C189.161 152.183 189.773 149.84 190.105 147.431C190.29 146.084 190.399 144.728 190.437 143.367C190.47 142.039 190.646 140.445 190.195 139.179C189.972 138.558 188.986 138.444 188.82 139.179C188.483 140.644 188.772 142.309 188.715 143.812C188.658 145.311 188.521 146.81 188.255 148.289C187.71 151.325 186.657 154.203 184.969 156.788C183.261 159.401 181.085 161.663 178.969 163.944C177.841 165.163 176.721 166.392 175.616 167.629C175.024 168.289 174.431 168.948 173.857 169.626C173.312 170.271 172.908 170.954 172.42 171.637C172.102 172.064 172.752 172.467 173.108 172.168Z" fill="#222222"/>
<path d="M213.684 132.838C210.692 131.32 208.861 128.432 206.22 126.474C204.859 125.463 203.256 124.828 201.544 124.866C199.305 124.918 197.256 125.957 195.264 126.867C193.187 127.82 191.029 128.57 188.8 129.087C187.672 129.348 186.533 129.547 185.386 129.694C184.466 129.812 183.55 129.917 182.687 130.287C181.065 130.984 180.226 132.639 180.909 134.332C181.663 136.205 183.598 137.348 185.324 138.202C189.573 140.298 194.477 140.82 199.073 139.677C198.755 139.549 198.432 139.416 198.115 139.288C199.409 141.844 201.52 143.921 204.105 145.164C204.105 144.675 204.105 144.187 204.105 143.698C196.393 147.725 195.606 157.276 192.888 164.551C191.276 168.877 188.426 172.253 185.144 175.426C182.042 178.423 178.756 181.274 176.299 184.849C173.634 188.729 172.026 193.751 173.515 198.385C173.857 199.452 175.512 199.011 175.204 197.92C172.723 189.099 180.596 182.355 186.192 176.891C189.208 173.946 192.068 170.769 193.79 166.87C195.487 163.02 196.265 158.875 197.65 154.915C199.016 151.021 201.178 147.132 204.958 145.159C205.499 144.879 205.527 143.969 204.958 143.694C202.606 142.565 200.756 140.753 199.575 138.43C199.405 138.093 198.968 137.951 198.617 138.041C194.937 138.956 191.048 138.69 187.515 137.31C185.917 136.684 184.029 135.816 182.943 134.432C182.479 133.843 182.104 133.014 182.654 132.35C183.124 131.785 184.01 131.633 184.689 131.52C186.624 131.188 188.544 130.965 190.446 130.453C192.4 129.921 194.288 129.201 196.123 128.356C197.868 127.555 199.708 126.587 201.676 126.583C203.151 126.578 204.46 127.232 205.589 128.138C208.079 130.135 209.919 133.189 213.163 134.047C213.879 134.237 214.372 133.189 213.684 132.838Z" fill="#222222"/>
<path d="M217.535 136.039C217.184 132.829 217.682 129.509 216.985 126.336C216.264 123.045 213.86 120.991 210.986 119.493C207.813 117.838 204.469 116.533 201.368 114.745C198.465 113.076 196.094 110.681 193.22 108.983C191.831 108.163 190.327 107.598 188.715 107.428C186.841 107.228 184.954 107.565 183.119 107.907C181.16 108.267 179.206 108.571 177.219 108.689C175.45 108.794 173.638 108.585 171.883 108.798C170.48 108.964 169.142 109.68 168.744 111.132C168.35 112.559 168.991 114.115 169.835 115.253C171.713 117.79 174.591 119.521 177.546 120.512C179.495 121.167 181.549 121.499 183.598 121.641C184.65 121.712 185.703 121.731 186.756 121.717C187.705 121.703 188.696 121.632 189.616 121.926C191.043 122.381 191.845 123.823 192.684 124.956C193.538 126.104 194.458 127.119 195.857 127.579C196.891 127.92 197.337 126.289 196.307 125.947C194.159 125.241 193.362 122.476 191.66 121.143C190.569 120.289 189.26 120.033 187.899 120.014C186.196 119.991 184.513 120.052 182.815 119.886C179.609 119.573 176.427 118.63 173.79 116.742C172.623 115.907 171.433 114.821 170.769 113.531C170.1 112.232 170.228 110.804 171.879 110.529C173.449 110.268 175.146 110.52 176.735 110.444C178.504 110.359 180.264 110.159 182.009 109.861C185.348 109.291 188.629 108.476 191.793 110.155C194.444 111.563 196.578 113.768 199.096 115.381C201.852 117.145 204.854 118.459 207.803 119.844C210.829 121.266 214.296 122.779 215.32 126.265C216.274 129.509 215.372 132.995 216.582 136.182C216.753 136.637 217.601 136.632 217.535 136.039Z" fill="#222222"/>
<path d="M189.896 129.841C190.351 128.413 190.294 126.896 190.19 125.416C190.086 123.913 189.868 122.409 189.559 120.934C189.374 120.057 188.047 120.432 188.222 121.304C188.502 122.722 188.696 124.14 188.829 125.582C188.957 127.009 188.938 128.437 189.256 129.841C189.327 130.173 189.801 130.139 189.896 129.841Z" fill="#222222"/>
<path d="M203.232 115.779C200.429 112.308 198.399 108.438 196.071 104.658C194.951 102.837 193.714 101.068 192.215 99.5312C190.527 97.7954 188.516 96.4058 186.486 95.1064C184.285 93.6931 182.056 92.313 179.842 90.9187C178.703 90.2026 177.57 89.4865 176.432 88.7751C175.512 88.2013 174.454 87.5468 173.316 87.746C171.277 88.1064 171.068 90.4255 171.191 92.1044C171.352 94.2764 171.941 96.3869 172.899 98.3455C173.928 100.461 175.417 102.381 177.228 103.88C178.903 105.265 181.264 106.422 181.914 108.656C182.199 109.628 183.716 109.215 183.436 108.238C182.92 106.446 181.592 105.227 180.159 104.127C178.58 102.917 177.058 101.741 175.863 100.129C174.668 98.5163 173.785 96.6904 173.273 94.7507C173.022 93.7974 172.856 92.8252 172.799 91.8388C172.756 91.1416 172.619 89.624 173.501 89.3537C174.402 89.0786 175.635 90.1836 176.323 90.6152C177.409 91.3029 178.499 91.9905 179.586 92.6735C181.691 94.0014 183.811 95.3198 185.907 96.6667C187.743 97.8476 189.535 99.0996 191.067 100.665C192.504 102.135 193.676 103.823 194.752 105.568C197.062 109.32 198.94 113.73 202.411 116.581C202.995 117.064 203.697 116.358 203.232 115.779Z" fill="#222222"/>
<path d="M61.0985 200.49C65.4 210.341 70.8823 219.721 77.906 227.888C84.2088 235.22 91.7447 241.58 100.243 246.218C104.986 248.807 110.027 250.842 115.258 252.208C116.041 252.412 116.373 251.202 115.59 250.998C106.347 248.584 97.763 244.046 90.2935 238.122C82.5442 231.976 76.009 224.431 70.7069 216.103C67.4155 210.938 64.589 205.489 62.1324 199.883C61.8241 199.181 60.7902 199.789 61.0985 200.49Z" fill="#222222"/>
<path d="M61.6345 200.007C59.1636 197.081 56.8113 194.107 54.8195 190.825C52.8845 187.638 51.2578 184.266 49.9252 180.785C46.9848 173.112 45.4719 164.969 44.8412 156.798C44.4665 151.937 44.4001 147.056 44.4997 142.186C44.1061 142.238 43.7172 142.29 43.3236 142.347C44.8269 146.435 48.0187 149.376 50.5939 152.776C53.0552 156.025 55.1609 159.539 56.9062 163.224C60.4678 170.722 62.4644 178.978 62.7395 187.273C62.8912 191.892 62.6162 196.64 61.7151 201.178C61.5823 201.847 62.6019 202.141 62.749 201.463C63.6406 197.356 64.186 193.249 64.1717 189.042C64.1528 184.859 63.7022 180.672 62.8486 176.579C61.1507 168.455 57.8357 160.644 53.0458 153.857C51.6846 151.927 50.1813 150.12 48.6542 148.323C47.0322 146.411 45.3581 144.415 44.4807 142.034C44.2531 141.418 43.3188 141.489 43.3046 142.195C42.9584 158.718 44.7321 175.929 53.2117 190.47C55.3554 194.145 57.8926 197.73 61.0322 200.623C61.44 200.989 61.9902 200.424 61.6345 200.007Z" fill="#222222"/>
<path d="M75.7624 222.477C71.8403 215.216 70.6642 206.988 71.6411 198.845C72.656 190.36 76.028 182.346 80.1777 174.947C82.5774 170.67 85.2617 166.562 87.9981 162.498C87.6045 162.332 87.2061 162.166 86.8125 162C85.4182 170.508 86.9737 179.059 86.8836 187.605C86.7935 195.961 84.3653 203.886 80.927 211.436C79.03 215.6 76.9575 219.721 74.7997 223.757C75.0463 223.691 75.2882 223.629 75.5348 223.563C61.6249 213.827 45.4671 205.072 27.9055 207.035C23.31 207.547 18.8188 208.804 14.6976 210.915C14.304 211.119 14.2755 211.801 14.6976 211.996C18.7951 213.86 22.4564 216.487 26.1982 218.958C29.7599 221.31 33.459 223.364 37.4617 224.867C45.1541 227.76 53.5768 228.751 61.7387 227.789C66.4101 227.238 70.9867 226.062 75.3261 224.246C76.0422 223.947 75.7245 222.766 75.0036 223.07C67.4487 226.233 59.1825 227.447 51.0349 226.717C42.6927 225.967 34.8439 223.098 27.8249 218.564C23.7226 215.913 19.7958 212.963 15.3378 210.919C15.3378 211.28 15.3378 211.64 15.3378 212.001C22.6793 208.268 31.0925 207.343 39.1975 208.401C47.6013 209.492 55.5829 212.755 62.9481 216.848C67.112 219.157 71.0957 221.78 75.0036 224.492C75.236 224.654 75.6106 224.54 75.7387 224.298C77.6831 220.651 79.6987 217.07 81.4582 213.324C83.1797 209.653 84.74 205.892 85.9162 202.008C87.0828 198.162 87.8511 194.197 88.0835 190.18C88.3301 185.874 88.0124 181.563 87.7515 177.266C87.4527 172.291 87.2346 167.283 88.0788 162.346C88.2021 161.625 87.3199 161.218 86.8931 161.848C77.2658 175.981 67.9846 192.248 70.3891 210.014C71.0104 214.604 72.4094 219.067 74.8803 223.008C75.2218 223.568 76.0802 223.07 75.7624 222.477Z" fill="#222222"/>
<path d="M62.265 200.22C58.7128 198.252 54.9709 196.654 51.4093 194.709C47.9188 192.808 44.5326 190.678 41.4832 188.117C35.4886 183.09 31.1824 176.436 28.3606 169.185C26.7766 165.116 25.6526 160.881 24.8511 156.598C24.5286 156.845 24.2062 157.096 23.8837 157.343C31.5239 160.705 38.8558 164.936 45.6661 169.754C46.2068 170.138 46.6857 169.266 46.1783 168.877C39.4913 163.764 32.2637 159.581 24.5476 156.2C24.0117 155.963 23.4663 156.347 23.5801 156.945C25.0408 164.703 27.5923 172.391 31.8511 179.087C36.2142 185.945 42.3179 191.095 49.3368 195.093C53.3537 197.379 57.5556 199.499 61.8808 201.121C62.412 201.316 62.7439 200.486 62.265 200.22Z" fill="#222222"/>
<path d="M99.3707 243.979C95.2637 236.766 92.4845 228.803 91.6593 220.518C90.8436 212.333 91.9249 204.071 94.6898 196.331C96.2548 191.949 98.389 187.795 101.007 183.949C100.599 183.839 100.196 183.73 99.788 183.617C101.614 199.874 106.65 216.435 102.724 232.782C101.718 236.965 100.111 240.982 97.7867 244.605C98.0286 244.506 98.2657 244.411 98.5076 244.311C89.0509 242.12 79.305 240.385 69.5639 240.973C61.4636 241.461 53.3682 243.614 46.4583 247.958C42.7259 250.306 39.4393 253.275 36.8025 256.813C36.5417 257.159 36.8167 257.719 37.2104 257.809C46.4867 259.985 56.0382 262.186 65.6276 261.456C73.6852 260.844 81.4676 258.07 88.3348 253.853C92.181 251.492 95.7569 248.703 98.9344 245.502C99.4608 244.971 98.6593 244.174 98.1139 244.681C92.3517 250.04 85.7786 254.541 78.3708 257.296C74.7095 258.658 70.8823 259.611 66.9982 260.028C62.3363 260.526 57.6222 260.284 52.9887 259.644C47.7815 258.923 42.6785 257.7 37.566 256.5C37.7036 256.832 37.8364 257.164 37.9739 257.496C42.5694 251.345 49.318 247.133 56.5504 244.767C64.8119 242.059 73.652 241.784 82.2407 242.713C87.6092 243.292 92.9114 244.34 98.1708 245.544C98.4601 245.611 98.7352 245.497 98.8917 245.25C107.77 231.341 105.83 214.106 103.335 198.655C102.529 193.652 101.676 188.653 101.097 183.617C101.026 182.976 100.262 182.72 99.8781 183.285C90.3551 197.327 87.5713 215.192 92.4893 231.445C93.8836 236.045 95.8802 240.456 98.4981 244.487C98.849 245.037 99.6979 244.553 99.3707 243.979Z" fill="#222222"/>
<path d="M112.977 128.911C114.86 130.258 117.763 129.642 119.598 128.504C120.11 128.186 120.594 127.806 121.016 127.37C121.457 126.915 121.756 126.355 122.173 125.89C122.738 125.269 123.52 125.535 124.269 125.596C124.962 125.649 125.659 125.672 126.356 125.663C132.099 125.601 137.681 123.604 142.177 120.048C142.865 119.502 141.893 118.544 141.214 119.085C136.87 122.518 131.336 124.392 125.801 124.287C125.104 124.273 124.412 124.23 123.719 124.159C123.126 124.098 122.557 124.003 121.983 124.235C120.945 124.653 120.513 125.852 119.731 126.583C118.887 127.375 117.796 127.901 116.672 128.148C115.515 128.404 114.348 128.233 113.181 128.167C112.75 128.138 112.683 128.698 112.977 128.911Z" fill="#222222"/>
<path d="M112.038 129.424C111.924 129.561 111.801 129.68 111.696 129.827C111.602 129.964 111.502 130.102 111.407 130.244C111.317 130.377 111.217 130.505 111.123 130.638C111.07 130.709 111.018 130.78 110.966 130.851C110.999 130.808 110.995 130.818 110.961 130.856C110.933 130.894 110.9 130.932 110.871 130.97C110.667 131.216 110.444 131.453 110.207 131.672C110.084 131.785 109.956 131.899 109.823 132.004C109.624 132.165 109.396 132.35 109.425 132.639C109.448 132.895 109.577 133.052 109.809 133.142C110.122 133.265 110.402 133.023 110.625 132.838C110.748 132.734 110.867 132.625 110.98 132.511C111.241 132.255 111.478 131.985 111.701 131.695C111.919 131.415 112.119 131.126 112.285 130.808C112.375 130.633 112.455 130.457 112.522 130.272C112.55 130.197 112.574 130.125 112.593 130.045C112.626 129.893 112.602 129.898 112.621 129.756C112.645 129.599 112.607 129.452 112.465 129.367C112.332 129.296 112.133 129.305 112.038 129.424Z" fill="#222222"/>
<path d="M114.703 106.232C114.703 106.232 118.118 104.226 120.276 105.578C122.433 106.925 116.837 107.769 114.703 106.232Z" fill="#222222"/>
<path d="M122.234 98.5115C122.083 98.5115 121.926 98.4688 121.788 98.3787C120.427 97.4871 118.896 96.8468 117.24 96.4769C116.804 96.3773 116.529 95.9458 116.624 95.5047C116.723 95.0684 117.16 94.7886 117.591 94.8882C119.436 95.3008 121.148 96.0169 122.675 97.0176C123.05 97.2642 123.154 97.7669 122.908 98.1416C122.756 98.3787 122.5 98.5115 122.234 98.5115ZM106.688 97.9993C106.532 97.9993 106.375 97.9566 106.242 97.8665C105.986 97.7005 105.849 97.4017 105.882 97.0982C105.972 96.292 106.039 95.4905 106.086 94.6843C106.114 94.2337 106.503 93.8875 106.944 93.9255C107.395 93.9539 107.732 94.3381 107.703 94.7838C107.684 95.1253 107.66 95.4668 107.632 95.8082C108.552 95.4051 109.52 95.0921 110.525 94.8692C110.966 94.7696 111.398 95.0494 111.492 95.4857C111.587 95.9221 111.312 96.3584 110.876 96.4532C109.52 96.752 108.249 97.2357 107.087 97.8902C106.963 97.9661 106.826 97.9993 106.688 97.9993ZM106.887 88.7846C106.461 88.7846 106.105 88.4573 106.076 88.0257C105.934 85.8157 105.654 83.5915 105.237 81.4147C105.152 80.9736 105.441 80.5468 105.882 80.4662C106.323 80.3808 106.75 80.6701 106.831 81.1111C107.257 83.3544 107.551 85.6497 107.694 87.9261C107.722 88.3719 107.381 88.7608 106.935 88.7893C106.921 88.7845 106.906 88.7846 106.887 88.7846ZM104.36 75.5197C104.018 75.5197 103.696 75.3015 103.587 74.9553C102.899 72.8354 102.079 70.7534 101.14 68.7568C100.95 68.349 101.125 67.8652 101.528 67.6755C101.936 67.4811 102.42 67.6566 102.61 68.0644C103.577 70.1227 104.426 72.2711 105.133 74.4526C105.27 74.8795 105.038 75.3395 104.611 75.477C104.526 75.5055 104.44 75.5197 104.36 75.5197Z" fill="#222222"/>
<path d="M128.821 82.382C128.105 82.382 127.394 82.3582 126.678 82.3108C126.232 82.2824 125.89 81.8935 125.924 81.4429C125.952 80.9924 126.327 80.6462 126.792 80.6889C128.968 80.8406 131.169 80.7458 133.369 80.4186C133.815 80.3616 134.228 80.6604 134.289 81.1015C134.356 81.5473 134.048 81.9599 133.602 82.0263C132.008 82.2634 130.401 82.382 128.821 82.382ZM140.037 80.3759C139.705 80.3759 139.392 80.1719 139.274 79.84C139.122 79.4179 139.34 78.9531 139.762 78.8013C141.825 78.052 143.831 77.0988 145.724 75.9606C146.108 75.7282 146.606 75.8515 146.838 76.2356C147.071 76.6198 146.947 77.1225 146.558 77.3501C144.576 78.5405 142.475 79.5459 140.317 80.3284C140.222 80.3616 140.127 80.3759 140.037 80.3759ZM151.562 73.4375C151.339 73.4375 151.121 73.3474 150.959 73.172C150.656 72.84 150.684 72.3278 151.016 72.0243C152.662 70.5304 154.142 68.88 155.422 67.1205C155.688 66.7601 156.19 66.6747 156.556 66.9403C156.921 67.2011 157.001 67.7133 156.736 68.0737C155.394 69.9233 153.838 71.6544 152.107 73.2241C151.955 73.3711 151.756 73.4375 151.562 73.4375Z" fill="#222222"/>
<path d="M315.986 249.277C314.966 251.25 313.429 252.91 311.75 254.366C311.333 254.731 310.883 255.101 310.66 255.613C310.498 255.955 310.456 256.348 310.408 256.728C310.1 259.203 309.436 261.736 307.795 263.619C305.742 265.971 302.526 266.9 299.463 267.55C296.745 268.124 293.985 268.57 291.211 268.446C288.431 268.323 285.638 267.602 283.357 266.013L283.352 266.018C284.011 267.123 284.761 268.176 285.581 269.172C282.081 269.177 278.6 270.177 275.627 272.018C275.209 272.278 274.797 272.558 274.398 272.847L274.474 272.957C276.623 277.528 274.825 283.2 271.339 286.857C266.398 292.045 258.198 293.819 251.549 291.13C250.491 290.698 249.405 290.106 248.86 289.1C248.684 288.778 248.495 288.365 248.129 288.346C247.94 288.341 247.764 288.446 247.612 288.555C244.919 290.286 241.755 291.277 238.554 291.391C236.553 291.457 234.471 291.168 232.778 290.096C232.583 289.973 232.398 289.84 232.218 289.707L232.109 290.158C227.101 292.652 220.476 291.305 216.843 287.042C215.264 285.202 214.23 282.565 215.197 280.341C210.033 281 204.626 277.737 202.81 272.857C201.724 269.931 201.852 266.701 202.17 263.604C202.279 262.566 202.397 261.513 202.198 260.503C201.989 259.483 201.387 258.482 200.434 258.089C199.329 257.629 197.645 257.771 197.375 256.604C197.299 256.282 197.38 255.945 197.47 255.623C199.519 248.02 204.882 241.367 211.882 237.748C213.338 236.984 214.951 236.344 216.582 236.529L216.615 236.524C216.44 235.823 216.312 235.116 216.312 234.395L215.544 234.39C211.65 233.911 208.06 231.398 206.277 227.907C204.489 224.407 204.565 220.03 206.457 216.596C206.571 216.388 206.694 216.179 206.684 215.942C206.67 215.638 206.433 215.396 206.234 215.169C204.911 213.694 204.332 211.598 204.712 209.653C205.162 207.334 206.855 205.432 208.776 204.057C212.94 201.069 218.484 200.107 223.416 201.482C222.904 199.068 222.553 196.445 223.644 194.231C224.455 192.594 225.944 191.413 227.466 190.394C231.18 187.914 235.728 186.073 240.077 187.14L240.489 187.567C241.276 186.225 242.604 185.13 244.075 184.57C246.65 183.584 249.519 183.878 252.232 184.376C254.1 184.717 255.945 185.158 257.705 185.86C259.412 186.543 261.005 187.458 262.589 188.374C264.477 189.474 266.369 190.565 268.266 191.651C268.347 191.632 268.423 191.598 268.494 191.57L268.371 191.039C271.297 187.482 276.115 185.571 280.687 186.164C285.259 186.756 289.427 189.829 291.358 194.017C291.433 194.188 291.505 194.354 291.585 194.525C291.808 195.032 292.064 195.53 292.467 195.9C292.904 196.303 293.473 196.512 294.018 196.758C298.59 198.788 301.886 203.218 303.057 208.074C304.229 212.94 303.408 218.157 301.312 222.7C300.606 224.232 299.676 225.754 298.509 226.973L299.32 227.177C305.301 230.696 311.945 233.878 315.592 239.783C316.18 240.741 316.683 241.755 316.948 242.856C317.456 244.99 316.996 247.299 315.986 249.277Z" fill="#EFE7DE"/>
<path d="M240.205 186.661C239.038 186.267 237.971 186.04 236.729 186.101C235.581 186.158 234.438 186.367 233.338 186.694C231.023 187.372 228.847 188.511 226.859 189.867C225.1 191.062 223.445 192.499 222.677 194.538C221.832 196.772 222.098 199.461 222.7 201.728C222.956 202.686 224.298 202.264 224.151 201.33C223.829 199.205 223.331 197.038 224.161 194.951C224.891 193.106 226.603 191.859 228.211 190.82C231.73 188.539 235.823 187.064 240.072 187.614C240.641 187.685 240.689 186.827 240.205 186.661Z" fill="#222222"/>
<path d="M224.198 201.225C220.902 199.499 216.558 199.84 213.124 200.969C209.738 202.079 206.106 204.289 204.541 207.632C203.744 209.33 203.559 211.246 204.137 213.048C204.398 213.864 204.797 214.632 205.323 215.311C205.423 215.439 205.811 215.775 205.835 215.922C205.859 216.055 205.674 216.33 205.631 216.416C205.408 216.895 205.176 217.364 204.986 217.857C203.616 221.438 203.952 225.678 205.93 228.969C207.955 232.341 211.612 234.783 215.548 235.168C216.421 235.253 216.629 233.773 215.757 233.626C212.551 233.076 209.624 231.502 207.756 228.775C205.774 225.882 205.299 222.135 206.381 218.811C206.632 218.033 207.078 217.355 207.353 216.596C207.633 215.832 207.381 215.268 206.883 214.675C205.731 213.295 205.138 211.531 205.522 209.733C206.229 206.404 209.577 204.095 212.541 202.895C214.315 202.179 216.198 201.78 218.109 201.676C220.087 201.567 222.012 201.884 223.966 202.112C224.431 202.16 224.592 201.434 224.198 201.225Z" fill="#222222"/>
<path d="M252.578 218.076C251.041 215.259 247.39 214.419 244.454 215.306C241.073 216.326 238.791 219.318 237.501 222.462C237.966 222.401 238.431 222.339 238.891 222.282C237.639 220.656 236.14 219.664 234.215 219C233.271 218.673 232.266 218.27 232.228 217.118C232.19 215.998 233.001 215.097 233.741 214.357C234.476 213.622 233.361 212.513 232.602 213.219C230.056 215.586 228.358 219.233 228.244 222.709C228.14 225.882 229.937 229.282 233.262 229.922C234.22 230.107 234.632 228.647 233.665 228.452C230.748 227.869 229.558 224.81 229.842 222.111C230.146 219.242 231.635 216.316 233.741 214.357C233.361 213.978 232.982 213.599 232.602 213.219C231.037 214.78 229.634 217.407 231.512 219.328C232.289 220.12 233.38 220.38 234.381 220.76C235.623 221.225 236.766 221.998 237.577 223.055C237.995 223.601 238.706 223.511 238.967 222.875C240.029 220.281 241.974 217.701 244.743 216.809C247.219 216.013 250.036 216.738 251.724 218.744C252.137 219.219 252.867 218.597 252.578 218.076Z" fill="#222222"/>
<path d="M231.977 228.761C228.235 231.948 227.006 237.34 226.954 242.064C226.926 244.682 227.187 247.423 228.391 249.789C229.449 251.871 231.27 253.569 233.404 254.503C235.993 255.632 239.323 255.751 241.832 254.328C242.491 253.953 242.054 252.834 241.305 253.081C239.773 253.588 238.294 253.967 236.662 253.82C235.235 253.692 233.869 253.19 232.678 252.402C230.174 250.743 228.937 248.001 228.605 245.089C227.964 239.432 229.344 233.911 232.669 229.297C232.977 228.865 232.332 228.457 231.977 228.761Z" fill="#222222"/>
<path d="M230.867 251.287C230.502 249.182 228.225 248.053 226.3 247.773C223.668 247.384 220.851 247.764 218.204 247.901C218.489 248.186 218.769 248.466 219.053 248.75C219.404 245.9 219.267 243.002 218.593 240.204C217.958 237.567 216.374 234.802 217.678 232.123C218.181 231.089 218.958 230.212 219.85 229.495C220.31 229.126 220.813 228.803 221.33 228.514C221.794 228.258 222.34 228.092 222.771 227.774C223.782 227.029 223.336 225.441 223.416 224.35C223.516 222.984 223.839 221.599 224.431 220.366C225.693 217.743 228.23 215.865 231.208 216.012C232.266 216.065 232.247 214.462 231.208 214.376C228.614 214.172 226.049 215.453 224.384 217.402C222.534 219.56 221.761 222.41 221.719 225.213C221.714 225.521 221.799 225.924 221.738 226.218C221.666 226.546 221.586 226.55 221.263 226.697C220.661 226.977 220.082 227.295 219.537 227.67C218.536 228.357 217.64 229.178 216.919 230.159C215.198 232.507 215.278 235.144 216.122 237.819C217.232 241.347 217.891 244.819 217.384 248.527C217.313 249.039 217.593 249.627 218.2 249.599C220.438 249.49 222.696 249.234 224.939 249.286C226.988 249.329 228.757 249.974 230.004 251.657C230.326 252.084 230.962 251.828 230.867 251.287Z" fill="#222222"/>
<path d="M216.743 235.936C214.315 235.576 212.082 236.69 210.042 237.904C208.15 239.028 206.386 240.38 204.792 241.902C201.657 244.904 199.229 248.575 197.645 252.611C197.062 254.095 195.668 256.798 197.451 257.96C198.176 258.435 199.059 258.449 199.865 258.705C201.046 259.075 201.458 260.275 201.506 261.418C201.563 262.693 201.306 263.983 201.216 265.254C201.126 266.563 201.098 267.882 201.216 269.191C201.42 271.458 202.032 273.691 203.332 275.584C205.93 279.378 210.607 281.673 215.207 281.137C214.946 280.796 214.685 280.454 214.424 280.113C212.66 284.471 216.625 288.896 220.281 290.703C224.109 292.595 228.661 292.709 232.517 290.836C233.442 290.385 232.631 289.014 231.711 289.46C228.481 291.02 224.545 290.94 221.315 289.408C218.223 287.943 214.481 284.31 215.985 280.549C216.165 280.094 215.695 279.468 215.202 279.525C211.403 279.97 207.571 278.348 205.172 275.375C202.217 271.709 202.743 267.042 203.066 262.665C203.208 260.768 202.876 258.529 201.041 257.515C200.377 257.145 199.613 257.078 198.893 256.884C198.561 256.794 198.224 256.727 198.129 256.362C198.02 255.968 198.38 255.238 198.504 254.844C199.689 250.965 201.804 247.366 204.536 244.368C206.049 242.708 207.747 241.214 209.611 239.962C211.645 238.597 214.054 237.103 216.577 237.136C217.246 237.145 217.436 236.04 216.743 235.936Z" fill="#222222"/>
<path d="M244.226 254.508C243.193 255.717 242.163 256.927 240.973 257.994C239.749 259.089 238.455 260.095 237.146 261.076C234.628 262.964 231.986 264.761 229.842 267.09C227.5 269.632 225.977 272.724 225.655 276.191C225.28 280.203 226.745 283.821 228.918 287.118C229.899 288.602 231.061 290.034 232.626 290.935C234.248 291.865 236.14 292.192 237.99 292.197C239.896 292.202 241.822 291.889 243.634 291.3C244.53 291.011 245.407 290.655 246.251 290.238C246.688 290.025 247.115 289.792 247.527 289.541C247.613 289.489 247.968 289.223 248.02 289.233C248.115 289.247 248.305 289.707 248.367 289.802C249.287 291.139 250.899 291.784 252.384 292.273C253.972 292.794 255.637 293.074 257.306 293.15C260.579 293.292 263.856 292.59 266.791 291.144C273.393 287.891 278.491 279.838 275.171 272.544C274.745 271.6 273.355 272.42 273.782 273.355C276.537 279.416 272.231 286.264 266.967 289.247C264.273 290.774 261.138 291.566 258.046 291.566C256.557 291.566 255.077 291.372 253.636 290.978C252.17 290.58 250.396 290.048 249.552 288.683C249.211 288.132 248.865 287.549 248.134 287.535C247.366 287.521 246.602 288.242 245.953 288.588C244.302 289.47 242.505 290.067 240.655 290.376C238.872 290.674 236.966 290.722 235.206 290.257C233.413 289.783 232.033 288.678 230.933 287.208C228.78 284.324 227.158 280.966 227.21 277.305C227.258 273.962 228.609 270.879 230.834 268.418C233.077 265.933 235.88 264.05 238.516 262.02C241.006 260.109 243.681 257.87 244.924 254.911C245.094 254.527 244.487 254.2 244.226 254.508Z" fill="#222222"/>
</g>
</svg>
