<svg width="239" height="318" viewBox="0 0 239 318" fill="none" xmlns="http://www.w3.org/2000/svg">
<g opacity="0.05">
<path d="M126.706 269.944C129.563 273.349 133.691 275.578 135.551 280.369C133.138 280.26 131.807 278.908 130.376 277.866C128.94 276.824 127.599 275.653 126.602 274.845C121.431 276.012 116.66 277.348 111.804 278.126C100.645 279.916 89.497 281.99 78.1393 282.064C60.3399 282.184 43.2735 278.679 26.91 271.674C24.462 270.627 21.9192 269.794 19.4412 268.807C18.5189 268.438 17.6663 267.915 16.2553 267.187C17.2674 266.474 17.8557 265.731 18.5288 265.636C20.6627 265.347 22.8266 265.163 24.9755 265.182C42.8995 265.312 60.8235 265.472 78.7476 265.661C91.6409 265.801 104.355 267.581 117.009 269.899C118.011 270.084 119.013 270.258 120.02 270.388C120.205 270.413 120.424 270.198 120.968 269.929C115.349 264.519 109.819 259.195 104.14 253.73C100.85 256.293 96.8511 256.946 92.8675 257.709C78.7825 260.396 64.7424 259.494 50.7472 257.125C39.1801 255.171 27.7925 252.504 17.1528 247.348C15.4476 246.521 13.7375 245.598 12.2716 244.422C11.4988 243.798 10.736 242.437 10.8955 241.585C11.0501 240.772 12.3165 239.934 13.2688 239.575C14.5501 239.092 15.996 239.042 17.3771 238.832C37.455 235.741 57.2038 237.78 76.7483 242.721C84.1422 244.591 91.4964 246.605 99.1596 248.63C98.8255 247.961 98.626 247.323 98.2421 246.825C95.9138 243.798 93.6003 240.757 91.1473 237.83C90.5042 237.062 89.3874 236.694 88.0711 235.881C88.0512 235.736 87.9315 234.884 87.8068 234.021C74.9135 233.732 63.8151 228.193 52.7116 222.898C37.4101 215.598 23.9982 205.597 12.2367 193.382C9.67896 190.724 7.11131 188.067 4.55857 185.404C3.85557 184.671 3.15755 183.929 2.49443 183.156C1.592 182.099 0.315583 180.977 1.3277 179.501C2.3149 178.06 3.80571 178.609 5.11698 179.242C8.77657 181.007 12.5109 182.642 16.0758 184.587C37.7442 196.403 58.8093 209.192 78.8324 223.651C79.6052 224.209 80.4777 224.638 81.7391 224.698C80.8516 223.356 79.9492 222.025 79.0767 220.674C75.7013 215.429 72.3658 210.154 68.9405 204.939C68.3572 204.046 67.4996 202.934 66.5921 202.73C62.758 201.858 59.5322 199.853 56.431 197.64C38.8809 185.14 24.6564 169.529 13.4483 151.152C10.8656 146.914 8.4724 142.556 6.01439 138.243C5.64045 137.585 5.21669 136.892 5.107 136.169C5.02722 135.641 5.27153 134.838 5.66541 134.534C6.05929 134.235 6.97166 134.155 7.3805 134.419C8.54718 135.172 9.65903 136.055 10.6263 137.047C14.4454 140.966 18.2995 144.855 21.9541 148.928C34.7029 163.133 48.0898 176.779 59.8962 191.816C60.2452 192.265 60.7188 192.614 61.5415 192.664C61.1227 191.811 60.7238 190.944 60.2851 190.101C56.2266 182.308 52.1731 174.52 48.0898 166.742C47.5662 165.745 47.0128 164.673 46.2051 163.925C35.9094 154.328 28.2312 142.87 22.2383 130.216C18.2347 121.765 15.6819 112.851 13.902 103.697C13.2489 100.326 12.5209 96.9658 11.8428 93.6004C11.6683 92.7328 11.3941 91.8254 11.4988 90.9729C11.5736 90.3397 12.0672 89.4422 12.5907 89.2527C13.1491 89.0483 14.2011 89.3176 14.605 89.7663C15.4376 90.6936 16.1057 91.8254 16.6192 92.9771C20.3387 101.353 24.0083 109.749 27.6878 118.141C28.3509 119.646 28.9941 121.162 30.1757 122.598C30.1009 121.87 30.1258 121.117 29.9413 120.414C25.3145 102.724 24.5567 84.7505 25.8979 66.6121C26.1023 63.8201 26.2269 61.018 26.4064 58.226C26.4712 57.2089 26.5311 56.1918 26.6807 55.1846C26.8851 53.7786 27.1443 52.2729 28.8445 51.9538C30.7092 51.6048 31.7512 52.941 32.2698 54.3919C33.5112 57.852 34.8275 61.3271 35.5803 64.912C37.5497 74.3003 37.4799 83.878 37.6893 93.4159C37.9785 106.768 38.148 120.125 38.3724 133.482C38.3774 133.861 38.3026 134.28 38.4272 134.619C40.0277 139.131 41.658 143.633 43.2784 148.135C43.5327 148.066 43.787 147.991 44.0413 147.921C43.9416 146.684 43.8917 145.448 43.7371 144.216C42.1417 131.383 42.6752 118.554 43.8917 105.736C44.3754 100.665 44.9637 95.6047 45.542 90.5441C45.6866 89.2827 45.7664 87.9465 46.255 86.8147C46.609 85.997 47.5413 85.0198 48.3291 84.9101C49.0869 84.8054 50.2985 85.5134 50.7622 86.2263C51.6446 87.5925 52.2479 89.178 52.7764 90.7335C54.8057 96.7165 55.025 102.979 55.3242 109.196C56.1967 127.26 55.9325 145.318 54.8506 163.367C54.8356 163.621 54.8505 163.891 54.7708 164.125C53.1604 168.886 54.7907 172.935 57.2537 176.978C60.0906 181.645 62.5935 186.511 65.8044 191.128C65.6598 190.226 65.6 189.298 65.3607 188.421C61.3172 173.887 60.4397 159.089 61.9354 144.142C62.8478 135.023 64.0694 125.933 65.261 116.839C65.5551 114.586 66.0587 112.307 66.8564 110.183C67.6841 107.979 69.5737 107.9 70.8002 109.929C71.578 111.22 72.1214 112.686 72.5751 114.137C76.5139 126.617 78.7775 139.42 78.0446 152.488C77.1322 168.747 75.4569 184.956 74.3252 201.204C74.1556 203.618 74.5147 206.499 75.7262 208.494C78.9421 213.809 82.7612 218.759 86.3111 223.82C86.2413 223.292 86.1964 222.569 86.0418 221.871C82.9257 207.442 82.4421 192.888 83.8381 178.215C84.94 166.658 86.7548 155.22 89.3026 143.902C90.2549 139.684 91.4913 135.526 92.6431 131.353C92.9123 130.376 93.2015 129.329 93.7799 128.531C94.3881 127.688 95.3703 126.542 96.1581 126.562C97.0057 126.582 98.2073 127.649 98.5812 128.541C99.4039 130.515 100.152 132.639 100.311 134.748C100.92 142.855 101.583 150.982 101.677 159.104C101.837 173.289 99.8925 187.299 97.2749 201.214C95.5349 210.478 93.6153 219.707 91.8603 228.965C91.636 230.147 91.4814 231.688 92.0348 232.615C95.4202 238.264 99.5584 243.365 104.39 248.091C104.365 247.498 104.4 246.895 104.305 246.316C101.752 230.471 102.216 214.606 104.071 198.751C104.779 192.684 105.885 186.661 106.873 180.628C109.61 163.94 114.815 147.996 121.471 132.5C122.374 130.401 123.166 128.217 124.343 126.277C126.033 123.49 128.561 123.585 129.753 126.582C130.725 129.02 131.418 131.727 131.493 134.34C131.677 140.816 131.737 147.328 131.308 153.789C130.481 166.244 129.503 178.713 126.562 190.889C122.139 209.207 117.921 227.594 111.121 245.234C110.054 247.996 108.752 250.609 109.829 253.645C110.074 254.338 110.208 255.196 110.692 255.655C114.177 258.975 117.737 262.211 121.955 266.095C122.109 261.732 122.379 258.252 122.339 254.777C122.099 234.51 126.058 215.115 133.622 196.313C139.405 181.934 147.303 168.782 155.474 155.734C156.197 154.582 157.13 153.56 158.531 151.74C159.094 154.004 159.752 155.489 159.782 156.995C159.872 161.183 160.181 165.446 159.558 169.554C154.527 202.76 145.388 234.704 129.817 264.619C128.91 266.314 127.883 267.925 126.706 269.944ZM108.358 243.414C109.46 239.645 110.462 236.434 111.34 233.188C117.607 209.95 124.373 186.805 125.973 162.604C126.562 153.719 126.98 144.82 127.339 135.92C127.429 133.746 126.975 131.552 126.716 128.77C113.738 147.547 102.011 221.048 108.358 243.414ZM156.865 158.366C134.574 189.807 125.599 225.191 125.584 263.243C141.634 229.948 152.184 195.027 156.865 158.366ZM24.5916 268.807C34.1145 273.25 55.5485 278.136 71.6278 279.392C86.4557 280.549 112.202 277.258 118.41 273.06C108.363 271.235 98.4316 268.897 88.2057 268.852C67.1406 268.762 46.0755 268.817 24.5916 268.807ZM14.0366 241.759C29.8616 252.972 68.7111 258.108 96.2528 251.417C83.524 248.435 70.7603 245.633 57.9717 242.941C47.5713 240.752 37.0312 240.448 26.4563 240.912C22.313 241.091 18.1749 241.47 14.0366 241.759ZM88.6145 220.684C88.9785 220.744 89.3424 220.809 89.7064 220.868C91.9401 201.02 94.4729 181.196 96.2728 161.313C97.0605 152.613 96.4024 143.778 96.2977 135.008C96.2828 133.756 96.537 132.236 95.126 130.954C94.8318 131.817 94.5776 132.375 94.4529 132.958C92.2641 143.159 89.8261 153.316 87.9863 163.581C85.7626 176.001 84.6259 188.55 85.648 201.199C86.1815 207.766 86.8895 214.307 88.6145 220.684ZM72.296 197.555C72.3907 197.066 72.5552 196.578 72.5801 196.084C73.3081 181.994 74.2703 167.914 74.6542 153.814C74.9634 142.367 73.9762 130.954 71.3536 119.746C70.9647 118.091 70.3864 116.475 69.8977 114.84C69.0053 116.226 68.6463 117.517 68.5067 118.834C67.5545 127.683 66.5373 136.533 65.7645 145.403C64.9269 155.041 64.7075 164.688 65.9839 174.326C67.0309 182.268 68.6613 190.051 72.296 197.555ZM8.44248 184.502C18.2646 195.75 29.1187 205.791 42.0819 213.39C55.1447 221.043 76.6635 229.579 83.5041 229.718C59.622 212.702 34.6679 197.625 8.44248 184.502ZM49.8797 92.5633C49.5057 92.5633 49.1268 92.5633 48.7529 92.5633C48.1147 101.039 47.3269 109.51 46.8633 117.996C46.0755 132.51 46.8383 146.934 50.0243 161.168C50.5129 163.352 51.0065 165.526 52.9909 167.755C53.0208 166.149 53.0556 165.162 53.0606 164.175C53.0855 156.561 53.0307 148.943 53.1404 141.33C53.3398 127.354 53.0905 113.399 51.3156 99.5136C51.0114 97.1752 50.3683 94.8768 49.8797 92.5633ZM35.3261 124.582C35.336 124.094 35.371 123.605 35.346 123.121C34.8225 110.926 34.4137 98.7258 33.7206 86.5405C33.3068 79.316 32.4742 72.1165 31.7512 64.912C31.6066 63.496 31.0931 62.1149 30.7491 60.7139C26.9598 75.6315 29.6273 112.442 35.3261 124.582ZM56.8349 193.347C49.2415 182.647 17.417 148.12 13.3236 145.837C24.786 164.778 38.9408 180.812 56.8349 193.347ZM42.9444 156.237C34.5981 139.021 26.2469 121.8 17.9006 104.584C21.6799 123.989 30.061 141.195 42.9444 156.237Z" fill="#948976"/>
<path d="M228.432 47.4519C238.04 51.2012 247.189 56.1222 255.63 62.0703C264.066 68.0134 271.799 74.9936 278.43 82.931C285.036 90.8734 290.531 99.808 294.235 109.49C296.085 114.327 297.491 119.342 298.344 124.463C299.191 129.583 299.495 134.794 299.241 139.979C298.747 150.339 296.01 160.675 290.82 169.734C288.217 174.246 285.016 178.439 281.272 182.074C279.387 183.879 277.418 185.594 275.319 187.14C273.22 188.685 271.041 190.116 268.778 191.408C266.504 192.674 264.166 193.821 261.777 194.853C259.379 195.86 256.941 196.752 254.468 197.54C251.99 198.313 249.477 198.966 246.95 199.539C244.417 200.103 241.864 200.537 239.301 200.896C236.734 201.245 234.161 201.494 231.583 201.673C229.001 201.838 226.418 201.928 223.835 201.943C221.253 201.933 218.67 201.858 216.092 201.713C213.515 201.559 210.947 201.334 208.384 201.035L208.399 200.896C210.967 201.085 213.54 201.225 216.112 201.304C218.685 201.369 221.258 201.369 223.825 201.299C226.393 201.22 228.961 201.085 231.519 200.861C234.076 200.621 236.624 200.322 239.157 199.923C249.268 198.323 259.245 195.326 268.08 190.191C276.929 185.14 284.523 177.871 289.623 169.041C294.769 160.236 297.551 150.12 298.124 139.924C298.408 134.818 298.144 129.683 297.341 124.632C296.539 119.582 295.182 114.616 293.388 109.82C289.788 100.217 284.408 91.3172 277.897 83.3847C271.385 75.4373 263.747 68.4223 255.391 62.4243C247.034 56.4214 237.945 51.4256 228.387 47.5915L228.432 47.4519Z" fill="#948976"/>
<path d="M219.324 22.3381C226.194 27.304 233.05 32.3048 239.586 37.7194C241.206 39.0905 242.847 40.4367 244.417 41.8626C245.205 42.5706 246.013 43.2636 246.785 43.9916L249.094 46.1853C249.877 46.9033 250.615 47.6661 251.357 48.4289C252.1 49.1918 252.848 49.9397 253.581 50.7125L255.715 53.0807C256.069 53.4746 256.433 53.8685 256.777 54.2673L257.789 55.4988L259.808 57.9718L261.698 60.5445L262.64 61.8308L263.513 63.167L265.258 65.8444L266.833 68.6265L267.621 70.0176L268.319 71.4585L269.71 74.3403L270.902 77.3118L271.495 78.7976C271.675 79.3012 271.829 79.8097 271.994 80.3183L272.487 81.8439L272.732 82.6068C272.806 82.861 272.866 83.1253 272.936 83.3796L273.734 86.4807L274.347 89.6218C275.075 93.8298 275.429 98.0977 275.439 102.371C275.434 106.643 275.035 110.906 274.357 115.119C274.163 116.171 274.018 117.228 273.789 118.27L273.096 121.396C272.552 123.461 272.024 125.535 271.341 127.559C270.009 131.617 268.454 135.611 266.534 139.425C264.62 143.244 262.471 146.939 260.113 150.494C257.714 154.024 255.107 157.404 252.35 160.65C249.592 163.896 246.656 166.987 243.56 169.909C240.473 172.83 237.272 175.642 233.942 178.275C230.601 180.897 227.181 183.415 223.651 185.768L223.571 185.654C226.972 183.126 230.312 180.523 233.538 177.781C236.784 175.069 239.895 172.197 242.882 169.211C248.88 163.262 254.314 156.756 258.951 149.721C263.558 142.676 267.412 135.122 270.029 127.125C270.722 125.141 271.266 123.107 271.819 121.077L272.532 118.006C272.772 116.984 272.926 115.942 273.126 114.91C273.834 110.767 274.272 106.569 274.322 102.361C274.347 98.1526 274.033 93.9445 273.35 89.7963L272.772 86.6951L272.009 83.6338C271.944 83.3796 271.884 83.1203 271.814 82.871L271.58 82.1181L271.106 80.6124C270.947 80.1139 270.797 79.6053 270.628 79.1117L270.054 77.6409L268.908 74.6993L267.556 71.8424L266.878 70.4164L266.11 69.0354L264.575 66.2732L262.87 63.6108L262.017 62.2796L261.09 60.9982L259.235 58.4305L257.251 55.9625L256.259 54.726C255.919 54.3222 255.561 53.9333 255.216 53.5344L253.117 51.1562C252.399 50.3834 251.657 49.6255 250.929 48.8627C250.201 48.0949 249.473 47.3321 248.7 46.6041L246.421 44.3954C245.659 43.6625 244.861 42.9645 244.083 42.2515C242.533 40.8106 240.912 39.4495 239.312 38.0634C232.85 32.589 226.049 27.5134 219.239 22.4728L219.324 22.3381Z" fill="#948976"/>
<path d="M86.7851 300.168C86.7851 300.168 100.097 293.163 110.607 279.497C121.117 265.831 124.508 249.308 124.508 249.308C124.508 249.308 116.127 247.473 113.15 247.842C103.597 249.018 99.7433 259.883 99.7433 259.883C99.7433 259.883 82.1732 238.085 80.8221 237.461C79.4759 236.838 87.5928 217.922 83.6889 216.506C79.79 215.09 75.7615 212.413 75.7615 212.413C75.7615 212.413 81.5201 192.619 77.317 173.349C73.114 154.078 74.864 140.766 74.515 137.964C74.166 135.162 65.5854 98.1225 67.51 92.0697C69.4345 86.0169 64.7079 72.1015 72.416 48.6233C80.1241 25.15 87.8321 17.7909 89.5821 16.3899C91.3322 14.9889 95.4904 13.6577 95.4904 13.6577C95.4904 13.6577 101.777 11.3493 106.05 6.57783C110.318 1.81138 112.706 -6.73432 120.415 -10.5884C128.123 -14.4424 145.992 -14.0934 149.846 -11.9894C153.7 -9.88536 159.653 -5.94157 161.483 -5.9316C163.313 -5.91665 169.814 -3.23427 173.668 -2.18226C177.522 -1.13025 189.782 -0.781247 193.287 0.270761C196.792 1.32277 197.49 7.27584 202.047 7.97884C206.604 8.68184 214.283 8.12343 217.115 11.1299C219.946 14.1363 227.974 33.5511 227.974 33.5511L239.96 59.617C239.96 59.617 240.712 65.256 238.195 65.8692C235.677 66.4825 226.922 77.3416 226.573 78.7426C226.224 80.1436 222.719 88.2007 222.719 88.2007C222.719 88.2007 241.64 111.674 242.687 117.278C243.739 122.882 241.984 130.59 239.536 139.35C237.083 148.11 232.207 159.274 231.828 163.527C231.449 167.779 226.573 183.146 225.521 184.901C224.469 186.651 219.563 201.718 218.865 203.468C218.162 205.218 215.714 228.342 215.011 231.144C214.308 233.946 211.156 242.357 208.703 244.81C206.25 247.263 190.485 262.331 190.485 262.331C190.485 262.331 193.078 277.004 202.82 283.505C212.557 290.007 247.244 298.418 247.244 298.418L198.896 300.168C198.896 300.168 187.334 296.314 182.782 300.871C178.225 305.428 176.395 310.145 172.058 310.763C167.715 311.381 157.559 320.49 152.304 317.339C147.049 314.188 138.638 302.626 133.737 302.272C128.831 301.923 102.206 298.418 102.206 298.418L86.7851 300.168Z" fill="#F9EFE0"/>
<path d="M113.449 99.1699C118.305 94.8472 123.6 91.2574 130.092 89.9362C137.541 88.4155 145.074 87.9219 152.663 88.5152C153.286 88.5651 153.919 88.5202 154.861 88.5202C153.271 87.0245 151.895 85.6534 150.429 84.377C145.453 80.0443 141.215 75.0585 137.451 69.6738C136.997 69.0256 136.618 68.8511 135.955 68.8661C130.411 68.9858 125.255 67.5598 120.399 64.9472C119.841 64.6481 119.312 64.2841 118.629 64.693C113.509 67.7742 108.174 70.5164 103.782 74.6945C99.8976 78.389 97.7188 83.0508 96.4673 88.0914C94.4481 96.2433 92.1845 104.29 89.2529 112.178C86.7001 119.048 86.1766 126.298 86.6353 133.627C87.2037 142.746 87.9316 151.86 88.2956 161.034C88.5947 159.763 88.8141 158.461 89.2179 157.225C89.916 155.076 91.6909 153.73 93.5457 153.805C94.1938 153.83 94.8719 153.884 95.1661 154.577C95.4802 155.32 94.9666 155.874 94.4381 156.168C91.661 157.708 91.4865 160.391 91.2522 163.088C90.6838 169.59 92.5635 175.667 94.4182 181.755C95.53 185.395 96.6269 189.044 97.7138 192.689C97.8434 193.128 98.2772 193.691 97.5742 194.005C96.9859 194.27 96.6418 193.761 96.3128 193.387C95.6397 192.604 95.2707 191.647 94.8918 190.705C92.1895 184.019 90.4993 177.048 89.0385 170.009C88.9138 169.41 88.9537 168.757 88.4502 168.154C88.2258 173.578 88.7892 178.933 87.8618 184.592C86.9843 183.206 86.9794 181.88 86.8946 180.648C85.7927 164.215 85.5035 147.732 83.8133 131.333C83.0904 124.348 84.0028 117.438 86.3711 110.832C88.9537 103.637 91.2223 96.3779 92.6781 88.8593C93.3662 85.2994 94.7672 81.924 96.3925 78.6632C99.7779 71.8726 105.611 67.7942 112.113 64.4487C113.299 63.8404 114.516 63.287 115.713 62.6986C115.802 62.6538 115.847 62.5042 115.962 62.3247C114.516 61.1131 113.04 59.9116 111.609 58.6701C106.314 54.0682 102.171 48.514 98.5713 42.5509C97.7437 41.1798 97.0657 41.0851 95.7344 41.7432C89.8412 44.645 87.1738 48.7882 88.3155 55.9428C89.8911 65.8547 89.0784 75.597 87.8918 85.414C87.443 89.0986 86.7998 92.808 87.5228 96.672C85.8824 96.3978 85.673 95.0965 85.3539 94.0196C84.1623 90.0259 84.3568 85.8977 84.9102 81.8891C86.1417 73.0492 85.9024 64.2841 84.8055 55.4542C83.7136 46.6642 88.3405 40.5915 95.2957 38.5673C95.6447 38.4675 96.1931 38.4625 96.0436 37.9291C95.3854 35.5558 96.0884 33.0629 95.1411 30.6647C94.3583 28.6804 94.119 26.4766 93.6803 24.3626C93.1269 21.7102 93.0919 19.0627 93.8298 16.4302C93.8946 16.3454 93.9595 16.2657 94.0293 16.1809C93.8847 16.1759 93.7351 16.1759 93.5905 16.1709C88.0214 18.6788 84.1673 22.9816 81.131 28.117C77.3816 34.4589 75.8909 41.5737 74.1059 48.5937C70.9798 60.8639 69.1849 73.2935 69.4491 85.9874C69.6087 93.8451 70.8801 101.578 72.0966 109.311C74.4749 124.418 75.6815 139.65 77.0925 154.857C78.2741 167.595 79.4557 180.334 79.6801 193.138C79.7898 199.52 79.1067 205.842 78.3189 212.159C78.1494 213.515 78.4585 214.407 79.8097 215.065C80.8069 215.549 81.126 213.575 82.0733 214.686C82.5968 215.3 82.8262 216.172 83.7086 216.486C88.2308 218.102 92.0698 220.764 95.3954 224.194C95.4851 224.284 95.5749 224.379 95.6845 224.444C96.7565 225.102 97.9032 226.254 99.1148 225.58C100.306 224.917 99.7829 223.362 99.6583 222.22C99.1248 217.159 97.7736 212.218 97.3199 207.143C97.1604 205.348 97.2102 203.588 97.5941 201.833C97.7587 201.08 98.0578 200.397 99.1049 199.953C98.9852 203.608 99.6234 207.058 100.157 210.528C100.745 214.362 101.962 218.077 102.236 221.961C102.381 223.98 102.759 226.229 100.695 227.515C98.4766 228.901 96.3577 227.784 94.473 226.558C92.7729 225.451 91.2572 224.06 89.6019 222.878C88.1011 221.806 86.5356 220.829 84.7756 220.206C84.2571 219.981 84.1922 220.171 84.4066 220.61C85.3838 225.964 84.257 231.135 82.9208 236.255C82.4322 238.13 82.7214 239.212 84.4366 240.353C89.1133 243.465 92.2693 248.136 95.9837 252.225C97.3399 253.716 98.5564 255.331 100.057 257.156C101.767 252.11 105.965 250.056 109.784 247.578C110.183 247.319 111.614 247.259 110.358 246.137C109.944 245.768 110.338 245.24 110.886 245.275C112.397 245.369 112.108 244.467 111.928 243.564C110.637 237.138 109.076 230.761 108.772 224.17C108.678 222.145 108.772 220.171 109.969 218.226C110.552 220.515 111.23 222.783 111.699 225.092C113.035 231.693 114.84 238.215 115.319 244.975C115.369 245.678 115.733 245.938 116.326 246.162C117.453 246.586 118.584 247.034 119.656 247.578C120.853 248.186 121.142 247.862 121.167 246.571C121.277 240.947 120.384 235.403 119.985 229.823C119.731 226.284 118.425 223.816 115.578 221.612C107.247 215.17 103.108 206.066 100.331 196.214C100.127 195.486 99.8726 194.768 99.6234 194.05C99.4937 193.676 99.3591 193.218 99.7231 193.013C100.212 192.734 100.521 193.143 100.765 193.557C101.089 194.105 101.453 194.624 101.767 195.177C103.821 198.772 105.457 202.566 107.177 206.325C110.024 212.533 114.601 217.219 119.721 221.657C125.031 226.254 131.253 229.529 136.518 234.131C137.261 234.779 138.059 235.373 138.189 236.634C132.714 233.294 127.24 229.953 121.486 226.443C122.089 229.355 122.683 231.997 123.181 234.66C124.084 239.491 124.353 244.377 124.513 249.283C124.807 258.367 122.728 266.778 117.772 274.417C114.73 279.098 110.632 282.873 106.748 286.816C103.931 289.668 101.034 292.455 97.6739 294.679C96.9859 295.138 96.3377 295.876 95.2409 295.611C95.5649 294.44 96.6967 294.17 97.3648 293.458C102.839 287.589 108.383 281.766 113.349 275.474C118.54 268.897 121.008 261.184 121.162 252.758C121.182 251.626 120.838 250.993 119.766 250.629C117.498 249.866 115.623 248.271 113.155 247.812C111.888 247.578 111.071 247.802 110.248 248.54C106.908 251.547 103.248 254.244 102.032 259.005C101.528 260.96 99.8826 261.025 98.3719 259.379C94.7971 255.485 91.2372 251.582 87.6973 247.658C85.8974 245.663 83.9978 243.794 81.6944 242.378C79.5654 241.071 78.8674 239.172 79.4856 236.804C80.2883 233.727 81.1808 230.681 81.9835 227.605C82.6217 225.172 82.5819 222.699 82.2827 220.216C82.178 219.348 81.824 218.81 81.0013 218.531C80.398 218.326 79.8346 218.022 79.2413 217.803C76.7235 216.86 75.492 215.18 75.7762 212.378C76.1352 208.833 76.3545 205.273 76.5739 201.718C77.1523 192.534 76.17 183.4 75.4421 174.271C74.2056 158.731 72.8345 143.195 71.4435 127.664C70.6408 118.719 69.1849 109.855 67.6692 101.005C64.6628 83.4097 66.2134 66.1189 70.94 49.0225C72.6152 42.9598 73.9464 36.7923 76.5739 31.0237C78.9272 25.8634 81.9087 21.1468 86.4309 17.6168C88.8091 15.7621 91.1924 13.698 94.6076 14.2364C95.0663 14.3112 95.2807 13.9173 95.4951 13.6232C96.5721 12.1623 97.993 11.0904 99.4937 10.1132C102.73 8.00416 105.537 5.4564 107.795 2.30536C108.164 1.79182 108.558 1.26831 109.042 0.869441C109.59 0.420717 110.014 -0.780866 110.747 -0.272312C111.42 0.196356 110.537 1.07386 110.323 1.77188C108.688 7.05186 105.163 10.7314 100.476 13.4487C96.7466 15.6125 95.3355 18.8084 95.9438 23.1012C96.6169 27.8378 98.003 32.3898 99.0849 37.0216C99.2095 37.5601 99.3492 38.0039 99.9674 38.0936C100.311 38.1435 100.71 38.3578 100.596 38.662C99.8378 40.6613 101.613 41.479 102.485 42.6257C106.384 47.7561 110.557 52.6323 115.673 56.6359C122.229 61.7713 129.563 64.7179 137.929 65.2015C142.561 65.4708 147.213 65.5705 151.8 66.4081C152.029 66.448 152.244 66.5427 152.488 66.8419C148.275 69.1902 143.578 68.7215 138.882 68.9608C147.796 77.9503 156.676 86.6555 167.166 93.531C177.288 100.162 185.28 108.688 190.4 119.781C192.429 124.174 194.489 128.561 196.129 133.103C199.365 142.068 204.71 149.826 209.77 157.753C209.86 157.893 210.039 157.973 210.732 158.521C210.732 155.37 210.747 152.683 210.727 150C210.623 136.02 207.068 123.107 198.991 111.54C194.628 105.288 190.311 98.9805 187.588 91.766C187.254 90.8835 186.96 89.986 186.666 89.0886C186.636 88.9939 186.726 88.8543 186.766 88.7196C187.548 88.4554 187.563 89.2132 187.738 89.5573C191.781 97.395 196.907 104.52 202.276 111.465C211.675 123.605 215.833 137.232 214.272 152.538C214.078 154.463 215.708 155.041 216.75 155.315C219.223 155.963 220.36 157.519 220.938 159.753C221.592 162.276 221.512 164.848 220.948 167.336C219.343 174.421 217.229 181.346 214.118 187.933C213.465 189.319 212.637 190.615 211.52 191.677C210.897 192.27 210.284 192.978 209.032 192.829C210.005 190.924 211.007 189.149 211.844 187.294C215.489 179.202 216.671 170.617 216.611 161.842C216.596 159.344 215.838 158.905 213.749 159.264C212.851 159.419 212.423 160.067 212.079 160.69C211.48 161.767 211.042 161.707 210.169 160.924C206.749 157.878 204.236 154.119 201.748 150.344C200.93 149.103 200.407 148.749 198.976 149.661C195.695 151.765 192.011 153.062 188.321 154.283C184.921 155.41 181.53 154.911 178.145 154.179C175.473 153.6 172.795 153.062 170.113 152.523C169.171 152.334 168.228 152.274 167.291 152.618C166.693 152.837 166.074 152.768 165.885 152.084C165.71 151.451 166.314 151.367 166.752 151.087C168.792 149.806 170.921 150.275 173.03 150.649C181.211 152.114 184.487 151.73 193.437 148.39C191.323 147.218 189.268 146.082 187.219 144.945C187.304 144.765 187.389 144.591 187.474 144.411C190.286 144.287 192.828 145.214 195.251 146.605C195.581 146.795 195.885 147.029 196.204 147.238C197.186 147.881 198.323 147.647 199.036 147.079C199.664 146.58 198.712 145.862 198.388 145.314C196.039 141.36 194.274 137.127 192.434 132.934C191.891 131.697 191.343 131.453 189.882 131.583C184.243 132.091 179.307 134.654 174.132 136.519C172.691 137.037 171.255 137.566 169.704 137.621C167.785 137.69 167.002 136.643 167.615 134.834C168.178 133.178 169.49 132.216 171.03 131.737C177.268 129.803 183.595 128.516 190.176 129.743C190.345 129.773 190.535 129.693 190.829 129.648C185.634 118.136 179.755 107.222 169.24 99.5937C165.117 96.6022 161.104 93.4661 157.09 90.3301C156.287 89.7019 155.48 89.6719 154.587 89.7368C148.245 90.2104 141.908 90.7738 135.561 91.1477C127.569 91.6164 120.918 94.9669 115.094 100.257C113.683 101.538 112.223 102.775 110.732 103.966C109.814 104.699 109.121 105.542 108.613 106.609C105.362 113.424 103.507 120.704 101.343 127.893C98.9802 135.746 97.7288 143.833 96.0436 151.825C95.9139 152.438 95.7893 153.002 95.1561 153.635C94.5179 151.486 95.0813 149.512 95.3356 147.682C96.8512 136.728 98.2124 125.734 101.239 115.055C105.302 100.721 112.96 88.4604 123.052 77.6312C124.916 75.6319 126.587 73.4231 128.865 71.8576C129.488 71.4288 130.251 70.5663 131.044 71.3042C131.847 72.057 131.019 72.8398 130.62 73.5029C127.185 79.1818 122.887 84.2474 119.083 89.662C116.999 92.6285 114.815 95.5253 113.065 98.7162C112.975 98.8857 112.891 99.0503 112.801 99.2198C112.746 99.3444 112.686 99.4691 112.631 99.5937C112.761 99.5439 112.891 99.489 113.02 99.4392C113.175 99.3793 113.314 99.2746 113.449 99.1699Z" fill="#948976"/>
<path d="M145.877 238.478C146.425 237.716 147.188 238.1 147.836 238.045C153.351 237.601 158.905 237.87 164.404 237.028C166.987 236.634 169.31 235.771 171.474 234.365C180.269 228.641 188.361 222.06 195.326 214.207C199.764 209.202 202.551 203.159 205.113 197.036C205.283 196.627 205.462 196.219 205.602 195.795C205.821 195.142 206.155 194.583 206.943 194.733C207.766 194.887 207.786 195.625 207.761 196.254C207.736 197.076 207.711 197.929 207.487 198.707C205.098 206.838 204.969 215.125 205.622 223.481C206.106 229.634 206.823 235.791 205.383 241.924C205.183 242.771 204.724 243.589 204.924 244.526C205.712 244.761 205.886 244.063 206.215 243.684C210.767 238.424 213.29 232.316 214.133 225.416C215.289 215.962 216.641 206.524 219.527 197.41C221.138 192.32 223.122 187.354 224.797 182.283C228.392 171.404 228.537 160.281 226.981 149.053C226.817 147.856 226.732 146.65 226.592 145.448C226.582 145.358 226.423 145.283 226.313 145.189C225.74 145.652 225.939 146.67 224.942 146.984C224.603 144.251 224.339 141.579 224.304 138.877C224.224 132.764 224.738 126.631 224.139 120.544C222.908 108.059 218.346 96.6118 212.617 85.5882C209.112 78.8474 204.759 72.64 200.222 66.5673C192.07 55.6583 185.968 43.5328 179.307 31.7313C175.089 24.2576 170.816 16.8038 166.025 9.66408C165.725 9.22034 165.127 8.61207 165.641 8.14839C166.334 7.53015 166.762 8.41264 167.161 8.80153C169.54 11.1299 171.454 13.8272 173.359 16.5345C177.796 22.8366 182.044 29.2733 185.599 36.1089C191.961 48.3491 199.609 59.7517 207.666 70.9049C208.923 72.645 210.079 74.4648 211.4 76.4193C211.685 75.2127 211.156 74.3701 210.912 73.5075C206.445 57.6028 198.402 43.5328 188.63 30.3702C181.989 21.4256 175.453 12.3913 167.635 4.39406C164.738 1.4275 161.667 -1.3147 158.401 -3.8824C151.456 -9.34188 143.499 -11.6852 134.803 -11.9096C134.04 -11.9295 133.278 -11.8896 132.545 -12.1838C132.156 -12.3384 131.587 -12.2885 131.617 -12.9217C131.652 -13.5998 132.236 -13.4352 132.629 -13.5001C137.655 -14.3127 142.636 -14.1482 147.587 -12.9067C152.737 -11.6154 157.279 -9.11752 161.492 -5.95152C162.066 -5.52274 162.629 -4.69509 163.322 -5.93656C163.596 -6.43016 164.24 -6.12602 164.728 -5.95651C166.523 -5.31832 168.363 -4.78982 170.113 -4.04195C174.79 -2.04762 179.661 -1.33465 184.681 -1.7734C190.116 -2.24705 194.877 -1.0006 198.816 2.96313C201.883 6.04936 205.497 7.75949 209.984 8.05366C214.178 8.32788 217.433 10.7709 219.961 14.1214C221.701 16.4298 223.022 18.9726 224.025 21.66C227.884 32.0504 232.406 42.1417 237.292 52.0835C238.473 54.4866 239.416 56.9845 239.979 59.6021C240.493 61.9704 240.214 64.209 238.214 65.8543C231.264 71.588 228.253 79.8645 224.194 87.4679C223.681 88.4301 224.364 88.8489 224.872 89.3924C230.626 95.5499 235.701 102.211 240.214 109.341C245.947 118.4 246.451 127.758 242.706 137.645C240.408 143.708 237.227 149.407 235.462 155.679C234.315 159.767 232.78 163.731 231.468 167.765C230.711 170.098 230.636 172.641 230.112 175.064C228.971 180.369 227.325 185.539 224.947 190.41C219.961 200.631 217.683 211.475 216.8 222.723C216.262 229.589 215.459 236.424 211.346 242.332C207.317 248.116 202.71 253.361 197.131 257.694C195.685 258.821 194.558 260.466 192.494 260.94C192.444 259.464 193.491 258.681 194.03 257.669C195.625 254.697 197.226 251.731 198.926 248.814C201.888 243.729 202.78 238.189 202.501 232.441C202.152 225.346 201.085 218.281 201.833 211.091C199.868 213.809 197.779 216.351 195.451 218.685C195.177 218.959 194.937 219.248 195.057 219.687C196.119 223.691 195.406 227.789 195.675 231.837C195.974 236.25 195.924 240.682 196.802 245.06C195.919 245.284 195.915 244.661 195.74 244.242C193.721 239.466 193.437 234.385 193.182 229.31C193.078 227.215 193.242 225.111 193.287 223.012C193.297 222.589 193.516 222.06 192.973 221.841C192.459 221.631 192.22 222.175 191.876 222.409C189.657 223.95 188.904 225.959 189.034 228.731C189.602 240.887 190.455 253.002 192.669 264.988C193.442 269.156 195.246 272.806 198.004 276.017C199.868 278.191 201.548 280.519 203.573 282.553C203.857 282.837 204.425 283.126 204.041 283.63C203.662 284.129 203.219 283.6 202.84 283.485C200.771 282.872 199.17 281.521 197.635 280.065C193.028 275.688 190.37 270.268 189.383 264.066C187.523 252.379 185.454 240.697 186.402 228.766C186.431 228.407 186.611 227.963 186.192 227.744C185.778 227.53 185.489 227.918 185.2 228.138C182.607 230.092 180.045 232.087 177.432 234.011C168.512 240.573 158.556 241.689 148.001 239.525C147.223 239.391 146.37 239.261 145.877 238.478ZM165.227 -3.11957C165.197 -3.20433 165.167 -3.28909 165.137 -3.37385C165.072 -3.33396 165.007 -3.28909 164.948 -3.2492C165.037 -3.20433 165.127 -3.15946 165.222 -3.1096C165.401 -2.90518 165.576 -2.70076 165.755 -2.49635C167.386 -0.801166 169.061 0.864101 170.646 2.59917C179.252 12.0323 186.422 22.5624 193.716 32.9927C204.131 47.8854 211.685 64.0694 215.479 81.9186C215.823 83.549 215.948 85.2791 217.219 86.6402C218.445 83.4892 218.949 78.1942 218.53 74.8039C217.638 67.6043 216.222 60.4945 214.935 53.3598C213.619 46.0456 212.443 38.7115 212.069 31.2776C212.044 30.799 211.595 30.096 212.223 29.9614C212.936 29.8068 212.906 30.5995 213.016 31.143C215.514 43.1887 218.221 55.1846 220.485 67.2803C221.861 74.6244 222.07 81.8089 218.944 88.7841C218.376 90.0555 218.969 90.918 219.507 91.6559C223.82 81.3054 226.672 70.0274 237.621 63.9398C238.763 63.3066 238.813 62.1897 238.444 61.0879C238.204 60.3699 237.82 59.6918 237.441 59.0387C231.917 49.5557 227.669 39.4843 223.621 29.3132C221.931 25.0653 220.659 20.6379 218.191 16.724C216.077 13.3685 213.165 10.8607 209.157 10.7659C204.116 10.6463 200.182 8.64697 196.917 5.07712C193.686 1.54716 189.757 0.240872 185.06 0.754411C182.348 1.05356 179.626 1.26795 176.879 0.889029C173.03 0.355546 169.614 -1.35459 166.129 -2.88025C165.86 -3.09464 165.586 -3.26915 165.227 -3.11957ZM234.425 150.927C236.649 145.328 238.503 139.62 240.129 133.806C242.452 125.5 240.737 117.976 236.529 110.752C233.602 105.736 230.092 101.124 226.757 96.3875C225.585 94.7222 224.399 93.0669 223.237 91.3917C222.813 90.7784 222.504 90.6139 222.005 91.3618C220.943 92.9373 220.42 94.3084 221.287 96.3925C225.525 106.588 228.113 117.134 227.659 128.317C227.535 131.373 227.345 134.424 228.133 137.605C229.479 143.05 230.541 148.609 231.129 154.233C232.805 146.829 234.315 139.425 236.758 132.256C237.337 133.846 236.718 135.302 236.519 136.783C235.886 141.484 234.704 146.096 234.325 150.843C233.916 151.237 233.931 151.67 234.275 152.289C234.34 151.735 234.385 151.331 234.425 150.927ZM204.894 245.07C204.854 245.025 204.814 244.98 204.774 244.935C204.734 244.98 204.695 245.02 204.655 245.065C204.714 245.11 204.774 245.154 204.834 245.199C204.854 245.159 204.874 245.115 204.894 245.07Z" fill="#948976"/>
<path d="M223.531 124.069C222.962 125.619 224.084 127.484 222.703 127.793C221.856 127.983 221.885 125.849 221.536 124.767C219.582 118.649 217.772 112.487 215.788 106.384C212.981 97.7535 207.581 90.7982 201.324 84.4164C192.135 75.0381 181.904 66.7766 172.556 57.5777C164.105 49.2663 156.157 40.4913 149.172 30.8886C148.554 30.041 147.123 28.8095 148.095 28.0168C149.327 27.0096 149.875 28.9242 150.533 29.6521C157.184 37.0262 163.741 44.4949 170.806 51.4801C178.05 58.6447 185.833 65.2359 193.362 72.1014C199.718 77.8949 205.956 83.8231 211.256 90.6337C218.989 100.58 221.97 112.242 223.531 124.069Z" fill="#948976"/>
<path d="M176.535 205.128C175.333 205.118 174.65 203.892 173.344 204.071C174.361 206.36 172.541 207.302 171.255 208.404C163.328 215.21 154.632 216.082 145.394 211.425C141.694 209.561 137.91 207.721 135.342 204.206C135.118 203.897 134.544 203.857 134.146 203.667C133.527 203.373 133.428 203.009 134.021 202.556C137.705 199.739 141.255 196.717 145.339 194.474C147.996 193.013 150.833 192.409 153.755 193.746C154.373 194.03 154.712 193.761 155.121 193.491C157.709 191.781 160.486 191.731 163.113 193.092C168.199 195.725 172.462 199.439 176.146 203.817C176.4 204.116 176.789 204.465 176.535 205.128ZM170.916 202.142C168.912 200.751 167.321 199.599 165.681 198.522C162.6 196.493 159.344 195.376 155.58 196.473C154.318 196.842 152.917 197.096 151.636 196.937C146.74 196.333 143.364 199.39 139.585 201.524C140.971 201.758 142.282 201.683 143.609 201.538C146.326 201.239 149.048 201.01 151.79 201.304C152.483 201.379 153.137 201.678 153.251 202.326C153.391 203.134 152.578 203.343 151.99 203.493C150.698 203.822 149.382 204.006 148.036 204.061C144.332 204.221 140.632 204.615 136.878 204.56C139.426 205.786 141.609 207.591 144.137 208.688C148.624 210.638 153.251 212.338 158.277 211.66C161.697 211.201 164.609 209.446 167.336 207.417C168.802 206.33 170.203 205.148 171.993 204.505C167.012 204.769 162.181 203.657 157.285 203.189C156.268 203.094 154.288 203.313 154.358 202.202C154.448 200.741 156.308 201.384 157.409 201.304C161.812 201 166.15 201.877 170.916 202.142Z" fill="#948976"/>
<path d="M102.39 137.785C102.939 136.364 103.801 135.83 104.589 135.402C109.64 132.659 114.845 130.077 120.678 129.867C127.1 129.638 133.063 131.787 138.767 134.614C139.679 135.068 140.417 135.81 140.996 136.673C142.147 138.388 141.519 139.665 139.475 139.779C138.179 139.849 136.957 139.475 135.741 139.081C131.687 137.765 127.629 136.449 123.58 135.112C119.572 133.786 115.583 133.866 111.579 135.167C108.653 136.115 105.731 137.097 102.39 137.785Z" fill="#948976"/>
<path d="M93.73 298.772C94.3233 298.243 94.9116 298.064 95.5597 298.039C105.108 297.655 114.655 297.53 124.119 299.081C130.446 300.118 136.075 302.915 141.225 306.694C141.534 306.919 141.828 307.168 142.097 307.437C142.476 307.816 143.199 308.175 142.85 308.778C142.476 309.427 141.684 309.212 141.115 308.978C139.769 308.419 138.383 307.891 137.156 307.118C130.316 302.83 122.782 301.165 114.82 300.886C107.9 300.642 101.004 300.003 94.1338 299.121C94.0341 299.101 93.9543 298.971 93.73 298.772Z" fill="#948976"/>
<path d="M153.63 299.605C150.504 299.315 147.667 297.421 145.284 294.718C144.835 294.21 144.725 293.497 145.104 292.939C145.613 292.196 146.375 292.525 146.999 292.804C148.504 293.482 149.99 294.2 151.466 294.938C153.36 295.885 155.046 295.551 156.527 294.11C159.897 290.835 163.232 287.519 166.613 284.253C167.66 283.241 168.797 282.309 169.918 281.376C170.228 281.122 170.587 280.653 171.065 281.037C171.534 281.416 171.165 281.825 171.015 282.234C169.654 285.943 167.326 289.03 164.728 291.921C162.779 294.095 160.809 296.269 158.436 298.009C157.195 298.927 155.804 299.535 153.63 299.605Z" fill="#948976"/>
<path d="M215.738 298.887C213.943 300.263 212.313 300.168 210.832 300.293C204.246 300.856 197.655 301.35 191.058 301.754C185.021 302.123 179.805 304.182 175.687 308.724C175.258 309.193 174.81 309.651 174.316 310.05C173.663 310.584 173 311.586 172.062 310.758C171.18 309.98 171.913 309.073 172.377 308.365C175.597 303.469 180.214 300.567 185.913 299.63C194.663 298.194 203.483 297.975 212.328 298.707C213.27 298.792 214.218 298.812 215.738 298.887Z" fill="#948976"/>
<path d="M115.957 148.32C114.067 149.347 112.177 150.374 110.063 151.531C111.095 152.164 112.058 151.959 112.92 152.129C119.796 153.495 126.646 153.705 133.492 151.825C134.813 151.461 136.264 151.381 137.625 151.87C138.104 152.039 138.602 152.333 138.602 152.927C138.597 153.62 137.994 153.665 137.5 153.695C131.697 154.014 126.267 156.372 120.484 156.816C116.226 157.14 112.123 156.541 108.124 155.106C107.102 154.737 106.16 154.203 105.342 153.48C105.053 153.226 104.773 152.952 104.873 152.508C104.988 151.989 105.427 152.034 105.781 152.059C106.703 152.129 107.261 151.536 107.949 151.072C110.333 149.462 112.92 148.33 115.957 148.32Z" fill="#948976"/>
<path d="M244.696 298.343C242.258 298.094 239.955 297.595 237.696 296.942C231.18 295.062 224.668 293.158 218.167 291.218C217.234 290.939 215.614 290.635 215.848 289.698C216.112 288.636 217.528 289.404 218.466 289.528C227.031 290.665 235.034 293.671 242.971 296.892C243.609 297.152 244.507 297.196 244.696 298.343Z" fill="#948976"/>
<path d="M98.3869 185.22C96.9859 182.797 96.6219 180.1 96.0834 177.467C95.4851 174.55 95.0613 171.599 94.5677 168.662C94.5278 168.413 94.5129 168.154 94.5278 167.904C94.5478 167.416 94.3733 166.787 95.0264 166.613C95.7992 166.409 95.7644 167.181 95.9189 167.575C97.285 171.015 98.003 174.61 98.4467 178.275C98.7209 180.583 98.8506 182.877 98.3869 185.22Z" fill="#948976"/>
<path d="M209.97 178.703C210.184 175.627 210.618 172.755 211.809 170.048C212.118 169.34 212.457 168.657 213.101 168.213C213.674 167.814 214.317 167.396 214.985 168.019C215.693 168.682 214.746 168.951 214.606 169.42C214.103 171.05 213.654 172.695 213.116 174.316C212.597 175.871 212.029 177.417 211.395 178.933C211.211 179.372 211.066 180.204 210.269 179.91C209.611 179.656 210.149 178.983 209.97 178.703Z" fill="#948976"/>
<path d="M161.862 181.351C161.388 181.256 160.695 181.152 160.022 180.967C159.299 180.768 158.416 180.623 158.621 179.541C158.79 178.629 159.409 178.105 160.331 178.001C161.976 177.806 163.278 178.599 164.519 179.521C165.047 179.915 164.763 180.284 164.404 180.608C163.741 181.206 162.914 181.276 161.862 181.351Z" fill="#948976"/>
<path d="M171.948 147.642C171.479 147.632 171.075 147.512 170.856 147.034C170.592 146.465 170.811 146.022 171.25 145.698C172.711 144.611 174.476 144.207 176.176 143.763C176.954 143.564 176.699 144.401 176.525 144.835C176.061 145.972 173.209 147.697 171.948 147.642Z" fill="#948976"/>
<path d="M149.532 177.891C150.329 178.05 151.651 178 151.491 179.252C151.327 180.558 149.946 180.832 148.804 180.907C147.961 180.962 147.049 180.668 147.099 179.561C147.163 178.11 148.27 177.931 149.532 177.891Z" fill="#948976"/>
<path d="M133.373 149.317C131.004 149.696 129.399 148.759 127.848 147.682C127.519 147.457 127.29 147.108 127.464 146.699C127.739 146.061 128.362 146.201 128.786 146.345C130.451 146.924 131.922 147.831 133.373 149.317Z" fill="#948976"/>
<path d="M186.242 174.231C162.689 171.893 183.136 154.911 195.631 157.379C216.965 162.878 198.911 176.564 186.242 174.231Z" fill="#D8C8BB"/>
<path d="M117.343 176.849C94.9616 177.287 98.0479 156.566 118.914 160.824C134.744 163.153 133.377 179.83 117.343 176.849Z" fill="#D8C8BB"/>
</g>
</svg>
