<svg width="332" height="293" viewBox="0 0 332 293" fill="none" xmlns="http://www.w3.org/2000/svg">
<g opacity="0.05">
<path d="M329.198 173.617C325.129 178.653 321.008 183.717 315.888 187.699C310.769 191.664 304.496 194.482 298.022 194.299L297.683 194.614C298.848 195.903 299.789 197.439 300.472 199.037C301.999 202.664 302.378 206.663 302.728 210.576C299.973 209.092 296.656 209.287 293.528 209.441C288.833 209.665 284.086 209.705 279.506 208.651C277.199 208.124 274.926 207.276 272.872 206.09L272.596 206.537C271.655 213.795 266.903 220.447 260.343 223.707C260.107 219.02 257.99 214.649 255.86 210.473C253.731 206.284 251.493 202.011 250.976 197.347C250.465 192.683 252.09 187.458 256.124 185.052L256.165 184.955C256.004 184.88 255.855 184.806 255.688 184.743C255.447 184.846 255.189 184.955 254.948 185.052L254.885 184.915C254.896 184.777 254.908 184.628 254.908 184.491C251.114 185.654 246.781 184.978 243.538 182.68C240.117 180.234 238.017 176.046 238.12 171.846C233.775 171.772 230.234 168.111 228.541 164.112C226.848 160.125 226.498 155.713 225.396 151.514C224.305 147.314 222.153 143.017 218.245 141.127C226.108 138.967 235.181 142.49 239.503 149.388L239.727 149.377C239.515 145.653 240.014 141.791 240.789 138.13C242.315 130.934 244.732 123.756 244.158 116.422C249.553 116.623 254.638 120.421 256.342 125.543C256.83 124.541 257.617 123.779 258.581 123.28L258.191 122.644C259.556 118.13 263.471 114.48 268.079 113.397C272.677 112.326 277.808 113.884 281.039 117.333C286.084 114.698 292.81 115.746 296.816 119.797C299.106 122.111 300.495 125.205 302.762 127.548C305.718 130.608 310.149 132.172 314.379 131.651C312.875 134.303 314.281 137.735 316.359 139.964C318.437 142.198 321.157 143.814 323.017 146.248C325.18 149.084 325.932 152.934 325.02 156.383C324.096 159.821 321.524 162.783 318.236 164.181L317.398 164.158C317.335 165.619 317.535 167.097 318.385 168.26C319.309 169.52 320.853 170.196 322.402 170.431C323.952 170.655 325.519 170.483 327.074 170.368C328.228 170.282 329.743 170.466 330.007 171.594C330.162 172.339 329.663 173.038 329.198 173.617Z" fill="#EFE7DE"/>
<path d="M255.476 185.075C256.612 178.372 255.338 171.096 253.197 164.714C251.211 158.801 246.947 151.812 250.144 145.561C249.472 145.475 248.807 145.384 248.135 145.298C250.27 150.66 256.354 151.187 261.364 150.998C264.182 150.895 267.236 150.683 269.864 151.915C271.999 152.917 273.819 155.209 273.199 157.667C273.015 158.395 273.738 159.357 274.553 159.019C279.604 156.922 285.274 160.32 285.429 165.883C285.447 166.576 286.118 167.154 286.818 166.943C291.232 165.602 296.03 167.195 299.353 170.254C302.871 173.491 304.806 178.006 305.948 182.56C306.303 182.096 306.654 181.632 307.009 181.168C303.945 181.271 301.414 182.961 299.169 184.909C296.897 186.886 294.773 189.229 291.731 189.962C290.348 190.295 290.934 192.42 292.317 192.088C295.163 191.4 297.385 189.487 299.497 187.568C301.614 185.643 303.979 183.465 307.004 183.368C307.727 183.345 308.243 182.686 308.065 181.976C306.786 176.883 304.496 171.749 300.421 168.277C296.558 164.983 291.192 163.316 286.227 164.828C286.692 165.184 287.157 165.533 287.616 165.888C287.421 159.042 280.39 154.247 273.956 156.911C274.41 157.363 274.858 157.81 275.311 158.263C275.931 155.822 274.99 153.347 273.222 151.611C271.236 149.658 268.418 148.964 265.715 148.792C262.593 148.592 259.442 149.171 256.331 148.712C253.903 148.357 251.211 147.16 250.247 144.73C249.932 143.934 248.709 143.545 248.238 144.467C244.956 150.884 248.227 157.575 250.569 163.677C251.848 167.006 252.767 170.454 253.364 173.972C253.978 177.599 254.058 181.265 254.265 184.932C254.305 185.562 255.355 185.797 255.476 185.075Z" fill="#222222"/>
<path d="M255.068 185.671C259.373 184.324 263.379 182.021 267.884 181.34C271.959 180.721 275.971 181.569 278.864 184.617C281.314 187.2 283.243 190.409 286.933 191.337C289.074 191.876 291.358 191.709 293.401 192.637C295.175 193.44 296.667 194.792 297.809 196.356C300.794 200.452 301.264 205.694 301.712 210.581C302.223 210.289 302.728 209.997 303.239 209.71C299.657 207.871 295.634 208.37 291.76 208.507C287.438 208.662 283.042 208.582 278.841 207.447C275.363 206.508 272.017 204.835 269.485 202.234C266.69 199.364 265.393 195.514 263.649 191.996C261.898 188.467 259.476 185.104 255.642 183.706C254.471 183.282 254.041 185.075 255.137 185.533C258.483 186.931 260.544 190.208 262.059 193.336C263.735 196.791 265.083 200.446 267.729 203.317C273.015 209.057 281.165 210.57 288.632 210.587C290.968 210.593 293.298 210.427 295.634 210.364C297.884 210.301 300.18 210.409 302.223 211.452C302.843 211.773 303.818 211.395 303.749 210.581C303.319 205.866 302.848 200.962 300.455 196.762C298.343 193.056 294.974 190.466 290.698 189.893C288.437 189.59 286.325 189.395 284.523 187.871C283.059 186.639 281.928 185.064 280.643 183.654C277.773 180.509 273.979 179.071 269.732 179.271C264.343 179.529 259.304 182.113 254.592 184.519C253.961 184.852 254.397 185.883 255.068 185.671Z" fill="#222222"/>
<path d="M298.022 194.901C305.93 195.772 313.587 191.24 319.234 186.147C322.368 183.322 325.134 180.125 327.809 176.871C328.429 176.115 329.049 175.359 329.663 174.597C330.237 173.886 330.862 173.164 330.983 172.225C331.195 170.586 329.852 169.629 328.383 169.429C326.385 169.154 324.365 169.778 322.356 169.412C320.474 169.062 318.913 167.997 318.523 166.049C318.121 164.049 318.695 161.901 319.016 159.93C319.338 157.936 319.613 155.925 319.343 153.909C318.838 150.208 316.439 147.28 312.645 146.678C310.66 146.363 308.651 146.667 306.734 147.205C305.839 147.458 304.943 147.887 304.025 148.042C302.814 148.242 302.802 147.068 302.481 146.191C301.207 142.748 298.102 139.952 294.457 139.259C290.589 138.52 286.48 139.992 283.983 143.04C283.162 144.043 284.591 145.487 285.424 144.478C287.478 141.98 290.836 140.583 294.061 141.259C297.166 141.912 299.766 144.272 300.702 147.297C301.155 148.758 301.798 150.082 303.537 150.133C305.282 150.185 307.055 149.176 308.748 148.827C310.556 148.454 312.554 148.426 314.241 149.268C315.785 150.041 316.709 151.468 317.145 153.107C318.132 156.853 316.491 160.56 316.376 164.307C316.273 167.745 318.063 170.523 321.518 171.314C323.418 171.749 325.295 171.474 327.212 171.383C327.665 171.36 328.693 171.274 328.997 171.721C329.387 172.288 327.929 173.669 327.596 174.081C325.174 177.072 322.712 180.045 319.992 182.772C317.013 185.763 313.736 188.393 310.005 190.375C306.275 192.357 302.24 193.417 298.039 193.715C297.241 193.755 297.258 194.815 298.022 194.901Z" fill="#222222"/>
<path d="M280.758 157.65C284.276 152.992 285.252 146.575 284.396 140.903C283.667 136.062 281.068 130.436 275.615 129.76C273.067 129.445 270.519 130.333 269.026 132.47C269.6 132.625 270.18 132.779 270.754 132.94C270.765 128.849 269.147 124.134 265.164 122.306C261.835 120.777 257.266 121.636 255.499 125.068C256.084 125.142 256.675 125.222 257.261 125.297C255.321 119.717 250.052 115.758 244.141 115.466C243.641 115.443 243.13 115.93 243.171 116.434C243.934 127.17 238.619 137.185 238.7 147.881C238.717 150.173 238.969 152.488 239.578 154.705C240.232 157.082 241.351 159.105 242.666 161.167C243.406 162.325 243.75 163.356 243.486 164.731C243.245 165.997 242.895 167.212 242.786 168.506C242.585 170.913 242.952 173.41 243.842 175.662C245.742 180.457 249.863 184.05 254.856 185.356C256.032 185.665 256.538 183.849 255.361 183.534C250.999 182.377 247.286 179.22 245.644 174.992C244.76 172.706 244.45 170.174 244.806 167.744C244.967 166.65 245.334 165.596 245.478 164.496C245.639 163.27 245.415 162.158 244.852 161.058C244.341 160.062 243.624 159.179 243.073 158.2C242.493 157.174 242.034 156.091 241.673 154.968C240.978 152.78 240.674 150.5 240.64 148.214C240.559 143.332 241.627 138.577 242.757 133.856C244.123 128.144 245.535 122.346 245.11 116.428C244.789 116.749 244.462 117.076 244.141 117.396C249.151 117.643 253.754 121.069 255.401 125.801C255.654 126.529 256.761 126.815 257.163 126.03C258.523 123.383 262.162 122.816 264.647 124.18C267.712 125.858 268.877 129.657 268.894 132.928C268.9 133.891 270.117 134.131 270.622 133.398C272.011 131.37 274.903 131.095 277.039 131.971C279.748 133.083 281.291 135.982 282.06 138.652C283.88 144.936 282.439 151.279 279.742 157.059C279.438 157.747 280.31 158.24 280.758 157.65Z" fill="#222222"/>
<path d="M299.904 143.59C302.154 141.854 302.934 138.485 302.911 135.776C302.889 132.819 301.798 129.857 299.789 127.669C295.852 123.383 288.85 122.604 283.989 125.727C284.408 125.835 284.821 125.944 285.24 126.053C283.564 122.129 279.891 119.086 275.684 118.261C271.247 117.391 266.576 118.949 263.471 122.203C262.65 123.063 263.953 124.363 264.773 123.504C267.482 120.668 271.609 119.27 275.483 120.118C279.168 120.92 282.187 123.538 283.667 126.97C283.857 127.411 284.546 127.543 284.919 127.296C289.074 124.609 295.031 125.165 298.492 128.769C300.294 130.642 301.213 133.203 301.299 135.77C301.391 138.497 300.369 140.668 299.238 143.069C299.02 143.527 299.525 143.888 299.904 143.59Z" fill="#222222"/>
<path d="M258.604 122.902C260.618 118.955 263.39 115.523 267.861 114.326C272.264 113.145 277.343 114.578 280.419 117.958C280.695 118.256 281.131 118.25 281.464 118.095C284.299 116.749 287.473 116.434 290.515 117.242C293.866 118.13 296.294 120.232 298.246 123.022C300.186 125.801 301.942 128.614 304.897 130.442C307.71 132.183 311.085 132.951 314.373 132.59C314.109 132.132 313.845 131.668 313.575 131.209C312.066 134.068 313.065 137.328 314.941 139.757C317.03 142.462 320.21 144.1 322.276 146.827C326.552 152.476 324.084 160.583 317.742 163.379C316.617 163.877 317.593 165.516 318.706 165.023C324.962 162.29 327.918 155.014 325.398 148.701C324.055 145.343 321.352 143.298 318.724 140.983C316.382 138.921 313.432 135.443 315.171 132.138C315.464 131.582 315.114 130.671 314.373 130.757C311.658 131.06 308.921 130.574 306.51 129.273C303.95 127.892 302.269 125.732 300.668 123.372C299.158 121.149 297.609 118.978 295.341 117.459C293.333 116.113 290.98 115.34 288.581 115.093C285.854 114.813 283.008 115.311 280.591 116.617C280.941 116.663 281.292 116.709 281.636 116.755C277.957 113.122 272.642 111.375 267.557 112.693C263.035 113.867 258.392 117.717 257.703 122.541C257.628 123.022 258.328 123.446 258.604 122.902Z" fill="#222222"/>
<path d="M240.043 149.079C238.126 145.326 234.412 142.628 230.567 141.075C226.601 139.471 222.142 139.173 218.004 140.267C217.286 140.456 217.085 141.556 217.791 141.911C224.334 145.217 224.747 153.53 226.188 159.786C227.588 165.871 231.198 172.322 238.12 172.797C237.804 172.482 237.494 172.173 237.179 171.858C236.955 176.258 239.314 180.721 242.809 183.322C246.482 186.06 251.521 186.714 255.814 185.178C256.934 184.777 256.451 182.984 255.321 183.385C251.562 184.714 247.292 184.216 244.032 181.867C240.772 179.523 239.188 175.777 239.073 171.863C239.056 171.354 238.654 170.924 238.131 170.924C235.055 170.912 232.438 168.73 230.797 166.295C228.817 163.356 228.093 159.798 227.41 156.383C226.211 150.419 224.696 143.378 218.715 140.37C218.646 140.92 218.572 141.464 218.503 142.014C222.32 141 226.303 141.338 229.982 142.736C233.724 144.157 236.639 146.741 239.084 149.846C239.52 150.413 240.347 149.674 240.043 149.079Z" fill="#222222"/>
<path d="M255.992 184.565C251.51 186.353 249.823 191.898 250.012 196.339C250.276 202.48 253.645 207.871 256.251 213.251C257.846 216.545 259.218 220.011 259.442 223.701C259.482 224.406 260.171 224.795 260.802 224.48C267.666 221.037 272.568 214.162 273.497 206.536C273.618 205.545 271.885 205.299 271.735 206.296C270.656 213.389 266.335 219.645 259.895 222.922C260.349 223.18 260.802 223.443 261.255 223.701C260.785 215.99 255.906 209.831 253.283 202.812C252.113 199.673 251.389 196.287 252.038 192.947C252.623 189.899 254.19 187.458 256.503 185.419C256.865 185.092 256.475 184.37 255.992 184.565Z" fill="#222222"/>
<path d="M254.018 184.205C245.507 190.913 239.239 200.235 235.279 210.261C233.511 214.73 232.048 220.401 234.992 224.727C237.288 228.096 241.248 229.505 244.473 231.751C245.994 232.805 247.337 234.151 247.82 235.991C248.382 238.133 247.561 240.282 246.597 242.178C245.53 244.263 244.244 246.234 243.32 248.394C242.545 250.21 241.426 253.069 242.953 254.782C244.433 256.444 246.959 255.607 248.554 256.954C250.718 258.787 249.564 262.047 248.485 264.104C247.137 266.676 245.656 269.168 244.387 271.786C243.125 274.387 241.983 277.052 241.036 279.784C237.07 291.226 236.754 304.706 244.1 314.921C244.927 316.067 246.85 314.961 246.017 313.804C239.532 304.821 239.291 293.087 242.258 282.769C243.836 277.269 246.241 272.056 248.973 267.043C250.19 264.82 251.688 262.465 251.613 259.83C251.55 257.756 250.534 255.63 248.554 254.782C247.67 254.404 246.718 254.312 245.794 254.072C244.364 253.699 244.146 252.926 244.479 251.505C245.007 249.265 246.224 247.283 247.337 245.3C249.386 241.662 251.395 237.423 249.019 233.418C247.079 230.153 243.28 228.657 240.226 226.686C238.51 225.581 236.892 224.223 236.088 222.298C235.118 219.972 235.388 217.313 235.979 214.93C237.374 209.298 240.261 203.85 243.4 199.003C246.666 193.95 250.632 189.315 254.902 185.081C255.459 184.502 254.621 183.729 254.018 184.205Z" fill="#222222"/>
<path d="M265.715 38.6036C265.715 38.6036 255.562 42.1499 255.562 55.9515C255.562 42.1557 245.409 38.6036 245.409 38.6036C255.264 32.6796 255.562 20.6483 255.562 19.2046C255.562 20.6483 255.872 32.6739 265.715 38.6036Z" fill="#EFE7DE"/>
<path d="M255.562 56.931C255.017 56.931 254.581 56.4899 254.581 55.9514C254.581 43.0607 245.472 39.669 245.082 39.5315C244.726 39.4055 244.474 39.0789 244.433 38.7065C244.399 38.3284 244.577 37.9617 244.904 37.767C254.311 32.1123 254.581 20.5164 254.581 19.2102C254.581 18.6659 255.023 18.2305 255.562 18.2305C256.102 18.2305 256.543 18.6716 256.543 19.2102C256.543 20.5107 256.813 32.1008 266.22 37.767C266.547 37.9617 266.725 38.3284 266.691 38.7065C266.656 39.0847 266.398 39.4055 266.042 39.5315C265.652 39.669 256.543 43.0607 256.543 55.9514C256.543 56.4956 256.107 56.931 255.562 56.931ZM247.378 38.4774C249.656 39.7894 253.708 42.8774 255.568 48.9618C257.427 42.8774 261.479 39.7836 263.758 38.4774C258.948 34.9826 256.658 30.0326 255.568 26.005C254.477 30.0326 252.187 34.9883 247.378 38.4774Z" fill="#222222"/>
<path d="M89.2642 93.6489C92.6848 94.5369 96.1284 95.7171 98.8145 97.9916C94.2976 98.6275 90.4063 101.693 85.9755 102.936C81.9522 104.053 77.6764 103.623 73.5728 102.873C68.3442 101.922 63.0813 100.444 58.771 97.3327C61.744 95.6827 64.8031 94.1359 68.0687 93.1734C74.933 91.1452 82.3425 91.8556 89.2642 93.6489Z" fill="#EFE7DE"/>
<path d="M84.8334 20.419C84.5694 17.4112 84.3054 14.4091 84.0356 11.3898C87.9269 13.12 91.7436 15.2226 94.6707 18.3164C99.0555 22.9799 100.944 29.3909 102.574 35.5669C103.934 40.8091 105.214 46.1487 105.076 51.5685L105.306 51.643C107.366 45.2492 111.062 39.3768 115.964 34.7649C115.878 34.656 115.809 34.5471 115.723 34.4497L115.734 34.4383C116.096 33.8596 116.107 33.1263 116.096 32.4331C116.021 29.8721 115.614 27.3112 114.902 24.8362C114.001 21.7596 112.6 18.7862 112.158 15.6008C111.619 11.6075 112.629 7.51117 114.448 3.91324C114.506 4.5721 115.126 5.05335 115.751 5.2596C116.388 5.46585 117.066 5.46585 117.714 5.58616C118.03 5.64918 118.328 5.74085 118.632 5.87262L118.644 5.86116C119.183 4.37158 119.172 2.6872 118.61 1.20907C119.402 2.02834 120.636 2.29189 121.778 2.20595C122.908 2.12001 124.005 1.7247 125.101 1.41532C127.62 0.704905 130.398 0.441363 132.797 1.47261C135.208 2.49241 137.062 5.11637 136.534 7.67731C138.06 7.82054 139.449 8.70856 140.557 9.77992C141.98 11.1606 143.099 12.9195 143.472 14.8674C143.857 16.8153 143.438 18.9523 142.158 20.4591L142.026 20.6653C142.847 21.2039 143.472 22.0346 143.759 22.9742C144.109 24.1143 143.955 25.4034 143.352 26.4232C144.953 27.168 145.797 29.093 145.676 30.8576C145.556 32.6393 144.643 34.2607 143.558 35.6643C144.58 36.5294 145.125 37.9102 144.982 39.2336C144.873 40.0873 144.511 40.8779 144.15 41.6628C143.874 42.2758 143.581 42.8774 143.306 43.4904C141.607 41.8461 139.438 40.6888 137.142 40.1732L136.769 40.0185C136.602 40.5112 136.407 40.9925 136.189 41.4623C135.914 42.0524 135.621 42.6539 135.5 43.3013C135.38 43.9487 135.455 44.6706 135.862 45.1862C135.546 45.1977 135.236 45.1862 134.932 45.1633L134.737 47.0883C129.738 55.5503 123.19 63.4623 114.454 67.9941C110.718 69.9191 106.614 71.2425 103.349 73.8607C103.349 73.8837 103.337 73.8951 103.337 73.9238C103.986 84.5858 105.759 95.4082 103.974 105.904L103.71 106.024C102.459 103.188 100.869 100.507 99.0728 97.9577C96.7254 94.6061 94.0164 91.455 91.2213 88.4243L91.3418 88.3155C91.0893 87.966 90.8368 87.6165 90.5957 87.2556C85.9813 80.4264 83.697 72.0217 84.271 63.8003C84.8392 55.6821 88.1622 47.7873 93.5458 41.6914L91.956 40.3107C89.2125 37.9445 87.4735 34.5987 86.4749 31.1268C85.4705 27.6435 85.1433 24.0226 84.8334 20.419Z" fill="#EFE7DE"/>
<path d="M57.8526 42.1665C55.5282 34.7702 55.2297 26.755 57.0204 19.204C59.2989 25.1566 64.0913 30.0608 66.0025 36.0478C66.0255 35.4462 66.0656 34.8446 66.123 34.2431C67.0012 25.3571 71.5697 17.3134 76.0349 9.57324C75.5528 13.7212 76.7466 17.8462 77.4583 21.954C78.7955 29.6368 78.434 37.7264 75.5413 44.9795C74.4681 47.6493 73.0734 50.1874 72.0346 52.8686C71.0015 55.5499 70.3357 58.4718 70.8293 61.3077L70.5653 61.4165C70.5538 61.4051 70.5423 61.3936 70.5423 61.3707L70.3357 61.4566C64.5505 56.2947 60.1886 49.5572 57.8526 42.1665Z" fill="#EFE7DE"/>
<path d="M323.068 305.48C323.068 305.48 285.625 334.985 170.493 350.711C55.3617 366.45 1.17071 320.605 1.17071 320.605C-0.178033 310.538 7.44383 301.463 15.72 295.562C28.2318 286.619 43.1426 281.618 56.1767 273.442C74.6172 261.875 88.8049 244.057 97.1901 223.982C105.558 203.919 108.273 181.695 106.321 160.044L106.408 159.718C103.337 158.899 100.433 157.472 97.7124 155.811C91.3073 151.892 85.5736 146.375 83.0311 139.316C81.2634 134.389 81.1544 128.855 82.7556 123.865C84.0699 119.74 86.7158 115.821 90.6587 114.016C96.0308 111.564 103.113 114.102 105.788 119.316C105.834 119.39 105.874 119.47 105.897 119.545C106.149 115.603 107.837 110.923 110.184 106.173C110.006 106.402 109.811 106.62 109.616 106.832C108.233 108.385 106.752 109.949 106 111.868C106.166 107.794 106.086 103.704 106.373 99.6418C106.689 95.196 107.446 90.71 109.386 86.6939C110.419 84.5282 111.785 82.523 113.255 80.6209C117.048 75.7397 121.611 71.46 126.731 67.9824C124.67 71.1678 124.343 75.1267 123.671 78.8506C123.023 82.4199 121.973 85.8975 120.612 89.2491C124.802 83.3824 128.274 79.2803 128.274 79.2803C132.476 72.9553 139.237 68.6985 146.319 65.9371C153.401 63.1699 160.914 61.7261 168.278 59.8298C175.636 57.9162 183.011 55.4641 189.152 50.9954C195.677 46.2459 200.544 39.262 202.76 31.4933L203.024 31.2183C213.406 40.9063 223.221 51.3678 230.567 63.5136C237.988 75.7397 242.815 89.8105 242.528 104.093C242.35 113.111 240.14 122.008 240.312 131.026C240.41 136.773 241.483 142.485 241.443 148.242C241.397 158.268 238.011 168.008 233.735 177.072C233.098 178.429 232.432 179.787 231.749 181.122L232.507 181.506C233.867 186.783 232.771 192.34 231.675 197.679C230.423 203.741 229.172 209.785 227.915 215.835C227.29 218.889 226.641 221.965 225.218 224.733C224.386 226.331 223.33 227.763 222.182 229.133C229.999 235.045 240.066 237.234 249.857 237.812C259.648 238.391 269.491 237.526 279.283 238.087C289.085 238.666 299.141 240.843 306.975 246.756C315.441 253.149 320.417 263.347 322.465 273.757C324.503 284.173 323.9 294.909 323.068 305.48Z" fill="#EFE7DE"/>
<path d="M49.4561 75.7911C45.7599 75.0921 42.1786 73.5166 38.4136 73.5567C44.5317 69.5635 51.2869 66.3093 58.5415 65.3812C61.3939 65.0202 64.3325 65.0202 67.1276 65.7077C69.9341 66.3952 72.5972 67.7989 74.5256 69.9301L74.583 70.0275C69.4061 73.4994 63.3224 75.6307 57.0952 76.1348C54.5526 76.3354 51.9757 76.2609 49.4561 75.7911Z" fill="#EFE7DE"/>
<path d="M103.888 21.8853C106.528 23.0769 109.576 23.4379 111.883 25.1795C114.569 27.2019 115.7 30.7941 115.447 34.1457C114.133 32.8222 112.026 32.4155 110.305 31.5618C107.86 30.3472 106.006 28.004 105.403 25.3342C105.116 24.0853 104.984 22.5785 103.888 21.8853Z" fill="#EFE7DE"/>
<path d="M221.843 229.465C225.023 232.725 229.609 234.627 233.89 235.991C238.344 237.406 242.976 238.168 247.63 238.586C258.5 239.554 269.434 238.357 280.31 239.125C289.619 239.784 299.296 241.984 306.786 247.839C313.793 253.322 318.224 261.48 320.549 269.948C323.745 281.607 322.781 293.581 322.115 305.486C322.047 306.74 323.923 306.7 324.044 305.486C325.961 286.431 325.743 263.783 311.268 249.231C296.185 234.066 273.239 237.486 253.886 237.034C248.261 236.902 242.648 236.421 237.173 235.057C234.596 234.415 232.071 233.579 229.637 232.519C227.141 231.43 224.828 229.998 222.423 228.726C221.947 228.468 221.459 229.07 221.843 229.465Z" fill="#222222"/>
<path d="M113.995 167.258C116.67 175.445 121.944 182.858 127.712 189.177C133.526 195.543 140.379 200.991 147.915 205.185C150.073 206.388 152.288 207.488 154.555 208.473C156.73 209.424 159.101 210.61 161.448 211.006C162.338 211.155 163.044 209.917 162.108 209.436C160.203 208.462 158.062 207.9 156.093 207.052C154.199 206.245 152.34 205.357 150.52 204.394C146.738 202.4 143.122 200.097 139.713 197.525C132.935 192.409 127.035 186.17 122.22 179.186C119.505 175.25 117.226 171.039 114.914 166.862C114.644 166.381 113.812 166.713 113.995 167.258Z" fill="#222222"/>
<path d="M202.375 31.4191C207.409 36.8504 212.838 41.8748 217.694 47.478C222.561 53.0868 227.037 59.0624 230.734 65.5077C238.223 78.5817 242.591 93.2541 241.397 108.402C240.766 116.411 239.102 124.364 239.383 132.43C239.526 136.509 240.083 140.566 240.336 144.639C240.588 148.638 240.393 152.608 239.681 156.556C238.304 164.181 235.365 171.429 232.014 178.39C228.788 185.093 224.983 191.544 220.741 197.657C218.612 200.722 216.368 203.713 214.009 206.606C211.719 209.413 209.389 212.484 206.468 214.673C203.466 216.924 199.781 217.652 196.097 217.749C192.378 217.852 188.63 217.549 185.008 216.672C183.235 216.242 181.501 215.692 179.803 215.039C178.66 214.604 178.178 216.42 179.298 216.861C182.839 218.247 186.5 219.118 190.288 219.474C193.944 219.817 197.773 219.88 201.377 219.067C205.021 218.242 207.983 216.254 210.537 213.578C213.171 210.817 215.57 207.809 217.9 204.795C222.601 198.705 226.837 192.254 230.539 185.517C234.298 178.676 237.695 171.52 239.922 164.021C241.03 160.285 241.828 156.447 242.195 152.563C242.585 148.449 242.373 144.353 241.971 140.245C241.552 136.005 241.122 131.783 241.271 127.515C241.409 123.401 241.966 119.316 242.465 115.237C242.97 111.123 243.429 106.998 243.429 102.85C243.429 99.1208 243.079 95.3911 242.442 91.7187C241.145 84.2306 238.585 77.0233 235.233 70.2113C228.547 56.616 218.411 44.8655 207.547 34.4269C206.152 33.0863 204.694 31.8373 203.185 30.6227C202.622 30.1587 201.865 30.8691 202.375 31.4191Z" fill="#222222"/>
<path d="M156.243 348.466C156.484 341.373 157.608 334.378 159.789 327.617C161.976 320.834 165.052 314.366 168.708 308.253C172.473 301.945 176.824 296.004 181.438 290.292C183.717 287.467 186.064 284.694 188.435 281.944C190.719 279.303 193.129 276.748 195.293 274.009C197.514 271.196 199.276 268.08 199.345 264.413C199.414 260.804 197.824 256.702 199.655 253.327C199.058 253.327 198.467 253.327 197.87 253.327C198.794 254.989 199.718 256.644 200.642 258.306C201.365 259.601 202.025 261.457 203.277 262.356C205.934 264.258 207.822 260.792 208.442 258.701C210.256 252.594 211.168 246.08 214.25 240.419C217.229 234.948 222.624 231.367 225.723 225.988C227.405 223.066 228.168 219.766 228.851 216.494C229.614 212.822 230.372 209.144 231.135 205.471C231.985 201.375 232.938 197.29 233.598 193.159C234.235 189.195 234.476 185.184 233.466 181.26C233.144 180.022 231.256 180.544 231.549 181.787C233.133 188.45 231.061 195.422 229.712 201.948C229.018 205.305 228.323 208.657 227.634 212.014C226.963 215.257 226.435 218.58 225.356 221.719C223.41 227.385 218.629 230.955 215.025 235.504C211.335 240.156 209.641 245.759 208.212 251.431C207.805 253.064 207.403 254.696 206.967 256.318C206.611 257.635 206.37 259.371 205.406 260.408C204.792 261.067 204.361 260.672 203.959 260.019C203.483 259.24 203.07 258.42 202.622 257.624C201.635 255.848 200.642 254.066 199.655 252.29C199.288 251.626 198.237 251.614 197.87 252.29C196.24 255.298 196.825 258.592 197.147 261.841C197.308 263.496 197.388 265.169 196.969 266.791C196.544 268.418 195.729 269.902 194.782 271.277C192.791 274.164 190.265 276.714 187.964 279.361C185.542 282.151 183.149 284.964 180.813 287.823C171.681 299.017 163.394 311.106 158.596 324.833C155.961 332.378 154.308 340.456 154.71 348.472C154.756 349.445 156.208 349.457 156.243 348.466Z" fill="#222222"/>
<path d="M214.554 210.823C215.524 211.464 216.201 212.278 216.483 213.412C216.615 213.086 216.747 212.759 216.884 212.432C216.483 212.61 215.903 212.392 215.473 212.381C215.059 212.369 214.617 212.427 214.244 212.621C213.481 213.023 213.125 213.859 213.28 214.69C213.435 215.52 213.986 216.219 214.663 216.706C215.151 217.056 216.816 217.646 216.42 218.465C216.121 219.09 215.008 219.164 214.451 219.05C213.332 218.815 212.333 218.03 211.266 217.635C209.429 216.953 207.575 217.428 206.054 218.586C204.419 219.829 203.299 221.559 201.979 223.1C200.464 224.865 198.731 226.394 196.808 227.701C193.382 230.027 189.462 231.322 185.651 232.851C181.513 234.513 177.61 236.541 174.901 240.196C174.115 241.25 175.894 242.27 176.669 241.227C179.022 238.059 182.62 236.266 186.202 234.828C189.955 233.321 193.852 232.049 197.273 229.843C199.075 228.68 200.734 227.294 202.226 225.758C203.678 224.269 204.82 222.516 206.272 221.032C206.915 220.379 207.638 219.743 208.516 219.445C209.59 219.078 210.594 219.439 211.57 219.909C213.228 220.705 214.847 221.485 216.655 220.637C218.394 219.823 218.974 217.772 217.504 216.374C217.148 216.036 214.985 215.051 215.151 214.449C215.26 214.059 215.96 214.289 216.305 214.289C216.839 214.289 217.292 214.191 217.763 213.933C218.078 213.762 218.285 213.303 218.164 212.954C217.625 211.453 216.563 210.238 215.002 209.78C214.348 209.596 214.026 210.473 214.554 210.823Z" fill="#222222"/>
<path d="M169.931 269.512C172.978 261.571 174.689 253.23 176.078 244.865C177.53 236.145 178.781 227.385 180.112 218.643C180.784 214.226 181.455 209.808 182.127 205.391C182.73 201.438 183.734 197.25 182.931 193.257C182.288 190.066 179.958 186.874 176.617 186.175C173.529 185.528 170.901 187.298 169.248 189.773C167.417 192.518 166.568 195.864 165.517 198.952C164.301 202.532 163.072 206.107 161.792 209.671C159.233 216.821 156.489 223.908 153.315 230.811C150.188 237.606 146.641 244.223 142.462 250.434C140.362 253.556 138.106 256.57 135.673 259.44C133.268 262.27 130.651 264.889 128.085 267.57C123.138 272.738 118.667 278.364 117.772 285.686C116.83 293.408 119.453 301.017 119.729 308.705C119.798 310.653 119.717 312.601 119.39 314.52C119.792 314.291 120.199 314.062 120.601 313.833C119.442 313.581 118.42 312.979 117.737 311.994C117.094 311.071 116.968 309.891 116.084 309.129C114.426 307.703 112.279 309.192 111.682 310.934C111.326 311.971 111.51 313.031 111.768 314.068C112.055 315.219 112.732 316.743 111.717 317.746C110.833 318.617 110.546 317.288 110.293 316.612C109.926 315.609 109.358 314.79 108.445 314.205C104.049 311.41 99.8993 315.878 97.0124 318.674C93.4253 322.146 89.6603 325.48 85.4935 328.248C80.8504 331.33 75.6792 333.713 70.112 334.452C68.8264 334.624 68.8092 336.664 70.112 336.492C79.9722 335.186 88.3058 329.451 95.4972 322.896C97.3338 321.224 99.0556 319.425 100.881 317.74C102.482 316.256 104.715 314.715 106.982 315.689C108.899 316.514 108.348 319.258 110.408 319.929C112.313 320.553 114.001 318.634 114.213 316.892C114.38 315.506 113.766 314.205 113.525 312.87C113.41 312.234 113.415 311.627 113.806 311.083C114.15 310.602 114.558 310.327 114.994 310.842C115.35 311.266 115.47 311.977 115.728 312.469C115.998 312.991 116.36 313.478 116.762 313.902C117.651 314.836 118.828 315.46 120.085 315.729C120.561 315.832 121.204 315.592 121.296 315.042C122.57 307.519 120.343 300.209 119.694 292.755C119.373 289.066 119.43 285.325 120.601 281.772C121.686 278.49 123.649 275.556 125.853 272.915C128.051 270.285 130.502 267.879 132.878 265.404C135.363 262.815 137.71 260.11 139.908 257.275C144.333 251.557 148.139 245.398 151.473 238.987C158.205 226.056 163.061 212.26 167.744 198.493C168.731 195.583 169.541 192.26 171.613 189.888C172.542 188.822 173.765 188.02 175.217 187.98C176.853 187.929 178.328 188.891 179.361 190.094C181.903 193.05 181.398 197.347 180.864 200.911C180.227 205.179 179.573 209.442 178.924 213.704C177.633 222.201 176.365 230.703 175.056 239.199C173.811 247.266 172.428 255.332 170.287 263.216C169.747 265.198 169.196 267.175 168.576 269.134C168.278 270.022 169.609 270.349 169.931 269.512Z" fill="#222222"/>
<path d="M184.428 234.593C185.444 233.722 186.018 232.181 186.586 230.995C187.195 229.729 187.757 228.434 188.308 227.145C189.422 224.527 190.449 221.88 191.385 219.193C191.769 218.081 190.007 217.606 189.628 218.711C188.704 221.364 187.7 223.994 186.609 226.589C186.076 227.861 185.496 229.11 184.945 230.37C184.417 231.573 183.608 232.891 183.522 234.22C183.476 234.713 184.101 234.868 184.428 234.593Z" fill="#222222"/>
<path d="M184.256 217.531C183.791 217.675 183.493 218.07 183.195 218.431C182.873 218.821 182.58 219.239 182.276 219.64C181.685 220.442 181.123 221.273 180.572 222.098C180.032 222.905 179.504 223.713 178.988 224.532C178.718 224.951 178.454 225.375 178.19 225.799C177.891 226.28 177.576 226.698 177.501 227.265C177.427 227.827 178.201 228.222 178.643 227.918C179.085 227.615 179.298 227.156 179.579 226.71C179.826 226.309 180.078 225.913 180.325 225.518C180.859 224.676 181.404 223.839 181.955 223.009C182.489 222.201 183.04 221.404 183.568 220.597C183.826 220.207 184.096 219.817 184.342 219.422C184.601 219.01 184.934 218.534 184.922 218.036C184.916 217.709 184.589 217.428 184.256 217.531Z" fill="#222222"/>
<path d="M174.459 176.889C182.586 176.379 186.799 167.573 194.696 166.473C196.493 166.221 198.341 166.393 200.08 166.92C200.981 167.195 201.842 167.573 202.657 168.049C203.334 168.444 204.017 169.149 204.872 168.977C205.676 168.811 206.295 167.98 206.955 167.539C207.834 166.949 208.786 166.496 209.802 166.198C211.581 165.677 213.602 165.66 214.968 167.08C216.236 168.398 216.735 170.289 217.453 171.922C218.205 173.64 219.243 175.273 220.965 176.155C222.136 176.751 223.169 174.992 221.998 174.391C218.865 172.787 218.802 168.335 216.615 165.843C214.009 162.875 209.573 163.609 206.502 165.407C206.072 165.66 205.658 165.946 205.262 166.25C205.09 166.381 204.924 166.513 204.757 166.651C204.574 166.805 204.224 166.88 204.505 166.949C204.958 167.052 204.08 166.525 204.103 166.542C203.919 166.427 203.736 166.313 203.546 166.204C203.076 165.935 202.588 165.705 202.089 165.493C200.424 164.783 198.639 164.393 196.831 164.33C192.808 164.199 189.261 165.929 186.104 168.278C182.385 171.039 178.902 174.471 174.304 175.72C173.667 175.892 173.776 176.929 174.459 176.889Z" fill="#222222"/>
<path d="M198.008 175.124C199.047 176.734 201.492 177.124 203.254 177.124C205.291 177.118 207.369 176.459 209.091 175.388C209.567 175.09 210.02 174.603 210.606 174.654C211.168 174.706 211.811 175.055 212.316 175.285C213.406 175.766 214.463 176.327 215.593 176.723C217.304 177.324 220.162 177.731 221.505 176.161C222.05 175.525 221.539 174.505 220.667 174.729C219.657 174.981 218.888 175.353 217.803 175.233C216.787 175.118 215.823 174.74 214.899 174.316C213.274 173.572 210.91 171.956 209.131 172.987C208.31 173.463 207.61 174.053 206.732 174.437C205.825 174.832 204.843 175.095 203.856 175.199C202.938 175.296 202.002 175.296 201.096 175.113C200.189 174.929 199.305 174.557 198.392 174.454C198.059 174.414 197.841 174.861 198.008 175.124Z" fill="#222222"/>
<path d="M196.458 174.293C194.598 174.62 192.854 175.244 191.029 175.731C189.238 176.207 187.413 176.573 185.57 176.768C182.127 177.135 178.471 177.066 175.291 175.525C174.35 175.072 173.61 176.333 174.471 176.923C177.708 179.14 181.794 179.18 185.57 178.773C189.45 178.355 193.812 177.547 196.911 175.067C197.307 174.746 196.86 174.219 196.458 174.293Z" fill="#222222"/>
<path d="M218.021 176.785C218.233 183.849 211.197 187.453 205.067 187.997C201.601 188.301 198.002 188.112 194.564 187.608C191.321 187.132 188.102 186.255 185.226 184.657C182.27 183.013 179.848 180.629 178.15 177.713C177.719 176.968 176.37 177.467 176.709 178.321C179.401 185.064 186.713 188.387 193.474 189.492C200.596 190.655 209.36 191.097 215.341 186.359C218.17 184.118 220.713 180.131 218.945 176.539C218.721 176.092 218.004 176.31 218.021 176.785Z" fill="#222222"/>
<path d="M105.765 160.033C106.517 174.579 105.891 189.275 102.648 203.512C99.6181 216.815 94.4584 229.597 87.0604 241.084C80.133 251.837 71.3059 261.457 60.9176 268.968C49.6398 277.126 36.5713 282.064 24.4727 288.802C18.676 292.033 12.9481 295.671 8.31644 300.478C4.12672 304.832 0.625711 310.286 0.0632539 316.422C-0.0744905 317.918 0.0173391 319.379 0.246913 320.857C0.413355 321.911 2.22125 321.676 2.12368 320.605C0.883982 307.072 13.4417 297.659 23.8471 291.655C35.894 284.706 49.0773 279.83 60.5216 271.838C70.9328 264.568 79.8632 255.309 87.0202 244.842C94.556 233.819 100.066 221.456 103.458 208.565C107.131 194.62 108.681 179.816 107.481 165.43C107.332 163.625 107.096 161.832 106.873 160.039C106.792 159.346 105.725 159.305 105.765 160.033Z" fill="#222222"/>
<path d="M209.819 93.8955C207.776 95.7975 207.024 98.6163 206.6 101.286C206.135 104.208 206.072 107.199 206.295 110.149C206.749 116.062 208.39 121.802 210.807 127.205C212.018 129.921 213.435 132.55 215.019 135.065C216.425 137.305 219.083 140.015 218.779 142.868C218.486 145.601 215.748 147.251 213.521 148.34C211.237 149.457 207.736 150.517 206.714 153.112C206.141 154.579 206.548 156.143 207.024 157.575C207.386 158.675 208.218 160.858 206.72 161.5C205.228 162.141 204.006 160.658 203.684 159.386C203.259 157.713 203.845 155.931 204.287 154.321C204.62 153.089 202.806 152.62 202.387 153.8C201.411 156.561 200.7 159.901 202.846 162.336C204.511 164.227 207.954 164.324 209.228 161.929C209.888 160.698 209.728 159.231 209.36 157.936C208.964 156.538 207.92 154.722 209.004 153.399C209.951 152.241 211.645 151.577 212.965 150.947C214.371 150.276 215.817 149.64 217.085 148.724C219.289 147.137 221.143 144.742 220.862 141.883C220.558 138.778 218.222 136.257 216.638 133.708C213.211 128.19 210.571 122.157 209.211 115.792C207.707 108.768 207.673 101.149 210.611 94.497C210.824 94.0043 210.256 93.4887 209.819 93.8955Z" fill="#222222"/>
<path d="M189.324 141.838C187.344 142.267 186.799 144.811 186.736 146.547C186.667 148.506 187.321 150.655 188.635 152.133C189.37 152.958 190.816 151.869 190.179 150.941C189.313 149.669 188.71 148.386 188.612 146.828C188.567 146.083 188.63 145.355 188.802 144.628C188.94 144.043 189.146 143.115 189.726 142.8C190.271 142.502 189.892 141.717 189.324 141.838Z" fill="#222222"/>
<path d="M186.982 96.3648C188.721 93.5518 189.123 89.5413 187.465 86.5965C185.886 83.8007 182.775 82.2882 179.934 81.1023C172.869 78.1689 165.167 76.8512 157.557 77.9913C153.424 78.6101 149.424 80.0023 145.825 82.1221C145.079 82.5575 145.125 83.9497 146.084 84.1101C149.791 84.7231 153.528 84.3679 157.264 84.4137C161.052 84.4653 164.84 84.8205 168.53 85.7257C174.918 87.2955 180.836 90.6184 184.796 95.9523C185.53 96.9377 187.2 96.0325 186.489 94.9669C182.747 89.3637 176.594 85.7887 170.189 84.0127C166.481 82.9814 162.63 82.5231 158.796 82.3627C154.773 82.1965 150.652 82.7064 146.663 82.0132C146.75 82.6778 146.836 83.3366 146.922 84.0012C152.736 80.5809 159.531 79.3148 166.223 79.8705C169.684 80.157 173.082 80.9476 176.37 82.0419C179.183 82.9814 182.379 84.1044 184.56 86.2012C185.794 87.3872 186.546 88.8653 186.655 90.5898C186.77 92.446 186.196 94.2622 185.961 96.0898C185.886 96.657 186.718 96.783 186.982 96.3648Z" fill="#222222"/>
<path d="M216.156 101.034C216.919 98.5477 218.623 96.1586 221.126 95.2133C223.846 94.1878 226.928 95.2133 229.482 96.2961C234.338 98.3586 238.832 102.254 240.014 107.583C240.531 107.285 241.047 106.981 241.564 106.683C234.82 101.126 225.229 98.605 216.638 100.536C215.547 100.782 216.035 102.329 217.091 102.169C225.35 100.925 233.603 102.856 240.249 107.995C240.944 108.534 242.052 108.07 241.799 107.096C240.209 100.879 235.101 96.4394 229.241 94.2279C226.148 93.0592 222.733 92.3602 219.651 93.9243C217.034 95.2592 215.019 97.906 215.174 100.908C215.209 101.458 215.983 101.584 216.156 101.034Z" fill="#222222"/>
<path d="M240.186 122.851C235.951 124.644 231.107 123.413 226.699 122.118C222.343 120.84 217.619 119.522 213.366 121.041L213.315 120.892C215.111 118.669 218.159 117.798 221.023 117.815C223.887 117.821 226.682 118.594 229.511 119.058C232.335 119.522 235.342 119.66 237.959 118.497C238.706 119.958 239.446 121.402 240.186 122.851Z" fill="#222222"/>
<path d="M178.178 112.791C180.216 112.888 182.328 113.432 183.82 114.825L183.803 114.928C178.729 114.091 173.541 115.048 168.421 115.598C163.291 116.142 157.827 116.217 153.275 113.776C151.846 113.008 150.549 112.012 149.252 111.015L141.469 105.033C144.534 104.741 147.513 103.578 149.958 101.71C154.802 108.849 163.417 113.26 172.043 113.037C174.103 112.985 176.141 112.688 178.178 112.791Z" fill="#222222"/>
<path d="M193.657 150.345C193.657 150.345 197.939 145.619 200.797 147.744C203.661 149.864 193.657 150.345 193.657 150.345Z" fill="#222222"/>
<path d="M106.637 119.694C105.53 115.048 100.163 112.303 95.7211 112.063C90.2974 111.771 85.7748 115.288 83.3011 119.895C80.3339 125.412 79.8288 132.224 81.5736 138.199C83.1921 143.745 86.7562 148.523 91.0894 152.27C96.2204 156.705 102.551 160.429 109.358 161.334C110.678 161.511 110.661 159.437 109.358 159.266C103.854 158.532 98.6826 155.587 94.3379 152.259C90.2916 149.165 86.7505 145.252 84.6556 140.577C82.3139 135.352 82.0384 129.273 83.8578 123.848C85.3386 119.442 88.6215 115.053 93.477 114.234C95.7498 113.85 98.166 114.297 100.226 115.306C102.482 116.411 104.072 118.164 105.512 120.17C105.908 120.714 106.804 120.399 106.637 119.694Z" fill="#222222"/>
<path d="M87.3014 132.155C87.2784 130.293 87.0201 128.494 87.4219 126.644C87.8179 124.822 88.6099 123.04 89.8554 121.636C91.0893 120.25 92.8628 119.121 94.7912 119.562C96.7483 120.015 98.3726 121.602 99.4401 123.235C100.617 125.04 101.282 127.085 101.765 129.165C102.229 131.181 102.637 133.267 102.689 135.346C102.74 137.569 102.103 139.294 101.127 141.242C100.186 143.132 99.9853 145.206 100.152 147.292C100.462 151.205 102.746 155.37 107.096 155.593C108.118 155.645 108.112 154.069 107.096 154.012C102.12 153.737 101.248 147.085 102.516 143.367C102.861 142.353 103.492 141.471 103.928 140.497C104.364 139.523 104.606 138.497 104.726 137.437C104.979 135.226 104.657 133.009 104.25 130.837C103.475 126.678 102.224 122.227 98.826 119.413C97.2305 118.09 95.2217 117.15 93.1096 117.443C91.1525 117.712 89.4307 118.927 88.1852 120.41C85.6656 123.418 83.9783 128.838 86.3142 132.413C86.5954 132.848 87.3128 132.699 87.3014 132.155Z" fill="#222222"/>
<path d="M106.471 119.963C108.325 114.24 105.822 107.703 103.165 102.632C100.41 97.3902 96.6507 92.7553 92.6905 88.3783C88.5582 83.8178 84.1561 79.4923 80.2189 74.7543C76.2358 69.9647 72.8438 64.6767 70.6629 58.8214C68.2237 52.2844 67.4488 45.5699 67.4775 38.6376C67.4833 37.5891 66.0025 37.6464 65.882 38.6376C65.1818 44.5673 66.0427 50.7949 67.7129 56.5011C69.4232 62.3392 72.1781 67.7876 75.7881 72.6746C82.9853 82.4199 92.6733 90.0855 99.3654 100.226C103.205 106.047 106.115 112.693 105.265 119.797C105.179 120.513 106.27 120.588 106.471 119.963Z" fill="#222222"/>
<path d="M106.408 113.14C107.022 109.64 106.867 106.024 107.027 102.478C107.188 99.0062 107.475 95.5286 108.325 92.1484C109.949 85.7088 114.047 80.3749 118.673 75.74C121.244 73.1619 124.068 70.6926 127.15 68.7332C126.754 68.3379 126.363 67.9483 125.967 67.553C124.159 70.2457 123.586 73.4082 123.063 76.5478C122.524 79.7848 121.818 82.9645 120.756 86.0754C118.644 92.2629 115.459 98.0093 111.521 103.223C109.398 106.036 106.494 108.528 105.277 111.908C104.99 112.705 106.218 113.008 106.528 112.252C107.177 110.659 108.325 109.393 109.461 108.133C110.534 106.941 111.608 105.749 112.618 104.5C114.586 102.071 116.371 99.5104 117.932 96.8005C121.129 91.2546 123.499 85.2562 124.624 78.9369C125.261 75.3619 125.594 71.615 127.454 68.4181C127.861 67.7192 127 66.7051 126.272 67.2379C120.865 71.191 115.987 75.5223 111.958 80.9077C109.937 83.6062 108.284 86.5166 107.251 89.7364C106.184 93.0593 105.696 96.5713 105.495 100.043C105.254 104.323 105.151 108.729 105.455 113.003C105.501 113.512 106.31 113.707 106.408 113.14Z" fill="#222222"/>
<path d="M99.4115 97.8317C97.1731 95.3395 93.9648 94.0963 90.8082 93.1796C87.2153 92.1369 83.502 91.415 79.7714 91.1457C76.0867 90.8765 72.3217 91.1285 68.7346 92.0567C65.05 93.0077 61.6293 94.7322 58.3234 96.5713C57.7093 96.9093 57.7954 97.7343 58.3234 98.0952C64.3038 102.163 71.8913 103.928 79.0482 104.288C82.7157 104.472 86.1249 103.882 89.4824 102.404C92.7022 100.988 95.7957 99.0463 99.3598 98.6452C100.29 98.5421 100.301 97.0697 99.3598 97.1785C96.0826 97.5509 93.2072 99.0348 90.2744 100.438C86.8997 102.054 83.5881 102.982 79.8116 102.873C76.1556 102.764 72.4537 101.962 68.9355 100.994C65.4804 100.043 62.1171 98.7082 59.2188 96.5713C59.2188 97.0812 59.2188 97.5853 59.2188 98.0952C62.3467 96.3707 65.5608 94.7494 69.0331 93.8327C72.4767 92.9218 76.0408 92.7155 79.5877 92.9332C86.2167 93.3343 93.2015 94.9556 98.8088 98.628C99.3024 98.9489 99.7788 98.2442 99.4115 97.8317Z" fill="#222222"/>
<path d="M91.7608 88.0635C91.0204 86.5567 90.0964 85.1531 89.3273 83.6635C88.5353 82.1281 87.8523 80.5468 87.2611 78.9254C86.1247 75.7859 85.3844 72.4973 85.1261 69.1687C84.6153 62.6259 85.9239 56.0145 88.8567 50.1421C90.5211 46.802 92.6848 43.777 95.2388 41.0613C94.7797 40.7978 94.3263 40.5285 93.8671 40.265C92.1052 48.1082 96.0194 55.8197 95.9792 63.6687C95.939 71.764 93.1784 79.3838 90.0619 86.7458C89.6774 87.6624 90.986 88.476 91.4279 87.5421C94.7912 80.4666 97.2993 72.6577 97.5346 64.7801C97.6551 60.7582 96.9721 56.8796 96.1399 52.9608C95.2848 48.916 94.4525 44.791 95.4397 40.6947C95.6291 39.9212 94.6592 39.2967 94.068 39.8983C84.2595 49.953 80.8905 65.0952 85.3212 78.3755C86.515 81.9562 88.254 85.9723 90.986 88.6536C91.3992 89.0604 92.0018 88.5562 91.7608 88.0635Z" fill="#222222"/>
<path d="M75.019 69.6442C73.3259 67.066 70.3013 65.5593 67.3742 64.8259C63.9363 63.9665 60.3378 64.0983 56.8712 64.6827C50.0299 65.8285 43.7109 69.0082 37.9543 72.7666C37.2082 73.2535 37.4779 74.4681 38.4192 74.4739C41.7652 74.4796 44.8932 75.6942 48.1129 76.4275C51.3499 77.1608 54.6902 77.2754 57.9846 76.9317C64.0683 76.2957 70.0488 74.216 75.0822 70.7212C75.9718 70.1025 75.1568 68.6473 74.2213 69.2488C69.1075 72.5202 63.3624 74.6916 57.2844 75.2186C54.036 75.4994 50.8391 75.2817 47.6768 74.4681C44.6177 73.6832 41.616 72.6577 38.4192 72.6405C38.5741 73.2077 38.7291 73.7806 38.8841 74.3478C44.2331 70.8817 50.0299 67.9884 56.3202 66.7051C59.5285 66.0462 62.9205 65.7884 66.1575 66.4301C69.2395 67.0431 71.7763 68.5384 74.2385 70.4291C74.6976 70.7785 75.3175 70.0968 75.019 69.6442Z" fill="#222222"/>
<path d="M67.2767 48.2855C66.8865 44.7163 66.5765 41.0439 66.6225 37.4517C66.6626 34.0944 67.2538 30.7829 68.2524 27.5803C70.1923 21.324 73.4638 15.6121 76.7237 9.96882C76.2301 9.83705 75.7423 9.70528 75.2487 9.56778C74.8699 13.1943 75.5988 16.7063 76.2875 20.247C76.9476 23.6386 77.3608 27.0532 77.3493 30.5194C77.3321 33.9798 76.9016 37.4116 76.0006 40.7517C75.0765 44.172 73.4925 47.2772 72.0634 50.497C70.5137 53.9803 69.32 57.6642 70.1235 61.497C70.2899 62.3048 71.6673 62.1387 71.587 61.3022C70.8753 54.1866 75.8169 48.1652 77.6477 41.5881C79.4212 35.2116 79.4384 28.3996 78.3193 21.9084C77.6191 17.8293 76.408 13.7443 76.8328 9.57351C76.9131 8.7657 75.7251 8.53653 75.3578 9.17247C72.0174 14.9704 68.6083 20.8829 66.7487 27.3511C65.8017 30.6511 65.3254 34.0199 65.3196 37.4517C65.3139 41.1756 65.9337 44.7335 66.5249 48.3887C66.5823 48.8184 67.3227 48.721 67.2767 48.2855Z" fill="#222222"/>
<path d="M70.7662 61.2052C69.802 59.7443 68.5623 58.5412 67.4202 57.2292C66.2149 55.8484 65.09 54.399 64.0684 52.8807C62.0367 49.8729 60.378 46.6187 59.1785 43.1927C56.5039 35.5729 56.0964 27.3114 57.9043 19.451C57.3132 19.451 56.722 19.451 56.1309 19.451C57.4394 22.7796 59.4023 25.7416 61.302 28.7552C62.2375 30.239 63.3165 31.6369 64.1028 33.2067C64.9293 34.851 65.5204 36.5755 66.0025 38.3515C66.1633 38.9474 67.1963 38.85 67.116 38.2026C66.9036 36.5067 66.3756 34.9312 65.6869 33.3786C64.9695 31.7515 64.2119 30.05 63.2821 28.5317C61.3652 25.4208 59.2416 22.3901 57.9101 18.964C57.6059 18.1848 56.3604 18.0015 56.1366 18.964C53.2382 31.3333 55.798 44.6021 63.2362 54.926C65.0785 57.4813 67.2365 60.4146 70.0947 61.8813C70.5022 62.0932 71.0532 61.6464 70.7662 61.2052Z" fill="#222222"/>
<path d="M104.531 106.053C105.88 101.332 105.702 96.0955 105.484 91.2372C105.254 86.1726 104.709 81.1309 104.359 76.0778C103.687 66.3726 103.676 56.3121 107.917 47.3288C110.144 42.608 113.272 38.3684 117.129 34.8564C117.961 34.1001 116.715 32.8569 115.895 33.6246C108.864 40.1329 104.296 48.8642 102.855 58.3231C101.323 68.4064 102.964 78.5757 103.63 88.6591C103.813 91.4835 103.922 94.308 103.894 97.144C103.865 100.077 103.544 102.982 103.4 105.91C103.366 106.563 104.353 106.666 104.531 106.053Z" fill="#222222"/>
<path d="M116.526 34.4669C118.311 32.2554 118.518 29.1044 118.77 26.3773C119.069 23.1804 119.264 19.9835 119.981 16.844C121.296 11.0804 124.418 6.11894 129.176 2.58404C128.717 2.3205 128.257 2.05696 127.798 1.79341C127.632 3.68404 128.24 5.56894 129.44 7.04134C130.754 8.65124 132.757 9.00072 134.301 10.2726C135.317 11.1091 135.3 12.0372 135.403 13.2346C135.472 14.071 136.04 14.2887 136.792 14.3747C138.055 14.5179 139.116 15.2455 139.834 16.2882C140.155 16.758 140.39 17.2679 140.574 17.8065C140.735 18.282 141.194 19.3018 140.987 19.7888C141.102 19.6398 141.217 19.4851 141.337 19.3361C140.913 19.5596 140.098 19.5252 139.621 19.6341C139.025 19.7716 138.433 19.9434 137.854 20.1497C136.838 20.5106 135.856 20.9575 134.909 21.4674C132.792 22.6132 130.863 24.0684 128.998 25.5752C125.216 28.6289 121.519 32.0549 116.762 33.4929C115.786 33.7851 116.205 35.3148 117.181 35.0169C124.108 32.9372 128.659 27.0476 134.674 23.4153C136.201 22.4929 137.819 21.7195 139.547 21.2611C140.781 20.9346 142.738 21.1122 142.52 19.3419C142.325 17.7664 141.613 16.082 140.586 14.8617C140.063 14.2429 139.415 13.733 138.68 13.3893C138.336 13.2288 137.98 13.1028 137.607 13.0226C137.412 12.9825 136.775 13.0169 136.643 12.8794C136.712 13.0512 136.786 13.2231 136.855 13.3893C136.78 12.1632 136.786 11.0804 136.074 10.0033C135.409 8.99499 134.376 8.42207 133.337 7.86634C132.206 7.25905 131.121 6.62311 130.41 5.52311C129.681 4.39446 129.457 3.11112 129.623 1.78768C129.71 1.11164 128.774 0.624662 128.246 0.997058C123.494 4.33717 120.096 9.32155 118.575 14.9075C117.737 17.9898 117.399 21.1867 117.158 24.3664C117.037 25.9705 116.968 27.5804 116.75 29.1731C116.526 30.8174 116.061 32.3987 115.763 34.0257C115.7 34.4153 116.211 34.8507 116.526 34.4669Z" fill="#222222"/>
<path d="M116.824 35.0342C117.766 35.0972 118.673 35.0399 119.591 35.3321C120.578 35.6472 121.496 36.1915 122.374 36.73C124.085 37.7785 125.6 39.0675 126.977 40.5227C129.411 43.0951 131.982 46.0972 135.85 46.0571C136.488 46.0514 136.975 45.3066 136.608 44.7394C135.965 43.7483 136.625 42.6483 137.021 41.68C137.475 40.5686 137.859 39.4285 137.968 38.2253C138.152 36.1571 137.285 34.2894 135.81 32.8686C135.414 32.4847 135.231 32.5649 135.541 32.1352C135.822 31.7514 136.011 31.1785 136.166 30.7373C136.51 29.729 136.625 28.6404 136.493 27.5805C136.269 25.8274 135.259 24.017 133.635 23.2149C132.849 22.8253 132.286 23.8566 132.964 24.3665C134.68 25.6613 135.46 27.5863 134.949 29.7061C134.817 30.2446 134.616 30.7602 134.352 31.2415C134.152 31.6024 133.865 31.9232 133.801 32.3472C133.681 33.1894 134.427 33.6477 134.949 34.1691C136.803 36.0311 136.706 38.2196 135.667 40.4941C134.921 42.1212 133.956 43.9144 135.099 45.616C135.351 45.1748 135.604 44.7394 135.856 44.2983C131.58 44.4472 129.118 39.967 126.254 37.5092C124.785 36.2488 123.144 35.08 121.364 34.3009C119.895 33.6592 117.846 33.029 116.526 34.2837C116.228 34.5644 116.463 35.0113 116.824 35.0342Z" fill="#222222"/>
<path d="M116.067 34.7705C117.519 32.9372 116.842 29.9236 116.48 27.7981C116.027 25.1111 115.103 22.5903 114.23 20.0179C113.381 17.5085 112.784 14.9934 112.95 12.3236C113.128 9.53349 114.029 6.86942 115.2 4.34859C114.667 4.27983 114.133 4.21108 113.605 4.14233C114.007 5.79807 115.591 6.13036 117.06 6.33088C118.816 6.5715 120.176 7.63713 120.773 9.31578C121.106 10.2668 122.575 9.8887 122.3 8.89755C121.91 7.47671 120.991 6.27932 119.734 5.50015C119.086 5.09911 118.363 4.85275 117.617 4.72671C116.819 4.59494 115.487 4.68661 115.292 3.67254C115.149 2.93921 114.029 2.8189 113.697 3.46629C111.28 8.07828 110.454 13.3147 111.831 18.3736C112.52 20.8944 113.576 23.295 114.259 25.8158C114.644 27.2309 114.931 28.6747 115.108 30.1299C115.269 31.396 115.631 33.0747 115.286 34.3236C115.172 34.7304 115.763 35.1486 116.067 34.7705Z" fill="#222222"/>
<path d="M136.935 40.4882C137.859 41.0783 138.979 41.3762 139.943 41.9205C140.976 42.4992 141.929 43.1752 142.795 43.9945C143.099 44.2809 143.719 44.2809 143.92 43.8513C144.632 42.3158 145.653 40.6658 145.717 38.9299C145.768 37.4976 145.12 36.1111 144.098 35.1257C144.138 35.4351 144.178 35.7445 144.219 36.0538C145.458 34.3408 146.497 32.3242 146.388 30.1528C146.296 28.3366 145.372 26.6064 143.731 25.7528C143.823 26.1023 143.914 26.4575 144.006 26.807C145.344 24.2174 144.552 21.0262 141.86 19.7085C141.016 19.296 140.27 20.522 141.114 20.9804C142.973 22.0059 143.748 24.1429 142.675 26.0278C142.48 26.3715 142.577 26.8929 142.95 27.082C146.273 28.7606 144.764 32.8971 143.013 35.1257C142.772 35.4351 142.669 35.9106 143.013 36.2085C145.338 38.2309 143.719 40.8778 142.68 43.1294C143.054 43.0835 143.432 43.032 143.805 42.9861C142.158 41.445 139.524 39.5601 137.125 39.795C136.763 39.8294 136.603 40.2762 136.935 40.4882Z" fill="#222222"/>
<path d="M119.08 6.11316C119.976 4.50326 119.947 2.71576 119.373 0.991281C118.931 1.24909 118.489 1.50118 118.053 1.75899C120.997 4.52045 125.107 1.80482 128.458 1.59284C130.335 1.47253 132.321 1.78191 133.825 2.98503C135.15 4.05066 136.074 5.72358 135.776 7.45952C135.684 8.00952 135.994 8.38192 136.528 8.45067C139.001 8.76577 141.102 11.0861 142.118 13.2288C143.231 15.5892 142.933 17.9496 141.515 20.0809C141.045 20.7856 142.106 21.5877 142.686 20.9804C147.226 16.2366 142.319 7.62567 136.534 6.8866C136.786 7.21889 137.039 7.54546 137.285 7.87775C137.905 4.30274 135.208 1.17461 131.839 0.315238C129.847 -0.194658 127.747 -0.0285121 125.767 0.429822C123.746 0.899614 120.991 2.33191 119.172 0.64753C118.638 0.149092 117.559 0.630343 117.852 1.41524C118.369 2.80743 118.374 4.26837 118.173 5.72931C118.093 6.24493 118.776 6.65171 119.08 6.11316Z" fill="#222222"/>
<path d="M115.929 34.4097C116.044 33.5904 116.176 32.8342 116.119 31.9977C116.067 31.2415 115.929 30.4795 115.734 29.7461C115.327 28.2279 114.58 26.8071 113.524 25.6441C111.102 22.9628 107.435 22.5847 104.284 21.2097C103.371 20.8144 102.648 21.9774 103.498 22.556C104.095 22.9628 104.273 23.7248 104.422 24.3894C104.594 25.1456 104.72 25.9019 104.99 26.6352C105.529 28.0961 106.39 29.4368 107.521 30.5196C108.663 31.6139 110.006 32.3243 111.475 32.88C112.859 33.4071 114.454 33.854 115.355 35.1258C115.877 35.8649 117.1 35.1659 116.583 34.4097C115.648 33.0462 114.242 32.3873 112.755 31.7743C111.252 31.1555 109.8 30.5711 108.606 29.431C107.435 28.3139 106.585 26.8873 106.189 25.3175C105.805 23.7878 105.679 22.1951 104.29 21.2097C104.026 21.6566 103.762 22.1092 103.503 22.556C106.339 23.8107 109.834 24.1316 112.13 26.3831C113.134 27.3685 113.829 28.629 114.27 29.9524C114.718 31.293 114.982 32.8628 114.971 34.2722C114.953 34.8165 115.855 34.9769 115.929 34.4097Z" fill="#222222"/>
<path d="M103.549 75.184C105.736 67.908 107.056 59.9501 112.922 54.5418C118.782 49.1392 127.098 48.1366 134.726 47.8788C134.496 47.4777 134.261 47.0709 134.031 46.6699C130.605 52.6168 126.346 58.2085 121.06 62.6314C118.397 64.86 115.459 66.6934 112.313 68.1715C109.013 69.7184 105.633 71.059 102.752 73.3449C101.965 73.9694 103.079 75.0694 103.859 74.4507C106.855 72.0788 110.5 70.8012 113.897 69.1455C116.968 67.6501 119.809 65.7423 122.415 63.5309C127.712 59.0335 131.839 53.3902 135.426 47.4892C135.736 46.9793 135.34 46.2574 134.731 46.2803C128.298 46.4866 121.714 47.2314 115.987 50.3996C110.666 53.3444 107.177 58.3574 105.156 63.9949C103.871 67.5814 103.096 71.2996 102.62 75.0694C102.545 75.6022 103.4 75.6767 103.549 75.184Z" fill="#222222"/>
<path d="M105.529 51.5628C105.914 48.0967 105.329 44.5732 104.611 41.1815C103.928 37.9216 103.073 34.6732 102.132 31.4763C100.45 25.7758 98.0339 20.1154 93.4137 16.168C90.7047 13.8534 87.5825 12.318 84.4201 10.7367C83.9495 10.5018 83.2264 10.7768 83.278 11.3898C83.7429 16.9529 83.9667 22.6247 84.9711 28.1248C85.832 32.8399 87.6916 37.6295 91.4336 40.8149C92.1338 41.4107 93.1554 40.4253 92.461 39.7894C88.8968 36.5237 87.2324 31.9862 86.4174 27.3284C85.5049 22.0862 85.2868 16.6893 84.7989 11.3898C84.4775 11.6305 84.1561 11.8768 83.8405 12.1174C89.3675 14.3003 94.3377 17.8867 97.3165 23.1003C100.255 28.2393 101.673 34.2607 102.987 39.9841C103.871 43.817 104.341 47.6441 104.623 51.5628C104.663 52.1586 105.466 52.1415 105.529 51.5628Z" fill="#222222"/>
<path d="M94.5043 43.0376C95.4742 43.7079 96.3982 44.4756 97.3223 45.209C98.2635 45.9537 99.1703 46.7558 100.026 47.598C100.863 48.423 101.661 49.2881 102.407 50.1991C102.78 50.6517 103.142 51.1157 103.486 51.5913C103.831 52.0668 104.135 52.6225 104.692 52.8574C105.007 52.9892 105.352 52.6626 105.346 52.359C105.34 51.7631 104.864 51.2475 104.525 50.7949C104.158 50.3022 103.773 49.8209 103.383 49.3454C102.597 48.4001 101.753 47.5006 100.863 46.647C99.9739 45.7991 99.0383 45.0027 98.0627 44.2579C97.0697 43.4959 96.0252 42.9116 94.929 42.3214C94.4469 42.0579 94.0623 42.7339 94.5043 43.0376Z" fill="#222222"/>
<path d="M202.157 31.161C199.931 36.4203 197.509 41.4276 193.566 45.65C189.456 50.0558 184.274 53.2011 178.701 55.4068C166.751 60.1334 153.625 61.2334 142.055 67.0428C136.413 69.873 131.253 73.6772 127.701 78.9595C127.23 79.6642 128.367 80.323 128.837 79.624C136.017 68.9449 148.816 65.5188 160.645 62.7631C172.634 59.9672 185.341 57.0568 194.289 47.9704C198.593 43.5933 202.393 37.824 203.403 31.688C203.506 31.0005 202.485 30.399 202.157 31.161Z" fill="#222222"/>
<path d="M183.401 108.591C182.948 108.591 182.546 108.276 182.443 107.823C181.897 105.343 180.767 102.931 179.183 100.851C178.856 100.421 178.936 99.8025 179.372 99.476C179.803 99.1494 180.422 99.2296 180.75 99.665C182.506 101.974 183.757 104.649 184.365 107.399C184.48 107.926 184.147 108.454 183.619 108.568C183.539 108.585 183.47 108.591 183.401 108.591ZM151.421 100.547C151.198 100.547 150.974 100.473 150.79 100.318C150.377 99.9687 150.319 99.3499 150.67 98.9374C152.472 96.7832 154.848 95.0187 157.54 93.827C158.033 93.6093 158.613 93.8327 158.837 94.3254C159.055 94.8181 158.831 95.4025 158.337 95.6202C155.915 96.6916 153.786 98.2728 152.179 100.192C151.978 100.427 151.703 100.547 151.421 100.547ZM173.776 95.9754C173.627 95.9754 173.466 95.9411 173.323 95.8608C172.697 95.5343 172.054 95.2536 171.4 95.0187C169.667 94.3885 167.807 94.0619 165.885 94.0447C165.339 94.039 164.903 93.5978 164.909 93.0535C164.915 92.515 165.351 92.0796 165.89 92.0796C165.896 92.0796 165.896 92.0796 165.896 92.0796C168.043 92.0968 170.12 92.4634 172.066 93.1739C172.795 93.4374 173.524 93.7582 174.224 94.1249C174.706 94.377 174.895 94.9671 174.643 95.4483C174.471 95.7864 174.132 95.9754 173.776 95.9754Z" fill="#222222"/>
<path d="M213.429 118.308C213.366 118.308 213.303 118.302 213.234 118.291C212.701 118.187 212.356 117.666 212.459 117.139C213.022 114.326 214.617 111.69 216.953 109.714C217.367 109.37 217.986 109.416 218.337 109.829C218.687 110.241 218.635 110.86 218.222 111.209C216.224 112.899 214.864 115.139 214.388 117.517C214.296 117.981 213.889 118.308 213.429 118.308ZM237.414 118.016C236.967 118.016 236.559 117.706 236.456 117.254C236.421 117.105 236.387 116.956 236.347 116.812C236.203 116.291 236.513 115.752 237.035 115.609C237.563 115.466 238.097 115.775 238.241 116.297C238.287 116.469 238.332 116.641 238.373 116.818C238.493 117.345 238.16 117.872 237.632 117.993C237.558 118.01 237.489 118.016 237.414 118.016ZM232.696 110.951C232.49 110.951 232.283 110.888 232.105 110.757C230.114 109.273 227.743 108.454 225.43 108.454L225.092 108.459C224.552 108.488 224.093 108.058 224.07 107.52C224.047 106.975 224.472 106.523 225.011 106.5L225.287 106.494H225.293C228.162 106.494 230.952 107.451 233.282 109.187C233.718 109.513 233.804 110.126 233.483 110.562C233.288 110.814 232.995 110.951 232.696 110.951Z" fill="#222222"/>
<path d="M193.101 140.646C192.831 140.646 192.555 140.531 192.36 140.313C192.004 139.907 192.039 139.288 192.446 138.927C194.157 137.426 196.097 136.171 198.209 135.197C198.702 134.974 199.288 135.186 199.511 135.678C199.741 136.171 199.523 136.755 199.029 136.979C197.089 137.873 195.31 139.024 193.743 140.399C193.565 140.565 193.336 140.646 193.101 140.646ZM206.508 134.997C206.003 134.997 205.572 134.607 205.532 134.091C205.486 133.553 205.888 133.077 206.433 133.032C206.955 132.991 207.478 132.963 208 132.957C207.518 131.823 207.064 130.665 206.657 129.502C206.473 128.992 206.743 128.431 207.26 128.248C207.765 128.07 208.333 128.334 208.511 128.849C209.073 130.448 209.716 132.029 210.416 133.564C210.56 133.874 210.531 134.24 210.336 134.527C210.141 134.808 209.802 134.957 209.469 134.957C208.517 134.905 207.547 134.922 206.594 134.997C206.565 134.997 206.536 134.997 206.508 134.997ZM205.4 122.284C204.941 122.284 204.533 121.963 204.436 121.499C203.885 118.789 203.512 116.022 203.334 113.266C203.299 112.727 203.713 112.258 204.252 112.223C204.786 112.183 205.262 112.596 205.297 113.14C205.469 115.804 205.83 118.485 206.358 121.109C206.468 121.642 206.123 122.158 205.589 122.266C205.532 122.278 205.463 122.284 205.4 122.284ZM204.35 106.013C204.327 106.013 204.304 106.013 204.275 106.013C203.736 105.973 203.328 105.503 203.368 104.964C203.569 102.197 203.971 99.4299 204.551 96.7372C204.665 96.2101 205.188 95.8721 205.721 95.9867C206.255 96.1013 206.588 96.6226 206.473 97.1554C205.911 99.7565 205.526 102.432 205.331 105.108C205.291 105.617 204.861 106.013 204.35 106.013Z" fill="#222222"/>
<path d="M166.832 126.403C164.846 126.403 162.843 126.283 160.88 126.036C160.34 125.968 159.956 125.481 160.025 124.942C160.094 124.404 160.587 124.02 161.121 124.088C163.761 124.415 166.459 124.512 169.127 124.381C169.621 124.363 170.132 124.77 170.161 125.314C170.183 125.853 169.77 126.317 169.225 126.34C168.427 126.38 167.629 126.403 166.832 126.403ZM177.289 125.251C176.841 125.251 176.434 124.942 176.33 124.484C176.21 123.957 176.548 123.43 177.076 123.309C179.384 122.794 181.656 122.1 183.832 121.247C184.337 121.046 184.911 121.298 185.106 121.802C185.301 122.307 185.054 122.874 184.549 123.074C182.282 123.962 179.912 124.69 177.501 125.229C177.432 125.246 177.358 125.251 177.289 125.251ZM153 124.335C152.902 124.335 152.805 124.318 152.713 124.289C150.067 123.475 147.461 122.421 144.976 121.155C144.494 120.909 144.299 120.319 144.546 119.837C144.793 119.356 145.389 119.167 145.866 119.408C148.253 120.622 150.75 121.636 153.293 122.416C153.809 122.576 154.102 123.126 153.941 123.642C153.809 124.066 153.425 124.335 153 124.335ZM138.474 116.944C138.267 116.944 138.06 116.881 137.882 116.749C135.644 115.076 133.543 113.203 131.655 111.192C131.282 110.797 131.305 110.178 131.701 109.806C132.097 109.433 132.717 109.456 133.09 109.851C134.904 111.782 136.912 113.575 139.059 115.18C139.495 115.506 139.581 116.119 139.26 116.555C139.065 116.807 138.772 116.944 138.474 116.944Z" fill="#222222"/>
<path d="M230.366 131.943C229.844 131.943 229.414 131.53 229.385 131.009C229.362 130.465 229.781 130.006 230.32 129.983C231.818 129.915 233.288 129.68 234.7 129.302C235.228 129.158 235.761 129.468 235.905 129.989C236.048 130.511 235.738 131.049 235.216 131.192C233.666 131.611 232.054 131.863 230.412 131.943C230.395 131.943 230.378 131.943 230.366 131.943ZM222.291 130.854C222.188 130.854 222.09 130.837 221.987 130.809C219.209 129.909 216.695 128.545 214.509 126.747C214.09 126.403 214.032 125.784 214.376 125.366C214.721 124.948 215.341 124.89 215.76 125.234C217.751 126.873 220.047 128.116 222.595 128.941C223.112 129.107 223.393 129.663 223.227 130.178C223.089 130.591 222.704 130.854 222.291 130.854Z" fill="#222222"/>
</g>
</svg>
