<svg width="117" height="86" viewBox="0 0 117 86" fill="none" xmlns="http://www.w3.org/2000/svg">
<path d="M115.883 11.6663C115.302 9.50944 113.212 8.60632 111.211 9.64673L98.9933 16.0039C97.3631 16.8516 95.6567 16.1152 95.1806 14.353C94.7044 12.5907 95.6419 10.4812 97.2752 9.62617L98.9658 8.74793C100.962 7.70963 102.112 5.11956 101.531 2.96268C100.95 0.805799 98.8601 -0.0973199 96.8586 0.943086L11.3225 45.2856C9.32625 46.3239 8.17636 48.9139 8.75753 51.0708C9.33871 53.2277 11.4283 54.1308 13.4297 53.0904L15.2549 52.1395C16.885 51.2918 18.5914 52.0282 19.0676 53.7904C19.5438 55.5527 18.6062 57.6622 16.973 58.5173L2.8304 65.878C0.834165 66.9163 -0.315723 69.5063 0.265453 71.6632C0.846629 73.8201 2.93618 74.7232 4.93763 73.6828L12.3228 69.833C13.953 68.9853 15.6594 69.7216 16.1355 71.4839C16.6117 73.2461 15.6742 75.3557 14.0409 76.2107L11.5284 77.5186C9.53218 78.5569 8.38229 81.1469 8.96346 83.3038C9.54464 85.4607 11.6342 86.3638 13.6356 85.3234L111.241 34.7079C113.237 33.6696 114.387 31.0796 113.806 28.9227C113.225 26.7658 111.135 25.8627 109.134 26.9031L105.96 28.5574C104.33 29.4051 102.623 28.6687 102.147 26.9065C101.671 25.1442 102.609 23.0347 104.242 22.1797L113.325 17.4547C115.314 16.4133 116.464 13.8232 115.883 11.6663Z" fill="#353535"/>
</svg>
