<svg width="49" height="49" viewBox="0 0 49 49" fill="none" xmlns="http://www.w3.org/2000/svg">
<path opacity="0.2" d="M22.9346 0.964761C23.7359 -0.0409534 25.2641 -0.0409533 26.0654 0.964761V0.964761C26.7415 1.81343 27.9708 1.96873 28.8368 1.31487V1.31487C29.863 0.540023 31.3432 0.920069 31.8692 2.09346V2.09346C32.313 3.08362 33.4651 3.53974 34.4664 3.12179V3.12179C35.6531 2.62649 36.9923 3.36271 37.2099 4.63004V4.63004C37.3936 5.69948 38.396 6.42777 39.4699 6.27198V6.27198C40.7424 6.08736 41.8564 7.13348 41.7521 8.41512V8.41512C41.664 9.49664 42.4538 10.4513 43.5327 10.5675V10.5675C44.8112 10.7052 45.63 11.9954 45.2102 13.2109V13.2109C44.856 14.2365 45.3835 15.3576 46.3996 15.7385V15.7385C47.6037 16.1897 48.076 17.6431 47.3671 18.716V18.716C46.7689 19.6213 47.0011 20.8384 47.8905 21.4599V21.4599C48.9446 22.1965 49.0405 23.7216 48.0871 24.5845V24.5845C47.2825 25.3126 47.2047 26.5492 47.9117 27.3724V27.3724C48.7494 28.348 48.4631 29.8491 47.325 30.4477V30.4477C46.3647 30.9529 45.9818 32.1313 46.4618 33.1044V33.1044C47.0307 34.2577 46.38 35.6404 45.1288 35.9372V35.9372C44.073 36.1877 43.4091 37.2338 43.632 38.2958V38.2958C43.8962 39.5542 42.9221 40.7317 41.6364 40.7081V40.7081C40.5515 40.6881 39.6483 41.5363 39.6001 42.6203V42.6203C39.543 43.9049 38.3066 44.8032 37.0673 44.4605V44.4605C36.0214 44.1714 34.9356 44.7683 34.6193 45.8063V45.8063C34.2446 47.0363 32.8237 47.5989 31.7085 46.9588V46.9588C30.7674 46.4186 29.5672 46.7267 29.0028 47.6535V47.6535C28.3339 48.7517 26.8177 48.9432 25.8967 48.0459V48.0459C25.1195 47.2886 23.8805 47.2886 23.1033 48.0459V48.0459C22.1823 48.9432 20.6661 48.7517 19.9972 47.6535V47.6535C19.4328 46.7267 18.2326 46.4186 17.2915 46.9588V46.9588C16.1763 47.5989 14.7554 47.0363 14.3807 45.8063V45.8063C14.0644 44.7683 12.9786 44.1714 11.9327 44.4605V44.4605C10.6934 44.8032 9.45702 43.9049 9.39992 42.6203V42.6203C9.35173 41.5363 8.4485 40.6881 7.36359 40.7081V40.7081C6.07792 40.7317 5.10382 39.5542 5.36798 38.2958V38.2958C5.59089 37.2338 4.92698 36.1877 3.87118 35.9372V35.9372C2.62002 35.6404 1.96935 34.2577 2.53817 33.1044V33.1044C3.01818 32.1313 2.6353 30.9529 1.67496 30.4477V30.4477C0.536912 29.8491 0.250557 28.348 1.08831 27.3724V27.3724C1.79525 26.5492 1.71745 25.3126 0.912911 24.5845V24.5845C-0.0405061 23.7216 0.0554504 22.1965 1.10949 21.4599V21.4599C1.99895 20.8384 2.23112 19.6213 1.63293 18.716V18.716C0.924047 17.6431 1.39629 16.1897 2.60038 15.7385V15.7385C3.61646 15.3576 4.14403 14.2365 3.78977 13.2109V13.2109C3.36997 11.9954 4.18881 10.7052 5.46731 10.5675V10.5675C6.54617 10.4513 7.33597 9.49664 7.24791 8.41512V8.41512C7.14356 7.13348 8.25756 6.08736 9.53013 6.27198V6.27198C10.604 6.42777 11.6064 5.69948 11.7901 4.63004V4.63004C12.0077 3.36271 13.3469 2.62649 14.5336 3.12179V3.12179C15.5349 3.53974 16.687 3.08362 17.1308 2.09346V2.09346C17.6568 0.920069 19.137 0.540024 20.1632 1.31487V1.31487C21.0292 1.96873 22.2585 1.81343 22.9346 0.964761V0.964761Z" fill="#222222"/>
</svg>
